<?xml version="1.0" standalone="no"?>
<!DOCTYPE svg PUBLIC "-//W3C//DTD SVG 20010904//EN"
 "http://www.w3.org/TR/2001/REC-SVG-20010904/DTD/svg10.dtd">
<svg version="1.0" xmlns="http://www.w3.org/2000/svg"
 width="994.000000pt" height="1300.000000pt" viewBox="0 0 994.000000 1300.000000"
 preserveAspectRatio="xMidYMid meet">
<metadata>
Created by potrace 1.16, written by Peter Selinger 2001-2019
</metadata>
<g transform="translate(0.000000,1300.000000) scale(0.100000,-0.100000)"
fill="#000000" stroke="none">
<path d="M6330 12724 c0 -3 22 -31 50 -61 112 -127 160 -285 134 -444 l-6 -37
-122 58 c-431 204 -905 341 -1319 380 -158 16 -471 8 -616 -15 -711 -112
-1280 -533 -1720 -1270 -100 -168 -142 -251 -226 -440 -88 -199 -116 -280
-102 -294 9 -9 8 -11 -4 -6 -12 5 -23 -20 -57 -127 -54 -172 -97 -337 -122
-464 -27 -141 -48 -193 -211 -510 -113 -223 -136 -274 -113 -254 21 18 19 14
-8 -15 -64 -70 -182 -375 -228 -591 -30 -138 -38 -369 -17 -489 41 -232 139
-422 316 -607 320 -337 740 -507 1296 -525 l190 -6 23 25 23 25 -188 6 c-278
9 -475 40 -678 109 -156 53 -404 185 -390 209 3 5 0 6 -8 3 -17 -6 -131 86
-225 184 -143 148 -241 317 -289 497 -24 90 -27 117 -27 275 0 144 4 193 22
278 39 181 127 422 225 617 23 47 26 57 11 45 -11 -8 -7 -1 7 15 15 17 56 86
91 155 179 343 195 382 228 545 28 142 70 306 116 447 20 62 37 117 39 123 1
5 7 22 13 37 6 15 34 84 62 155 77 189 208 449 308 609 429 685 952 1066 1627
1186 165 29 508 36 685 13 444 -56 826 -173 1313 -404 59 -28 110 -51 112 -51
2 0 9 32 15 72 26 152 -2 313 -74 427 -36 56 -17 52 37 -9 72 -80 130 -218
162 -390 10 -52 19 -101 21 -108 3 -8 34 18 76 63 118 126 240 202 359 223 30
6 56 9 58 7 2 -2 -7 -15 -20 -28 -129 -130 -292 -326 -319 -383 -30 -61 -26
-85 18 -110 98 -57 266 -199 255 -217 -3 -6 -1 -7 5 -3 28 17 335 -375 316
-405 -4 -7 -3 -9 4 -6 6 4 19 -12 32 -38 12 -25 26 -48 32 -51 5 -3 7 -12 4
-20 -5 -12 -2 -12 17 -3 20 11 21 11 8 -4 -11 -14 -9 -25 17 -74 16 -32 35
-76 42 -98 7 -22 21 -56 31 -75 11 -19 19 -40 19 -46 0 -7 6 -24 14 -39 8 -15
12 -34 9 -41 -3 -8 0 -14 7 -14 7 0 10 -7 6 -16 -8 -21 4 -70 14 -54 4 7 10
-4 15 -27 4 -21 7 -39 6 -40 0 -2 6 -21 14 -44 11 -30 12 -40 2 -37 -6 3 -13
17 -15 31 -2 15 -8 27 -13 27 -15 0 -10 -23 12 -59 11 -19 18 -43 15 -55 -2
-12 1 -34 9 -51 7 -16 14 -23 14 -16 1 11 4 12 12 4 7 -7 8 -17 3 -25 -5 -7
-7 -22 -6 -33 2 -14 -1 -12 -12 9 -9 15 -16 35 -16 42 0 8 -5 14 -11 14 -6 0
-8 -7 -5 -16 3 -9 6 -22 6 -30 0 -9 5 -12 12 -8 8 5 9 2 5 -9 -3 -9 0 -38 8
-64 8 -27 15 -59 16 -73 0 -18 2 -21 7 -9 5 12 13 14 27 8 15 -6 16 -8 4 -8
-32 -2 -31 -92 2 -179 5 -13 9 -34 9 -48 0 -14 5 -34 10 -44 6 -11 12 -32 14
-47 6 -49 69 -242 77 -237 4 2 11 -1 15 -7 4 -8 3 -9 -4 -5 -18 11 -15 -22 8
-81 44 -115 161 -583 184 -738 10 -60 20 -121 22 -133 l5 -24 25 27 c27 30 29
30 38 -1 5 -17 -2 -30 -27 -54 l-34 -32 5 -93 c2 -51 1 -106 -3 -122 l-8 -28
-9 35 c-39 150 -45 159 -73 117 -13 -21 -13 -32 1 -103 21 -105 24 -385 5
-408 -12 -14 -7 -23 43 -72 72 -71 88 -95 76 -114 -7 -11 -21 -2 -66 43 -60
60 -74 67 -74 41 0 -52 -131 -354 -153 -354 -6 0 -7 18 -3 43 19 113 36 450
24 463 -3 2 -8 -30 -12 -71 -24 -263 -148 -536 -330 -723 -70 -73 -194 -172
-214 -172 -6 0 -12 -4 -14 -9 -4 -12 -206 -111 -226 -111 -9 0 0 16 23 41 35
39 80 125 111 212 13 36 13 37 -7 27 -11 -6 -17 -15 -14 -21 4 -5 1 -8 -7 -7
-7 2 -12 -3 -11 -9 2 -7 -1 -12 -5 -10 -5 1 -87 -76 -183 -172 -145 -146 -259
-255 -239 -229 3 4 114 116 246 250 213 214 267 278 252 294 -3 2 -20 -17 -38
-44 -100 -139 -267 -259 -444 -317 -278 -90 -628 -25 -685 128 -16 42 -15 44
42 57 183 44 578 205 648 266 8 8 19 14 23 14 21 0 206 162 206 180 0 5 -12
-2 -27 -16 -67 -62 -204 -94 -297 -71 l-49 13 84 70 c115 97 220 216 306 344
105 158 157 264 203 416 17 58 9 72 -15 27 -11 -21 -22 -40 -25 -43 -3 -3 -27
-37 -53 -76 -25 -39 -69 -92 -96 -117 -51 -48 -116 -86 -127 -74 -4 3 4 23 16
44 13 21 36 63 53 93 16 30 34 59 38 65 5 5 9 16 9 24 0 8 6 22 14 30 12 14
63 161 95 276 37 130 65 414 56 560 -4 61 -7 120 -7 132 0 13 -4 21 -8 18 -5
-3 -12 0 -16 6 -4 7 -3 9 4 5 6 -3 13 -2 16 2 3 5 -6 15 -19 22 -14 7 -25 20
-25 27 0 8 -5 11 -12 7 -6 -4 -8 -3 -5 4 4 5 -8 22 -25 37 -71 58 -66 55 -64
30 0 -13 4 -21 9 -18 4 2 7 -1 7 -6 0 -6 -5 -11 -10 -11 -6 0 -10 -56 -10
-147 0 -82 -4 -179 -9 -218 -5 -38 -8 -72 -5 -76 2 -4 0 -18 -5 -31 -5 -13
-13 -40 -16 -62 -3 -21 -8 -36 -11 -34 -4 5 -35 289 -37 350 -1 20 -5 32 -8
26 -10 -16 -22 48 -14 74 4 16 3 19 -3 9 -7 -10 -11 -4 -16 20 -4 19 -7 46 -7
62 0 28 -13 37 -23 15 -3 -7 -3 5 0 27 4 27 2 35 -4 27 -12 -18 -25 30 -17 61
6 20 5 21 -6 3 -6 -10 -14 -14 -18 -9 -3 6 -17 14 -31 18 -21 7 -23 6 -12 -7
7 -9 14 -50 16 -92 4 -75 15 -115 17 -65 1 18 3 15 9 -11 5 -24 8 -28 9 -12 2
33 21 16 21 -19 0 -27 -19 -43 -21 -16 0 6 -4 3 -8 -8 -7 -16 -13 -6 -30 49
-11 37 -21 77 -21 88 0 10 -4 16 -10 13 -5 -3 -10 1 -10 9 0 9 -9 30 -19 47
-15 24 -17 38 -10 56 13 34 11 40 -5 18 -13 -18 -14 -18 -20 3 -4 12 -5 26 -1
31 3 6 -1 13 -8 18 -19 10 -58 88 -54 105 2 7 2 10 0 5 -3 -4 -25 23 -50 60
-25 38 -54 78 -65 90 -18 20 -19 25 -7 40 12 16 12 17 -2 6 -13 -10 -22 -5
-55 35 -57 69 -173 218 -226 292 -25 36 -74 92 -108 125 l-63 60 38 -70 c46
-85 118 -193 199 -299 34 -44 64 -84 68 -90 4 -6 13 -4 25 5 16 13 17 12 4 -3
-11 -15 -4 -29 65 -118 92 -117 158 -235 225 -402 164 -407 224 -845 164
-1191 -34 -193 -137 -427 -256 -577 -43 -55 -148 -163 -209 -215 -48 -41 -169
-135 -174 -135 -2 0 -30 -18 -62 -39 -33 -22 -117 -70 -189 -107 -71 -37 -132
-69 -134 -71 -3 -2 9 -18 25 -35 l29 -32 -38 32 c-21 18 -41 31 -45 28 -34
-19 -140 -61 -229 -91 -277 -92 -532 -133 -743 -120 -221 14 -509 72 -685 139
-99 38 -288 130 -362 176 -69 44 -76 46 -91 27 -17 -20 -9 -27 90 -85 53 -30
63 -47 49 -83 -5 -13 -10 -17 -11 -9 0 9 -3 11 -8 5 -4 -5 -22 -18 -41 -29
-27 -15 -59 -19 -169 -22 -130 -3 -137 -4 -161 -29 l-26 -25 110 0 110 0 -45
-26 c-188 -109 -422 -284 -625 -469 -132 -120 -125 -110 -102 -135 10 -12 9
-12 -5 -1 -22 16 -37 5 -128 -92 l-63 -68 20 -22 c10 -12 45 -51 77 -86 31
-35 54 -67 49 -71 -4 -4 -53 -42 -108 -86 -131 -103 -156 -125 -149 -135 3 -5
-1 -6 -9 -4 -7 3 -33 -16 -60 -44 -27 -28 -53 -54 -60 -58 -25 -16 -138 -145
-175 -200 -21 -32 -37 -64 -34 -72 2 -8 0 -11 -6 -7 -5 3 -17 -5 -26 -18 -41
-63 -176 -143 -404 -240 -155 -66 -224 -106 -217 -124 3 -7 1 -10 -5 -7 -17
10 -42 -42 -35 -73 10 -45 46 -73 105 -80 l52 -7 -44 -32 c-75 -54 -146 -122
-156 -151 -18 -53 27 -112 86 -112 50 0 83 10 75 23 -3 6 -1 7 5 3 6 -4 21 -2
33 4 34 19 33 5 -4 -49 -86 -124 -95 -180 -37 -219 48 -32 105 -19 207 45 29
18 54 33 56 33 3 0 7 -9 10 -21 3 -12 3 -18 -1 -15 -10 10 -41 -66 -42 -102 0
-48 40 -85 84 -79 42 6 69 26 126 94 25 30 75 86 111 124 79 83 100 87 156 31
58 -58 97 -82 146 -88 40 -6 48 -3 76 23 37 36 39 68 15 183 -19 90 -14 226
11 285 25 60 51 83 150 132 108 54 220 130 340 233 98 84 285 274 285 290 0
15 31 12 50 -5 19 -18 27 24 -75 -400 -94 -392 -189 -804 -261 -1130 -93 -421
-102 -465 -133 -615 -34 -166 -89 -468 -89 -490 0 -8 -3 -24 -7 -36 -6 -18 4
-25 74 -57 98 -45 312 -116 444 -148 109 -26 103 -17 88 -127 -43 -311 -44
-321 -31 -337 7 -8 15 -15 19 -15 6 0 36 204 57 393 7 55 7 55 130 33 162 -30
416 -60 684 -82 47 -3 88 -8 91 -10 8 -5 -7 -75 -60 -274 -23 -85 -49 -186
-58 -224 l-18 -69 -145 6 c-125 6 -446 38 -505 51 -11 3 -54 12 -95 20 -41 9
-80 18 -86 20 -8 3 -8 20 -2 60 8 42 7 60 -2 71 -7 8 -15 15 -19 15 -4 0 -13
-39 -19 -88 -45 -309 -126 -461 -340 -639 -107 -87 -207 -142 -279 -153 -173
-24 -402 -226 -503 -443 -62 -133 -80 -260 -56 -390 22 -117 32 -135 75 -146
167 -43 626 -50 900 -13 234 32 558 103 547 121 -2 3 8 6 24 7 15 1 57 15 92
33 59 28 69 38 97 91 79 148 146 393 161 585 6 87 20 149 63 300 82 282 266
975 272 1024 2 13 7 27 12 32 7 7 653 18 653 11 0 -9 215 -828 234 -892 8 -25
24 -81 36 -125 12 -44 32 -116 45 -160 13 -44 27 -118 30 -165 11 -145 56
-359 92 -440 9 -19 17 -42 19 -50 2 -8 21 -51 44 -97 40 -80 41 -82 108 -114
145 -69 406 -129 742 -171 166 -20 567 -17 724 6 150 23 142 15 171 172 13 74
15 105 6 167 -29 211 -142 396 -336 550 -70 56 -180 107 -230 107 -44 0 -123
41 -244 128 -76 53 -221 196 -221 217 0 2 -15 28 -33 57 -68 108 -86 180 -159
651 -10 66 -11 68 -29 52 -12 -11 -17 -26 -14 -44 15 -89 45 -325 41 -328 -6
-6 -198 -39 -346 -59 -97 -13 -140 -23 -154 -36 -11 -10 -17 -20 -15 -23 7 -6
125 8 348 41 186 29 190 28 191 -24 0 -31 36 -134 70 -201 39 -79 113 -177
179 -240 64 -61 195 -161 210 -161 6 0 11 -3 11 -8 0 -4 13 -13 30 -20 35 -16
38 -28 8 -38 -12 -3 -74 -60 -139 -125 l-117 -118 -119 -7 c-294 -17 -566 54
-748 193 -54 42 -54 41 -135 339 -32 118 -37 128 -58 113 -16 -13 -16 -12 0 7
17 20 17 25 -7 115 -13 52 -25 97 -25 101 0 3 39 9 88 13 48 3 109 7 135 9 43
3 87 27 87 46 0 3 -35 3 -77 -1 -43 -4 -116 -10 -164 -13 l-85 -6 -23 88 c-13
48 -47 179 -76 292 l-53 205 32 3 c17 1 117 9 221 17 161 13 501 52 627 72
l36 5 7 -88 c9 -107 16 -125 37 -92 11 18 13 37 7 83 -15 120 -25 108 113 135
102 21 129 30 158 55 25 21 29 23 15 6 l-20 -23 35 7 c198 42 470 155 570 237
l24 20 -22 136 c-37 220 -191 869 -305 1288 -14 49 -39 143 -57 209 -17 66
-79 290 -136 498 -58 207 -103 380 -100 385 2 4 21 16 41 27 37 19 37 19 48 0
29 -53 236 -257 254 -251 7 3 10 0 8 -7 -5 -13 83 -84 98 -79 5 1 6 -2 3 -7
-6 -9 43 -47 57 -43 4 1 7 -2 7 -7 0 -12 106 -79 205 -131 44 -23 92 -56 107
-73 57 -68 72 -189 43 -343 -20 -107 -15 -151 19 -181 54 -46 137 -20 225 71
19 20 41 36 48 36 33 0 77 -36 149 -122 102 -122 106 -126 134 -108 12 8 11
12 -8 30 -15 14 -29 19 -42 15 -22 -7 -26 5 -10 21 14 14 -128 166 -174 188
-53 25 -73 20 -129 -34 -83 -80 -143 -100 -172 -56 -14 21 -14 32 1 117 10 59
15 129 12 189 -6 151 -50 221 -178 281 -86 41 -145 78 -264 169 -93 70 -285
250 -351 329 l-28 35 33 25 c70 53 248 210 354 312 102 98 110 108 96 124 -14
17 -13 17 15 0 37 -23 225 -171 279 -219 22 -19 43 -33 48 -30 5 3 7 2 6 -3
-2 -4 31 -42 72 -83 42 -41 92 -94 113 -118 23 -26 43 -40 50 -36 9 5 9 4 1
-6 -21 -22 81 -150 184 -231 27 -21 132 -78 132 -71 0 4 4 2 8 -4 4 -7 73 -40
154 -74 81 -34 167 -75 192 -91 40 -25 46 -33 46 -63 0 -60 -62 -72 -191 -36
l-71 19 29 -28 c15 -15 57 -51 93 -80 36 -28 71 -56 78 -62 10 -9 18 -8 28 3
12 12 8 19 -32 49 l-46 34 28 3 c63 5 99 22 117 52 47 78 -14 135 -248 234
-120 51 -239 111 -293 147 -24 16 -49 26 -55 23 -7 -4 -9 -4 -5 1 4 4 -13 30
-37 57 -25 28 -45 54 -45 60 0 5 -4 6 -10 3 -5 -3 -8 0 -5 7 9 23 -110 172
-128 161 -6 -3 -7 -2 -4 3 8 13 -121 143 -218 220 -27 21 -59 47 -70 57 -11
10 -50 42 -87 70 -70 54 -78 66 -53 87 8 6 40 43 71 82 l58 70 -155 151 c-157
154 -362 337 -378 337 -5 0 -14 -6 -20 -14 -9 -11 10 -32 98 -105 120 -100
391 -359 391 -374 0 -17 -179 -212 -292 -319 -148 -139 -362 -309 -394 -314
-13 -2 -13 34 0 54 4 7 1 12 -8 12 -9 0 -16 5 -16 10 0 13 -33 13 -47 -1 -14
-14 -18 -7 -42 77 -35 123 -67 233 -166 559 -175 582 -237 780 -249 794 -9 12
-8 13 4 6 8 -6 17 -10 20 -10 3 0 41 -16 85 -35 167 -73 364 -188 523 -308 66
-49 75 -53 89 -39 14 13 10 19 -37 56 l-52 41 169 0 c192 0 307 16 453 62 246
78 516 260 746 501 193 201 300 418 340 687 25 172 14 477 -26 675 -32 166
-46 226 -80 365 -21 85 -72 272 -113 415 -132 459 -159 566 -253 990 -118 538
-365 989 -709 1296 -66 58 -194 154 -217 161 -28 10 93 169 274 362 90 95 110
121 101 134 -29 46 -155 33 -281 -28 -86 -42 -121 -67 -194 -136 -51 -48 -67
-48 -68 0 0 10 -16 66 -35 125 -77 228 -188 351 -318 351 -26 0 -47 -3 -47 -6z
m1937 -4412 c5 -128 4 -142 -10 -142 -22 0 -75 74 -83 116 -3 19 -3 49 0 68 8
42 64 122 77 109 5 -5 12 -73 16 -151z m-4284 -1186 c131 -59 180 -80 190 -78
11 3 9 -16 -12 -114 -19 -90 -37 -193 -65 -374 -48 -309 -45 -625 6 -692 19
-25 132 -38 391 -45 125 -3 227 -10 227 -14 0 -5 7 -9 15 -9 12 0 15 -16 15
-80 0 -63 3 -80 15 -80 11 0 15 -18 17 -77 l3 -77 33 -8 c28 -8 32 -13 32 -43
0 -31 3 -35 25 -35 25 0 25 -1 25 -80 0 -64 3 -80 15 -80 19 0 21 -75 3 -84
-7 -3 3 -4 22 -2 19 2 42 0 50 -5 8 -4 27 -10 43 -14 15 -3 27 -10 27 -16 0
-6 -6 -9 -13 -6 -8 3 -20 1 -28 -3 -8 -5 -19 -4 -26 2 -7 6 -13 7 -13 2 0 -5
-7 0 -15 10 -8 11 -17 17 -21 14 -11 -12 60 -69 79 -64 14 3 16 2 7 -9 -10
-12 -16 -12 -38 3 -15 9 -35 25 -44 35 -22 21 -99 15 -132 -10 -21 -15 -21
-15 4 -9 60 16 81 18 102 13 29 -8 68 -43 68 -61 0 -20 -40 -27 -57 -10 -17
17 -16 17 -79 0 -52 -14 -103 -5 -137 22 -6 5 -31 15 -54 21 -23 6 -48 18 -56
26 -42 42 -269 60 -361 29 -67 -23 -149 -102 -186 -179 -34 -72 -60 -183 -60
-260 0 -240 169 -451 488 -610 114 -57 258 -115 332 -133 44 -10 85 -6 180 18
24 7 36 6 42 -3 5 -8 8 -8 8 -1 0 7 9 14 21 17 12 3 18 10 15 15 -3 6 8 15 24
21 35 12 41 5 8 -9 l-23 -9 23 0 c13 -1 33 4 44 10 17 9 18 13 7 20 -10 6 -7
9 11 9 40 0 70 11 63 23 -4 7 0 8 12 4 11 -5 22 -2 29 7 9 13 14 12 35 -4 l23
-20 -31 6 c-28 6 -31 4 -31 -20 0 -31 -26 -62 -55 -68 -12 -2 -21 -13 -23 -26
-3 -18 -10 -22 -37 -22 -37 0 -45 -12 -45 -71 0 -39 0 -39 -40 -39 -29 0 -40
4 -40 15 0 11 -11 15 -40 15 -29 0 -40 -4 -40 -15 0 -11 -11 -15 -40 -15 l-40
0 0 -40 0 -40 -40 0 c-38 0 -40 2 -40 30 0 40 -11 38 -53 -10 -26 -31 -42 -40
-66 -40 -22 0 -31 -5 -32 -17 -1 -12 -3 -10 -8 6 -12 45 -31 36 -31 -15 0 -30
-6 -54 -17 -66 -20 -23 -33 -23 -33 -1 0 13 -7 10 -30 -12 -22 -21 -27 -31
-18 -37 10 -6 10 -8 0 -8 -7 0 -17 -10 -22 -23 -9 -22 -9 -22 -11 3 0 14 0 34
1 45 2 16 0 17 -14 6 -9 -8 -14 -16 -11 -19 8 -8 -46 -62 -62 -62 -7 0 -13 -6
-13 -13 0 -7 -13 -26 -30 -42 -20 -19 -30 -24 -30 -14 0 12 -2 12 -10 -1 -5
-8 -7 -24 -4 -36 3 -12 -1 -26 -10 -33 -9 -8 -16 -11 -16 -7 0 4 -11 -1 -24
-9 -15 -10 -22 -22 -19 -34 3 -11 -6 -30 -20 -46 -14 -15 -33 -36 -42 -47 -13
-15 -19 -17 -25 -8 -6 9 -17 4 -40 -19 -31 -29 -32 -31 -11 -31 25 0 24 -19
-2 -32 -9 -4 -24 -11 -33 -15 -17 -9 -20 -27 -4 -29 6 -1 13 -2 17 -3 4 0 -12
-18 -35 -39 -27 -25 -42 -47 -42 -63 0 -16 -3 -20 -8 -11 -6 9 -15 6 -32 -13
-21 -22 -22 -28 -10 -36 13 -8 12 -12 -7 -28 -13 -11 -23 -27 -23 -37 0 -9
-14 -30 -31 -47 -25 -23 -33 -27 -41 -16 -6 10 -8 6 -6 -13 2 -18 -6 -36 -25
-56 l-29 -30 37 -12 c46 -15 30 -30 -30 -29 -22 0 -58 -2 -80 -5 -24 -4 -33
-3 -22 2 12 5 -9 8 -55 7 -40 0 -93 5 -118 12 -25 7 -101 26 -170 43 -111 29
-330 103 -382 131 -15 8 -19 19 -16 45 4 33 3 33 -17 16 -18 -15 -18 -14 2 8
15 17 27 54 38 115 80 444 316 1499 539 2418 31 125 56 236 56 246 0 10 -9 26
-19 35 -18 17 -20 14 -42 -77 l-22 -95 -31 21 c-187 133 -507 426 -633 580
-65 79 -78 51 102 227 243 237 438 391 675 533 105 62 241 129 248 122 3 -3
-65 -288 -151 -633 -87 -345 -157 -634 -157 -643 0 -9 8 -23 18 -33 23 -20 0
-102 207 737 92 372 172 677 177 677 6 0 24 -6 41 -14z m391 -144 l100 -28 37
-73 c45 -89 87 -134 160 -171 173 -88 400 -18 508 156 31 51 33 52 99 64 37 7
74 16 82 20 8 4 35 10 60 13 l45 6 17 -77 c9 -42 42 -194 72 -337 49 -232 66
-317 107 -527 7 -31 9 -63 6 -71 -21 -55 -835 -104 -1274 -78 -249 15 -247 14
-263 59 -43 128 -8 552 81 980 20 96 24 103 43 99 12 -3 66 -19 120 -35z m277
-58 c66 -10 175 -17 296 -18 140 -1 193 -4 193 -13 0 -6 -22 -36 -50 -66 -65
-71 -128 -99 -236 -105 -99 -5 -163 13 -221 63 -38 32 -113 155 -95 155 5 0
55 -7 113 -16z m-1641 -1030 c132 -128 281 -259 379 -331 17 -12 -193 -227
-319 -327 -160 -127 -187 -145 -321 -212 -130 -65 -171 -131 -177 -290 -3 -69
1 -126 13 -183 19 -97 15 -126 -20 -135 -37 -9 -91 18 -151 74 -55 52 -84 61
-127 39 -32 -17 -116 -97 -161 -153 -56 -70 -116 -126 -136 -126 -27 0 -43 26
-36 57 10 43 67 172 103 235 18 31 33 59 33 63 0 3 -24 -17 -52 -45 -135 -131
-333 -222 -353 -161 -6 21 7 62 34 100 10 14 16 33 13 41 -3 8 -1 12 3 8 10
-9 16 -1 111 154 59 96 69 116 46 97 -115 -94 -150 -120 -196 -143 -64 -32
-111 -34 -126 -5 -22 40 -2 66 118 163 153 125 192 160 167 151 -62 -21 -166
-37 -199 -31 -54 10 -68 63 -27 100 21 19 156 86 246 121 91 36 228 108 287
152 54 39 123 114 146 158 22 43 111 153 170 209 28 27 48 54 45 59 -3 6 -1 7
6 3 6 -4 43 21 89 63 42 38 116 100 165 136 48 37 85 71 82 76 -4 5 2 6 12 2
10 -3 70 -57 133 -119z m1588 -854 c-1 -5 -76 -83 -165 -174 -109 -109 -163
-171 -163 -185 0 -12 11 -43 25 -69 29 -54 30 -63 10 -117 -8 -22 -14 -48 -15
-58 0 -10 66 -85 152 -173 135 -137 156 -154 185 -154 24 0 44 10 70 34 36 33
37 34 38 119 l1 85 128 126 c99 98 132 125 147 121 11 -4 19 -2 19 6 0 9 14
10 53 4 28 -4 62 -7 74 -7 18 0 21 -3 13 -17 -5 -10 -25 -28 -44 -42 -19 -13
-32 -27 -29 -32 3 -5 -4 -4 -17 3 -20 11 -21 10 -10 -10 11 -20 10 -21 -12
-10 -19 10 -21 10 -10 -1 15 -16 16 -33 0 -23 -8 5 -9 2 -5 -10 4 -9 3 -15 -2
-11 -6 3 -14 -2 -19 -12 -8 -14 -13 -15 -26 -4 -16 14 -36 7 -36 -12 0 -7 4
-6 10 3 7 12 12 12 21 3 10 -10 8 -17 -10 -32 -12 -11 -22 -22 -22 -25 1 -3
-1 -6 -5 -6 -3 1 -18 -13 -33 -29 -16 -17 -31 -27 -35 -24 -3 3 -6 1 -6 -6 0
-7 -18 -30 -39 -51 -21 -21 -37 -41 -34 -43 2 -3 -9 -13 -26 -23 -17 -10 -31
-21 -31 -25 0 -12 -74 -79 -94 -85 -11 -4 -22 -2 -24 5 -2 6 -10 11 -18 11
-36 0 -98 47 -221 166 -73 71 -136 140 -141 154 -6 17 -4 45 6 84 14 58 14 61
-8 101 -18 33 -22 52 -18 93 5 50 7 52 159 205 124 125 160 156 182 156 16 1
27 -3 25 -9z m164 -226 c44 -23 76 -62 92 -116 53 -173 -166 -304 -295 -178
-67 65 -77 166 -25 234 51 67 159 95 228 60z m701 -961 c-4 -10 -2 -14 4 -10
6 4 16 0 23 -8 7 -8 16 -12 21 -9 5 3 6 -2 3 -10 -4 -9 1 -18 10 -22 9 -3 14
-10 11 -14 -3 -5 -1 -11 5 -15 10 -6 15 9 10 30 -1 6 2 6 6 2 5 -4 8 -18 9
-30 0 -16 98 -121 335 -359 300 -301 419 -423 398 -408 -4 3 -135 132 -291
288 -156 155 -287 280 -290 277 -4 -3 -5 -2 -2 2 8 10 -16 33 -29 26 -6 -3 -8
-3 -4 1 8 10 -34 52 -47 48 -5 -2 -7 0 -3 4 11 10 -12 35 -25 27 -5 -3 -8 -2
-6 3 4 8 -44 63 -56 64 -3 0 -5 3 -4 6 0 3 -12 15 -26 26 -14 11 -24 26 -21
34 3 8 0 11 -10 7 -21 -8 -41 13 -38 39 3 31 3 30 14 23 5 -3 6 -13 3 -22z
m-1893 -1892 c41 -7 86 -15 100 -18 l25 -6 -20 23 c-19 22 -18 22 15 -2 31
-24 54 -28 220 -46 102 -12 231 -24 288 -27 56 -4 102 -8 102 -9 0 -2 -16 -61
-35 -132 -79 -291 -139 -490 -154 -508 -45 -53 -173 -128 -288 -169 -130 -47
-231 -61 -433 -61 l-186 0 -44 49 c-71 78 -162 162 -202 187 -35 22 -48 38
-30 38 20 0 193 124 260 185 158 146 232 279 277 498 4 21 9 26 18 19 7 -5 46
-14 87 -21z m2255 -1390 c194 -71 483 -138 695 -160 52 -6 199 -13 325 -18
127 -4 219 -9 205 -12 -14 -4 -26 -14 -28 -23 -2 -15 2 -17 28 -12 16 4 30 4
30 1 0 -14 -152 -28 -295 -28 -320 1 -794 84 -1001 176 -45 20 -57 31 -79 76
-31 60 -44 60 120 0z m-2038 -69 c2 -19 -6 -26 -45 -43 -26 -12 -63 -23 -82
-26 -19 -3 -42 -9 -51 -14 -30 -16 -235 -58 -359 -73 -311 -39 -650 -40 -849
-3 -62 12 -64 13 -78 51 -7 22 -12 40 -11 41 2 1 44 -4 93 -11 132 -21 554
-29 716 -15 139 12 423 61 519 88 30 9 70 16 88 16 17 0 32 5 32 10 0 18 23 0
27 -21z"/>
<path d="M6055 10699 c-4 -5 -27 -23 -51 -38 -44 -27 -44 -27 -24 -46 16 -15
25 -16 44 -7 23 10 25 8 43 -41 13 -39 37 -71 92 -127 40 -41 69 -68 62 -59
-6 9 -8 19 -4 22 3 4 1 7 -4 7 -14 0 -81 139 -113 233 -23 66 -32 77 -45 56z"/>
<path d="M5860 10594 c-41 -19 -81 -32 -87 -29 -7 2 -13 1 -13 -4 0 -4 -37
-19 -82 -34 -46 -14 -128 -40 -183 -57 -147 -47 -434 -116 -592 -144 -171 -30
-392 -48 -458 -38 l-50 7 35 14 c136 54 320 140 353 165 54 42 66 62 47 81
-13 13 -22 12 -80 -6 -35 -11 -127 -31 -205 -45 -520 -93 -613 -125 -838 -286
-143 -103 -373 -311 -454 -410 -51 -63 -125 -217 -190 -398 l-34 -95 6 90 c12
157 44 360 75 465 11 38 13 67 4 58 -3 -4 -7 -12 -8 -20 -2 -7 -8 -26 -15 -43
-25 -64 -31 -83 -55 -175 -47 -180 -59 -260 -62 -430 -1 -91 -8 -232 -14 -315
-22 -272 13 -538 106 -808 43 -125 142 -326 206 -421 100 -146 330 -383 406
-419 12 -5 22 -15 22 -20 0 -6 9 -2 20 8 11 10 20 21 20 24 0 4 -31 29 -70 56
-78 56 -242 219 -311 310 -163 215 -266 456 -330 773 -28 140 -37 451 -15 590
20 130 118 427 192 581 52 110 54 115 37 135 -16 20 -16 20 0 6 16 -15 28 -5
160 125 290 285 494 422 718 480 101 27 529 108 535 102 4 -4 -72 -39 -173
-81 -34 -14 -101 -37 -149 -51 -48 -14 -89 -27 -92 -29 -10 -10 111 -57 173
-66 241 -39 876 88 1395 277 69 25 138 52 153 60 28 14 28 15 11 34 -22 24
-24 24 -114 -17z"/>
<path d="M5728 9903 c-30 -24 -88 -99 -88 -115 0 -3 22 6 49 19 114 57 231 22
390 -114 l44 -38 -40 63 c-48 77 -113 145 -172 184 -62 39 -133 39 -183 1z"/>
<path d="M3798 9860 c-70 -21 -185 -129 -237 -222 -27 -48 -26 -47 58 25 118
100 246 128 349 75 l53 -28 -22 40 c-29 52 -76 95 -118 109 -38 12 -45 13 -83
1z"/>
<path d="M7129 9788 c0 -24 -2 -28 -8 -15 -5 13 -12 -1 -24 -50 -18 -75 -29
-205 -15 -197 4 3 8 0 8 -5 0 -6 5 -11 11 -11 7 0 8 5 2 13 -5 6 -10 26 -11
42 -1 26 0 27 8 10 8 -15 9 -1 6 50 -4 55 -3 62 5 35 5 -19 7 -65 4 -103 -4
-66 -4 -68 30 -104 19 -21 35 -35 36 -33 8 52 21 68 15 21 -2 -23 1 -34 15
-42 17 -9 18 -7 9 16 -6 15 -10 42 -10 61 0 19 -3 34 -7 34 -5 0 -9 27 -10 60
-1 33 -7 68 -13 78 -11 17 -10 12 5 -61 2 -12 0 -29 -5 -37 -10 -15 -15 36
-13 118 0 17 -4 32 -9 32 -5 0 -7 -4 -4 -8 2 -4 1 -14 -5 -22 -13 -22 -12 16
2 42 13 23 2 39 -12 18 -6 -10 -7 2 -3 38 4 28 4 52 0 52 -3 0 -6 -15 -7 -32z"/>
<path d="M5827 9355 c-31 -6 -65 -19 -75 -28 -10 -9 -23 -17 -28 -17 -17 0
-65 -56 -57 -65 5 -4 3 -5 -3 -2 -6 4 -19 -2 -29 -13 -10 -11 -14 -20 -10 -20
5 0 -1 -10 -12 -22 -29 -32 -47 -71 -74 -158 -29 -94 -32 -260 -6 -360 37
-142 123 -262 224 -311 73 -36 178 -34 257 6 147 74 239 259 240 485 2 322
-192 552 -427 505z m198 -89 c86 -51 158 -157 190 -281 19 -76 19 -234 0 -309
-35 -133 -117 -248 -211 -296 -67 -34 -179 -35 -243 -1 -163 86 -257 324 -217
551 27 151 120 296 220 344 83 39 185 36 261 -8z"/>
<path d="M5807 9129 c-137 -72 -212 -263 -177 -449 22 -118 93 -223 175 -261
48 -22 132 -25 179 -5 126 53 211 250 185 431 -25 179 -137 305 -269 304 -35
0 -69 -7 -93 -20z m71 -145 c33 -38 30 -97 -7 -135 -32 -31 -47 -35 -84 -18
-26 12 -57 57 -57 84 0 33 32 84 58 94 35 12 62 5 90 -25z m-98 -455 c54 -54
99 -68 159 -50 43 12 86 51 58 51 -24 0 -40 35 -27 60 14 26 45 26 64 -1 14
-21 14 -21 29 8 9 16 19 46 23 67 5 32 8 36 16 21 14 -23 1 -79 -30 -139 -14
-28 -26 -55 -27 -61 0 -5 -5 -10 -12 -10 -6 0 -24 -11 -40 -25 -15 -13 -36
-23 -47 -21 -12 2 -16 -1 -11 -9 6 -9 -3 -11 -31 -7 -91 12 -98 15 -127 51
-16 20 -34 33 -40 29 -5 -3 -7 -1 -3 5 3 6 -3 26 -14 45 -23 38 -41 122 -32
146 4 10 13 -9 25 -48 14 -50 29 -74 67 -112z"/>
<path d="M3784 9309 c-72 -13 -148 -65 -207 -143 -78 -102 -112 -213 -111
-371 0 -183 46 -307 150 -411 71 -71 125 -94 219 -94 144 0 278 124 336 310
29 93 36 245 15 344 -50 242 -220 396 -402 365z m184 -94 c214 -116 278 -503
124 -741 -73 -113 -154 -163 -262 -164 -193 0 -342 199 -344 460 -1 154 42
282 129 378 99 110 229 135 353 67z"/>
<path d="M3760 9084 c-141 -61 -224 -288 -175 -477 42 -161 135 -251 260 -252
52 0 68 5 113 34 266 171 180 711 -113 710 -27 0 -66 -7 -85 -15z m61 -143
c43 -43 35 -118 -15 -153 -27 -19 -74 -8 -100 23 -30 35 -33 67 -10 110 28 54
82 63 125 20z m229 -341 c-5 -25 -14 -58 -21 -75 -7 -16 -12 -33 -11 -37 1 -4
-14 -21 -33 -39 -19 -18 -31 -37 -28 -42 3 -6 1 -7 -5 -3 -7 4 -12 3 -12 -3 0
-30 -162 -40 -180 -12 -4 7 -11 13 -16 13 -5 0 -8 4 -7 9 2 4 -5 5 -15 2 -9
-3 -14 -3 -10 1 3 4 -9 32 -27 61 -31 48 -54 114 -55 155 0 26 26 -11 38 -55
15 -51 66 -114 108 -131 48 -20 104 -17 144 7 l35 22 -23 15 c-26 17 -29 44
-6 66 19 19 54 5 54 -22 1 -14 4 -13 20 7 11 13 20 30 20 38 0 16 30 77 35 71
2 -1 0 -23 -5 -48z"/>
<path d="M5303 8019 c-226 -77 -473 -89 -667 -33 -62 18 -67 18 -60 -1 5 -11
-1 -15 -20 -15 -17 0 -43 15 -73 43 l-46 42 7 -84 c20 -244 196 -516 381 -589
87 -34 161 -45 213 -32 78 19 131 49 186 103 62 60 131 161 121 177 -3 6 -1 9
6 8 17 -4 67 146 80 239 12 89 9 176 -6 178 -5 1 -60 -15 -122 -36z m-97 -345
c30 -15 61 -35 70 -45 14 -16 14 -20 -2 -50 -39 -76 -169 -178 -227 -179 -10
0 -31 10 -46 21 -16 12 -34 19 -39 15 -6 -3 -12 -1 -14 5 -3 8 -9 7 -19 -3
-43 -44 -133 -14 -221 74 l-49 48 26 35 c57 74 141 114 205 98 40 -11 48 -29
49 -117 1 -72 8 -69 21 10 6 32 13 69 15 81 11 50 140 53 231 7z"/>
<path d="M7840 4586 c0 -3 10 -20 23 -39 12 -18 40 -72 62 -119 32 -70 43 -85
62 -85 19 0 21 2 12 19 -19 35 -5 38 41 8 50 -32 150 -74 150 -62 -1 14 -47
51 -134 106 -49 30 -117 82 -152 116 -35 33 -64 58 -64 56z"/>
</g>
</svg>
