<?xml version="1.0" standalone="no"?>
<!DOCTYPE svg PUBLIC "-//W3C//DTD SVG 20010904//EN"
 "http://www.w3.org/TR/2001/REC-SVG-20010904/DTD/svg10.dtd">
<svg version="1.0" xmlns="http://www.w3.org/2000/svg"
 width="957.000000pt" height="960.000000pt" viewBox="0 0 957.000000 960.000000"
 preserveAspectRatio="xMidYMid meet">
<metadata>
Created by potrace 1.16, written by Peter Selinger 2001-2019
</metadata>
<g transform="translate(0.000000,960.000000) scale(0.100000,-0.100000)"
fill="#000000" stroke="none">
<path d="M0 9071 l0 -529 113 -8 c61 -5 117 -9 122 -10 6 -1 20 -2 33 -3 33
-2 55 -33 57 -83 1 -23 5 -52 8 -63 8 -24 33 -204 43 -297 6 -68 6 -68 -22
-79 -20 -7 -82 -9 -191 -5 l-163 6 0 -205 c0 -166 3 -213 16 -243 38 -90 60
-352 29 -352 -8 0 -15 5 -15 10 0 6 -7 10 -15 10 -13 0 -15 -22 -15 -140 0
-77 3 -140 6 -140 4 0 21 13 39 29 37 32 131 71 173 71 15 0 37 11 50 25 13
13 39 29 58 35 48 16 81 1 139 -62 52 -55 122 -88 171 -81 39 6 68 -22 42 -41
-14 -10 -14 -16 -1 -51 36 -98 37 -104 25 -166 -12 -64 -48 -123 -80 -133 -11
-4 -25 -18 -32 -31 -13 -25 -61 -45 -110 -45 -34 0 -47 -11 -51 -40 -3 -15
-12 -26 -23 -28 -16 -3 -18 0 -12 23 5 21 2 31 -18 46 -33 26 -44 81 -22 113
8 14 17 44 18 67 3 40 1 43 -27 50 -16 3 -43 14 -60 22 -80 41 -120 -23 -70
-114 29 -54 25 -72 -21 -89 -23 -9 -142 14 -158 30 -6 6 -16 10 -23 10 -9 0
-11 -24 -8 -102 3 -57 5 -121 4 -143 0 -22 -2 -780 -5 -1684 l-4 -1644 35 6
c48 8 160 54 207 84 26 18 41 37 48 62 6 20 16 44 24 53 15 20 80 50 89 42 3
-3 13 6 22 20 10 14 21 26 25 26 14 0 108 -95 126 -127 23 -42 11 -53 -24 -21
-34 32 -71 42 -79 22 -3 -9 -1 -20 6 -27 6 -6 11 -40 11 -77 0 -36 3 -82 6
-102 6 -35 9 -37 48 -40 47 -3 56 -25 18 -44 -39 -20 -45 -30 -31 -55 6 -13
17 -27 23 -31 5 -4 11 -19 11 -34 2 -28 11 -35 100 -76 85 -39 85 -40 85 -82
0 -21 9 -53 19 -70 10 -17 22 -50 26 -74 6 -35 4 -41 -8 -36 -10 3 -25 -5 -39
-21 -28 -33 -152 -115 -173 -115 -8 0 -15 -4 -15 -10 0 -14 44 -12 130 6 62
14 85 14 132 5 31 -7 62 -19 68 -27 7 -7 17 -14 23 -14 13 0 85 -59 131 -107
63 -68 138 -193 161 -270 36 -117 4 -247 -73 -298 -21 -14 -45 -37 -52 -50 -7
-14 -17 -25 -21 -25 -4 0 -22 -14 -40 -31 -18 -17 -45 -37 -61 -45 -15 -8 -28
-18 -28 -23 0 -12 -71 -54 -90 -54 -8 0 -22 -5 -30 -12 -8 -7 -40 -25 -70 -40
-30 -15 -62 -33 -70 -39 -18 -15 -89 -36 -120 -36 -13 0 -47 -11 -75 -25 -64
-30 -228 -44 -340 -30 -16 2 -54 7 -83 11 l-52 6 0 -149 0 -150 61 -47 c43
-34 66 -45 80 -41 25 8 56 -14 38 -26 -9 -5 -3 -16 20 -38 35 -33 57 -39 64
-18 5 16 -24 77 -37 77 -5 0 5 11 24 25 19 14 40 25 48 25 8 0 38 19 66 43 28
24 59 47 70 50 11 4 16 13 12 22 -4 10 1 15 14 15 11 0 20 -4 20 -10 0 -5 7
-10 16 -10 9 0 28 -9 43 -19 27 -19 27 -19 41 2 8 12 13 25 12 30 -3 11 46 8
53 -3 4 -6 1 -17 -5 -25 -16 -19 -4 -35 26 -35 16 0 28 -8 36 -25 13 -29 25
-31 48 -10 24 21 87 29 123 14 28 -12 31 -11 52 15 19 24 27 27 54 21 23 -5
40 -1 66 15 39 24 49 21 88 -28 l19 -23 26 26 c20 20 35 26 71 25 97 -1 156
12 165 35 6 17 86 21 86 5 0 -15 24 -12 93 11 62 22 146 43 222 58 22 4 54 15
72 24 28 15 32 15 37 1 3 -9 6 -91 6 -182 0 -209 34 -563 74 -777 9 -44 15
-86 16 -92 0 -10 37 -13 150 -13 136 0 150 2 150 18 0 9 -7 79 -17 155 -14
116 -14 140 -3 147 11 7 11 34 1 167 -7 87 -19 173 -27 191 -7 18 -11 39 -8
47 3 8 -4 35 -16 60 -17 34 -21 56 -16 84 4 27 2 42 -8 50 -8 7 -16 44 -20 94
-4 45 -9 108 -12 139 -2 31 -11 76 -19 99 -9 24 -15 77 -15 128 0 48 -5 92
-11 98 -17 17 -16 238 2 259 11 13 11 18 2 21 -9 3 -10 10 -4 21 4 9 11 44 14
76 3 33 10 62 14 65 13 10 32 71 27 86 -3 8 4 20 15 27 12 7 21 21 21 30 0 10
4 18 10 18 5 0 12 17 16 38 4 20 11 40 17 43 23 16 36 302 22 497 -3 53 -2 82
5 82 5 0 10 7 10 16 0 28 91 11 168 -32 37 -20 107 -53 156 -75 76 -32 92 -36
99 -24 11 20 47 19 47 0 0 -8 -6 -15 -12 -15 -8 0 -6 -5 4 -10 21 -13 16 -56
-13 -118 -21 -43 -34 -116 -45 -247 -3 -33 -9 -69 -14 -80 -5 -11 -16 -44 -25
-73 -9 -29 -27 -64 -40 -78 -12 -13 -28 -38 -35 -54 -7 -17 -16 -30 -21 -30
-5 0 -9 -7 -9 -16 0 -8 -4 -12 -10 -9 -5 3 -10 -1 -10 -9 0 -9 -7 -16 -15 -16
-9 0 -15 -9 -15 -25 0 -13 -6 -36 -12 -51 -10 -22 -10 -28 0 -32 6 -2 12 -10
12 -18 0 -8 8 -14 18 -14 22 -1 83 -58 99 -92 19 -43 23 -104 27 -433 2 -170
7 -319 11 -330 6 -16 5 -17 -4 -5 -8 11 -11 -4 -9 -62 1 -43 -2 -81 -5 -85 -4
-3 -7 11 -8 33 l-1 39 -12 -40 c-7 -22 -9 -44 -4 -49 11 -13 11 -79 -1 -72
-13 8 -21 -203 -10 -285 5 -41 7 -129 4 -196 -2 -68 -2 -129 1 -138 5 -13 51
-15 351 -15 292 0 344 2 340 14 -9 22 19 54 33 40 9 -9 9 -17 1 -33 l-12 -21
1661 0 1661 0 -5 162 c-2 90 -9 206 -15 258 -6 52 -13 145 -17 205 -11 215
-26 301 -73 425 -12 30 -21 65 -21 77 0 12 -4 24 -9 27 -5 3 -17 38 -26 78
-10 40 -23 84 -30 98 -15 30 -28 82 -56 220 -15 77 -18 113 -11 136 5 17 6 38
2 45 -5 8 -13 65 -20 128 -8 90 -8 116 1 122 10 6 10 11 1 22 -8 9 -10 40 -6
98 10 136 10 378 1 372 -5 -3 -4 4 3 16 6 12 9 30 7 39 -3 12 -5 11 -6 -5 0
-13 -6 -23 -12 -23 -7 0 -8 7 -4 18 24 58 45 208 45 319 l0 122 88 26 c99 31
205 86 307 160 39 28 86 61 106 73 l36 22 -3 -28 c-2 -15 -7 -71 -10 -124 -8
-107 -5 -112 47 -81 15 9 31 14 35 10 10 -10 7 -378 -3 -405 -5 -12 -31 -37
-58 -55 l-50 -33 1 -137 c1 -76 4 -141 8 -144 11 -11 56 28 70 61 9 22 27 40
50 51 19 9 40 23 47 31 6 8 17 14 23 14 6 0 47 14 90 30 44 17 85 29 93 26 15
-6 63 13 63 26 0 4 8 8 18 8 24 0 62 -41 62 -67 0 -26 30 -34 119 -34 36 0 80
-4 96 -9 17 -5 87 -14 157 -20 110 -9 134 -9 174 5 27 9 59 13 79 9 26 -5 37
-1 54 18 24 25 43 28 221 31 95 2 133 10 243 49 97 35 73 42 -115 32 -234 -12
-310 -9 -325 13 -21 27 -16 70 11 90 13 10 30 32 39 49 9 17 36 47 61 68 l45
37 278 6 c324 7 313 10 293 -79 -7 -29 -10 -71 -8 -93 4 -52 21 -54 136 -21
104 31 183 33 232 7 19 -10 55 -29 80 -42 57 -29 131 -105 157 -161 23 -48 47
-72 80 -82 l23 -7 0 302 c-1 292 -2 303 -22 332 -13 18 -23 51 -26 83 -4 44 0
58 18 81 l22 28 -43 8 c-35 7 -45 6 -55 -7 -17 -25 -26 -106 -12 -123 9 -11 6
-20 -11 -44 -28 -37 -21 -59 18 -59 38 0 61 -9 61 -25 0 -7 9 -24 20 -38 26
-33 25 -56 -5 -90 -30 -34 -40 -30 -115 50 -63 67 -80 94 -80 125 0 13 -9 37
-20 53 -22 33 -27 113 -10 145 5 10 31 34 57 53 35 25 59 55 86 107 l38 72
-22 24 c-17 18 -33 24 -65 24 -38 0 -42 3 -47 27 -6 34 10 56 37 49 26 -7 46
10 46 40 0 12 5 26 11 29 5 4 8 12 6 18 -5 15 35 47 58 47 9 0 25 5 36 10 19
10 19 29 19 735 0 472 -3 726 -10 730 -6 4 -10 -8 -10 -28 0 -38 -23 -52 -54
-35 -10 6 -32 7 -49 4 -77 -14 -76 47 1 82 56 25 68 27 76 10 3 -7 3 6 0 30
-3 24 -12 56 -20 70 -23 44 -17 67 26 106 39 35 40 38 40 102 0 58 -2 65 -18
60 -29 -9 -54 17 -68 70 -21 78 -19 94 14 94 15 1 37 9 50 19 l22 19 0 381 c0
210 -4 381 -8 381 -12 0 -40 -32 -76 -88 -45 -68 -69 -65 -78 12 -5 40 -4 67
5 85 14 29 63 56 120 66 36 6 53 25 22 25 -24 0 -65 52 -65 85 -1 16 -7 41
-15 55 -24 43 -19 70 15 77 30 6 38 17 20 28 -6 4 -4 15 6 30 10 16 13 34 9
57 -5 25 -2 38 9 47 9 8 16 20 16 27 0 8 5 14 10 14 7 0 10 343 10 1009 l0
1010 -32 -4 c-18 -2 -184 -7 -370 -9 -297 -5 -337 -4 -342 10 -7 17 10 54 24
54 5 0 18 10 29 22 25 26 12 48 -29 48 -34 0 -44 29 -30 82 11 37 8 117 -4
137 -13 20 -34 11 -65 -28 -19 -24 -31 -50 -31 -69 0 -21 -6 -31 -19 -35 -16
-4 -21 2 -26 34 -4 21 -4 47 0 58 3 11 -1 26 -12 37 -16 16 -18 16 -21 1 -4
-19 -59 -32 -92 -22 -18 6 -20 12 -15 33 11 49 39 77 84 83 22 3 47 13 54 23
14 19 28 20 110 10 l57 -7 0 31 c0 29 -4 32 -52 47 -60 16 -190 23 -228 12
-17 -6 -21 -5 -11 1 17 12 7 42 -13 42 -21 0 -30 -19 -16 -35 10 -12 10 -15 1
-15 -7 0 -37 -12 -68 -27 -54 -27 -56 -27 -69 -8 -19 25 -18 29 11 63 21 25
22 32 11 41 -21 18 -1533 15 -1567 -3 -14 -7 -42 -16 -63 -20 -49 -9 -106 -59
-99 -87 3 -11 17 -28 30 -36 40 -26 48 -61 23 -96 -17 -22 -20 -37 -16 -62 5
-27 2 -35 -19 -49 -33 -22 -32 -39 5 -53 26 -10 32 -9 44 9 14 20 15 20 123
-12 81 -24 118 -30 150 -25 50 7 65 -11 51 -62 -10 -39 -33 -47 -92 -32 -26 6
-62 9 -80 6 -36 -6 -56 6 -56 33 0 29 -38 60 -75 60 -46 0 -65 -29 -65 -100
-1 -48 -2 -53 -14 -38 -12 17 -14 17 -30 0 -9 -10 -16 -33 -16 -50 0 -22 -6
-32 -20 -37 -12 -4 -23 -18 -27 -35 -8 -43 -36 -64 -76 -57 -65 10 -64 11 -65
-193 0 -69 0 -141 0 -160 -1 -71 -18 -188 -30 -202 -16 -20 -7 -43 24 -57 21
-9 23 -14 14 -31 -14 -26 -52 -26 -107 1 -24 12 -50 18 -58 15 -21 -8 -19 -48
3 -77 23 -29 32 -53 42 -102 8 -38 7 -39 -19 -33 -72 17 -92 18 -105 7 -13
-11 -12 -17 5 -44 27 -46 24 -53 -25 -66 -49 -12 -71 -33 -62 -57 8 -20 -30
-64 -54 -64 -9 0 -31 -7 -48 -16 -51 -25 -66 -16 -72 41 -8 71 -13 77 -76 74
-32 -2 -59 2 -66 9 -16 16 -50 15 -74 -3 -15 -11 -16 -15 -4 -16 8 -1 20 -2
27 -3 6 0 22 -10 35 -21 12 -11 36 -28 51 -38 37 -24 35 -70 -3 -75 -34 -5
-100 16 -100 32 0 7 -9 21 -20 31 -11 10 -20 26 -20 37 0 10 -7 18 -15 18 -8
0 -24 10 -34 23 -61 70 -71 83 -71 90 0 10 -133 148 -303 316 -98 97 -118 122
-124 154 -6 42 -19 52 -78 63 -22 4 -49 13 -61 21 -11 7 -23 10 -27 7 -4 -4
-22 5 -41 20 -19 14 -39 26 -45 26 -6 0 -11 6 -11 14 0 8 -17 20 -37 26 -21 7
-42 16 -48 21 -17 16 -113 9 -165 -11 -55 -22 -90 -26 -90 -10 0 6 6 10 13 10
9 0 9 2 -1 9 -7 4 -24 6 -37 4 -22 -5 -23 -1 -30 66 -4 39 -11 74 -16 77 -15
9 -10 50 9 67 25 22 129 23 180 1 64 -28 135 -44 193 -44 51 0 60 3 88 32 17
17 31 42 31 55 0 36 46 54 117 47 43 -5 63 -3 74 7 22 21 62 22 84 1 11 -10
45 -27 75 -38 30 -10 57 -22 60 -26 11 -14 75 -10 105 6 17 9 49 16 72 16 47
0 73 20 73 56 0 20 5 24 31 24 17 0 45 -6 62 -14 78 -34 96 -36 135 -16 21 12
38 16 40 10 6 -18 30 -10 35 12 6 22 -16 69 -31 67 -4 -1 -24 -1 -44 0 -31 1
-38 5 -38 21 0 10 -11 30 -25 44 -14 14 -25 32 -25 40 0 25 -34 38 -56 21 -17
-12 -18 -16 -5 -47 7 -18 14 -42 14 -53 0 -11 6 -24 11 -28 10 -7 -29 -5 -59
3 -5 1 -30 2 -54 1 -43 -1 -44 -2 -27 -20 17 -18 17 -19 -2 -25 -11 -4 -71 -6
-133 -6 -63 0 -127 0 -144 -1 -50 -2 -152 16 -169 30 -9 8 -16 28 -16 46 0 52
-24 65 -121 65 -46 0 -142 8 -214 16 -154 19 -247 28 -410 43 -66 6 -151 15
-190 20 -38 5 -119 15 -180 21 -60 6 -139 15 -175 20 -36 5 -114 14 -175 20
-60 6 -144 15 -185 20 -41 5 -120 14 -175 20 -55 6 -158 17 -230 26 -225 26
-534 60 -748 81 -32 3 -60 10 -63 14 -3 5 13 42 35 83 23 41 41 77 41 80 0 3
-22 6 -48 6 -61 0 -129 -32 -145 -68 -26 -61 -55 -89 -94 -90 -52 -2 -73 17
-74 64 0 22 -5 51 -11 66 l-10 27 -989 1 -989 0 0 -529z m312 269 c24 -18 25
-26 32 -152 4 -80 18 -189 35 -272 l28 -138 -33 -14 c-45 -19 -78 -18 -96 4
-17 19 -25 63 -33 202 -4 52 -11 133 -16 180 -5 47 -9 109 -9 138 0 45 3 54
23 62 33 13 42 12 69 -10z m7705 -97 c74 -40 82 -47 88 -62 17 -45 -79 -44
-158 2 -52 31 -61 57 -24 75 33 16 42 15 94 -15z m-5916 -90 c27 -16 31 -16
59 0 27 16 42 17 162 7 133 -11 262 -24 393 -41 102 -13 544 -52 934 -84 267
-21 265 -24 -74 -86 -93 -17 -215 -39 -270 -49 -55 -10 -143 -26 -195 -36 -52
-9 -120 -22 -150 -29 -30 -7 -77 -16 -105 -20 -79 -10 -99 -33 -105 -119 l-5
-71 -135 1 c-179 0 -550 23 -695 41 -27 4 -81 7 -120 8 -91 3 -95 3 -95 14 0
5 -4 21 -10 36 -8 22 -13 24 -30 15 -11 -6 -20 -19 -20 -29 0 -15 -11 -20 -57
-25 -79 -9 -85 2 -29 66 25 29 46 61 46 70 0 11 7 18 18 18 30 0 65 45 60 75
-3 14 -1 28 4 31 4 3 6 9 3 14 -3 5 -1 11 3 14 5 3 24 -14 43 -37 29 -36 33
-48 31 -84 -5 -54 42 -153 71 -153 22 0 87 64 87 86 0 8 4 14 8 14 5 0 21 25
36 55 14 30 34 59 44 64 29 15 40 72 35 166 -6 95 0 102 58 68z m-1482 -70 c7
-21 22 -48 33 -59 10 -12 18 -25 17 -30 -3 -19 1 -35 9 -30 5 3 5 -18 1 -47
-5 -36 -3 -56 6 -65 10 -11 14 -8 24 16 10 23 21 31 49 36 20 3 58 17 84 31
58 31 67 31 41 3 -32 -37 -55 -118 -33 -118 7 0 10 -6 7 -14 -3 -8 2 -16 14
-19 11 -3 19 -14 19 -26 0 -20 -4 -20 -136 -17 -93 2 -138 7 -143 15 -8 12
-21 214 -21 314 0 57 11 60 29 10z m6653 -144 c37 -38 61 -72 67 -96 25 -94
25 -92 0 -102 -31 -11 -35 -8 -63 47 -28 54 -50 77 -87 86 -30 7 -44 32 -29
51 7 8 7 15 1 19 -8 5 -7 27 5 64 6 20 40 -2 106 -69z m-2840 -107 c22 -27 23
-34 17 -107 -3 -44 -4 -87 -2 -96 6 -21 -12 -25 -79 -21 -46 4 -50 6 -65 43
-16 41 -20 44 -42 30 -9 -6 -10 -11 -2 -15 6 -4 11 -20 11 -35 0 -23 -5 -30
-27 -34 -16 -3 -36 -9 -45 -12 -16 -6 -18 0 -18 51 0 81 16 110 60 106 27 -2
31 0 21 11 -9 12 -5 16 20 21 16 3 28 10 25 15 -3 5 9 16 28 25 18 8 39 22 46
31 17 21 25 19 52 -13z m-3879 -323 c12 -7 24 -15 27 -19 12 -16 68 -28 79
-17 8 8 11 4 11 -16 0 -43 21 -76 56 -87 31 -11 157 -6 177 7 5 3 38 5 74 5
70 -1 121 16 188 63 40 27 41 27 155 21 211 -12 285 -17 308 -22 23 -5 30 -28
11 -40 -21 -13 -335 -74 -534 -104 -69 -10 -90 -18 -148 -58 -38 -26 -71 -50
-73 -54 -10 -16 22 -67 77 -125 71 -73 74 -96 14 -101 -65 -6 -120 16 -171 67
-26 25 -94 100 -153 165 -58 66 -141 158 -183 204 -43 46 -78 88 -78 93 0 27
120 40 163 18z m1197 -124 c-5 -44 -5 -108 0 -233 2 -45 0 -85 -4 -89 -4 -4
-16 -2 -27 5 -18 12 -27 8 -75 -30 -83 -65 -91 -70 -111 -66 -13 2 9 25 79 82
78 62 100 85 108 114 12 45 12 140 0 202 -9 50 -6 63 18 58 14 -3 16 -12 12
-43z m640 25 c140 -6 273 -13 295 -17 22 -4 44 -7 50 -7 22 -2 33 -56 40 -193
5 -102 4 -148 -4 -156 -6 -6 -11 -20 -11 -31 -1 -62 -57 -77 -270 -71 -390 12
-490 16 -551 26 l-66 10 -1 36 c-1 19 3 43 8 53 7 12 6 20 0 22 -6 2 -15 32
-21 67 -5 36 -13 69 -16 75 -4 5 -5 34 -4 63 1 30 -3 60 -9 68 -7 9 -8 15 0
20 5 3 10 15 10 25 0 15 9 20 43 23 43 4 78 3 507 -13z m-1855 -162 c70 -78
76 -90 82 -171 5 -68 4 -76 -15 -86 -18 -10 -70 -8 -129 4 -29 7 -38 65 -28
183 7 86 17 122 34 122 5 0 30 -24 56 -52z m4105 -104 c41 -22 87 -48 102 -58
25 -16 27 -16 37 1 11 17 12 17 27 -4 9 -13 21 -23 26 -23 9 0 74 -46 93 -66
6 -5 28 -23 50 -39 41 -31 245 -234 245 -245 0 -3 17 -24 38 -47 22 -23 44
-54 49 -70 18 -49 62 -195 83 -278 38 -152 52 -175 85 -139 l23 24 6 -22 c8
-31 53 -84 63 -74 4 4 8 31 8 61 0 45 -4 57 -27 79 -33 30 -34 36 -8 36 10 0
23 6 27 14 4 7 18 17 31 20 17 6 22 3 22 -11 1 -17 1 -17 15 1 14 18 15 18 25
-8 5 -15 10 -34 10 -42 0 -8 5 -12 10 -9 15 9 12 101 -5 142 -21 49 -10 56 12
7 14 -31 18 -70 20 -194 2 -170 -5 -224 -38 -300 -17 -39 -32 -57 -66 -77 -39
-22 -48 -24 -84 -15 -30 7 -41 7 -44 -1 -28 -76 -36 -111 -45 -185 -11 -90
-46 -239 -59 -257 -5 -5 -11 -20 -14 -33 -5 -20 -3 -22 11 -10 9 7 13 8 10 2
-6 -8 -11 -468 -7 -564 5 -127 63 -296 131 -383 39 -49 135 -127 156 -127 16
1 16 2 0 14 -11 8 -15 20 -12 34 5 17 10 19 28 11 47 -22 75 -110 76 -239 1
-52 2 -106 3 -120 2 -43 -13 -191 -20 -203 -4 -7 -6 -25 -5 -42 6 -61 -81
-279 -115 -292 -7 -3 -13 -9 -13 -14 0 -25 -126 -118 -199 -148 -30 -11 -73
-24 -95 -28 -23 -3 -46 -9 -51 -14 -6 -4 -30 -11 -53 -15 -25 -4 -42 -12 -42
-20 0 -20 -19 -27 -36 -13 -11 9 -40 9 -132 1 -146 -14 -572 -14 -672 -1 -115
16 -146 23 -185 39 -11 5 -37 14 -57 20 -20 6 -53 22 -73 36 -20 13 -42 24
-49 24 -8 0 -19 7 -26 15 -7 8 -18 15 -24 15 -6 1 -26 14 -45 30 -23 20 -32
34 -27 45 4 12 2 16 -8 12 -8 -3 -20 1 -27 9 -10 12 -14 12 -26 -6 -15 -21
-38 -26 -47 -11 -9 14 4 41 20 41 8 0 14 6 14 14 0 8 6 17 13 20 6 3 3 4 -7 3
-12 -1 -25 10 -37 31 -10 17 -14 32 -8 32 6 0 7 5 4 10 -4 6 -10 8 -14 6 -4
-3 -12 4 -19 14 -10 16 -8 23 10 40 14 12 17 20 8 20 -7 0 -19 -8 -27 -17 -13
-17 -14 -16 -8 5 5 15 2 22 -8 22 -20 0 -28 25 -14 39 8 8 7 11 -6 11 -9 0
-17 4 -17 10 0 5 12 8 28 6 15 -2 20 -1 11 1 -26 6 -52 40 -45 58 3 8 16 19
28 24 l23 8 -23 7 c-27 9 -52 33 -52 51 0 7 12 17 26 22 l26 9 -25 11 c-22 10
-25 10 -20 -2 3 -8 1 -15 -4 -15 -5 0 -10 18 -11 40 -3 38 3 46 31 41 4 -1 10
6 13 14 5 12 9 13 20 4 18 -15 18 -29 -1 -29 -21 0 -19 -13 5 -35 22 -20 26
-50 9 -61 -7 -4 -1 -15 17 -31 25 -21 27 -26 15 -44 -14 -23 -14 -22 16 -38
23 -12 25 -38 3 -51 -11 -7 -8 -11 13 -19 30 -12 48 -42 29 -49 -21 -7 -13
-20 17 -27 32 -7 49 -34 29 -46 -7 -4 -10 -9 -8 -11 3 -2 20 -11 39 -21 40
-21 40 -23 -7 89 -16 38 -49 123 -73 188 l-43 119 22 17 c12 10 22 23 22 29 0
6 7 8 15 5 8 -4 15 -2 15 2 0 5 14 15 30 23 17 7 41 30 53 52 12 21 29 39 38
39 9 0 22 6 28 13 6 8 32 25 58 38 27 13 56 33 65 44 10 12 17 15 18 8 0 -9
19 -13 59 -13 33 0 72 -5 87 -10 14 -6 44 -14 65 -19 36 -8 42 -6 72 22 17 17
36 31 41 32 10 0 24 40 31 88 8 61 17 87 28 87 14 0 37 45 37 71 0 28 19 34
115 35 112 2 155 11 155 33 0 9 7 27 16 39 8 12 14 32 12 45 -1 12 5 33 15 47
9 13 17 32 17 42 0 9 5 20 10 23 6 3 10 14 10 24 0 9 69 87 153 172 266 271
337 355 337 399 0 19 -18 10 -37 -19 -18 -28 -194 -221 -263 -288 -24 -24 -42
-33 -57 -30 -13 2 -23 0 -23 -4 0 -5 -6 -9 -13 -9 -7 0 -30 -17 -51 -37 -71
-69 -118 -90 -221 -97 -22 -1 -50 -5 -61 -9 -29 -10 -65 5 -104 43 -36 35 -54
82 -37 99 7 7 6 16 -6 29 -21 23 -21 32 -2 32 8 0 15 4 15 10 0 11 47 25 72
22 22 -4 32 16 18 33 -10 12 -9 15 4 15 9 0 16 5 16 10 0 6 -7 10 -15 10 -23
0 -18 13 15 40 17 14 30 30 30 37 0 23 275 283 299 283 9 0 28 -13 41 -30 46
-55 74 -37 89 58 11 72 14 67 -81 165 -32 33 -58 63 -58 67 0 11 -103 96 -140
115 -56 29 -128 45 -138 31 -12 -15 24 -96 44 -96 17 0 104 -82 104 -99 0 -6
4 -11 8 -11 5 0 17 -17 28 -37 10 -21 25 -46 33 -56 25 -31 -1 -40 -132 -48
-151 -9 -212 -18 -246 -35 -14 -8 -41 -14 -58 -14 -28 0 -33 4 -33 23 0 30 32
60 54 51 13 -5 16 -14 12 -30 -7 -27 -7 -28 28 -14 35 13 34 46 -5 98 -34 47
-36 45 55 61 100 18 118 51 28 51 -45 0 -63 -5 -80 -20 -12 -12 -22 -25 -22
-30 0 -18 -43 -21 -84 -6 -29 11 -50 29 -69 58 -27 42 -28 46 -21 139 6 91 -4
199 -27 274 -4 17 -11 46 -14 66 -3 20 -21 57 -41 81 -42 55 -96 74 -178 64
-30 -3 -67 -1 -85 5 l-31 11 0 229 c0 162 3 229 11 229 7 0 9 10 7 25 -3 13
-2 22 3 20 12 -8 39 6 39 21 0 8 4 14 9 14 5 0 23 14 41 30 18 17 36 30 41 30
4 0 33 23 63 51 74 68 121 101 213 149 75 39 81 40 158 37 70 -3 89 -9 155
-43z m2012 -261 c10 -9 18 -22 18 -29 0 -7 10 -14 23 -16 18 -2 23 -10 25 -47
4 -47 -17 -81 -49 -81 -21 0 -61 39 -53 51 3 5 -3 22 -13 39 -17 30 -17 30 5
46 17 12 20 19 13 28 -6 7 -8 16 -4 19 9 10 15 9 35 -10z m2529 -73 c41 0 50
-10 63 -71 4 -18 14 -29 32 -33 66 -17 141 -88 124 -117 -8 -11 -15 -11 -45 0
-27 9 -40 10 -48 2 -6 -6 -26 -11 -44 -11 -27 0 -38 -8 -68 -47 -24 -31 -33
-52 -29 -65 7 -22 -25 -62 -68 -84 -16 -8 -28 -21 -28 -29 0 -21 -10 -19 -54
11 -48 33 -70 24 -74 -32 -2 -21 -8 -44 -13 -50 -6 -7 0 -15 17 -23 22 -10 25
-16 19 -39 -3 -15 -12 -33 -19 -40 -22 -23 -1 -84 40 -111 37 -26 42 -42 19
-61 -19 -16 -13 -25 36 -56 43 -27 50 -54 23 -92 -21 -31 -60 -28 -95 7 -29
29 -42 91 -19 91 6 0 10 8 10 18 0 24 -62 86 -106 107 -25 12 -36 25 -41 46
-7 38 -37 38 -53 0 -11 -28 -70 -62 -70 -41 0 10 -47 60 -56 60 -3 0 -21 -7
-40 -16 -32 -15 -36 -15 -47 -1 -7 9 -29 23 -49 32 -60 25 -61 50 -2 79 33 15
35 19 29 49 -11 53 -16 67 -25 67 -19 0 5 41 34 59 30 19 33 19 86 2 41 -14
55 -23 55 -37 0 -12 -8 -20 -22 -22 -29 -4 -30 -32 -4 -56 22 -20 43 -13 39
12 -4 26 11 42 37 42 17 0 26 -8 34 -31 13 -38 52 -38 61 1 4 18 13 25 30 27
14 0 33 1 43 2 16 1 16 3 -3 29 -33 44 -18 65 42 60 55 -6 85 9 75 37 -5 11
-14 15 -27 12 -14 -4 -25 2 -36 18 -14 22 -14 27 1 53 10 16 33 34 51 41 27
10 35 20 44 54 17 65 18 67 40 67 15 0 20 -7 20 -28 0 -15 5 -33 12 -40 16
-16 63 -15 77 1 15 19 -44 73 -89 81 -27 5 -36 11 -37 28 -3 34 16 51 50 44
16 -3 47 -6 68 -6z m-7476 -93 c32 -22 65 -27 65 -11 0 28 30 27 58 -3 16 -16
31 -37 35 -46 11 -30 25 -18 32 29 l7 47 186 -7 c103 -3 233 -9 290 -12 98 -6
102 -8 102 -30 0 -16 4 -22 14 -18 8 3 12 12 9 20 -3 9 2 14 15 14 11 0 22 -6
25 -12 3 -10 7 -10 19 0 22 18 189 11 199 -9 26 -52 39 -104 43 -169 4 -84 -1
-104 -36 -140 -14 -14 -29 -35 -33 -48 -4 -13 -9 -21 -12 -18 -3 3 -15 0 -27
-6 -21 -12 -21 -12 4 -19 l25 -7 -25 -1 c-31 -2 -67 -27 -48 -33 7 -3 -14 -13
-47 -22 -50 -15 -107 -18 -343 -20 -294 -3 -359 1 -354 23 13 61 13 161 -1
201 -17 50 -32 57 -50 21 -16 -31 -48 -51 -54 -33 -3 7 -11 19 -19 26 -8 8
-14 21 -15 28 0 7 -7 -9 -15 -37 -8 -27 -16 -93 -18 -145 l-3 -95 -74 2 c-160
6 -198 8 -204 15 -16 15 -22 94 -14 160 5 39 6 74 3 79 -8 14 27 59 47 59 10
0 22 -8 27 -17 8 -13 12 -4 22 40 6 31 22 78 36 104 13 26 24 52 24 56 0 15
44 46 65 47 11 0 29 -6 40 -13z m7157 -107 c4 -32 2 -57 -3 -61 -17 -10 -159
-10 -179 1 -11 6 -20 17 -20 26 0 8 -7 25 -16 39 -12 18 -13 28 -4 44 9 17 21
21 63 22 29 0 61 4 72 9 13 5 30 2 50 -9 26 -15 31 -25 37 -71z m-7487 59 c10
-10 23 -198 24 -363 1 -117 -5 -125 -90 -126 -94 0 -118 8 -138 49 -16 32 -42
168 -55 286 -5 48 -15 75 -27 75 -17 0 -80 -38 -94 -57 -17 -21 -19 -93 -5
-143 5 -19 13 -70 18 -113 9 -86 0 -103 -46 -86 -23 9 -23 11 -21 136 1 71 6
130 9 133 4 3 10 17 14 32 5 21 3 26 -7 22 -10 -4 -13 3 -9 25 2 18 9 28 16
25 26 -10 77 19 137 79 21 19 39 27 66 28 21 0 56 4 78 9 45 10 115 4 130 -11z
m5945 -69 c25 -25 25 -39 3 -47 -38 -13 -45 -25 -27 -44 23 -25 11 -65 -26
-84 -37 -19 -64 -19 -80 1 -8 9 -25 14 -44 12 -27 -3 -33 -9 -48 -53 -10 -31
-29 -61 -51 -80 -44 -38 -60 -70 -53 -101 6 -23 46 -36 46 -15 0 17 38 22 59
9 30 -19 26 -32 -23 -75 -56 -50 -66 -79 -32 -94 22 -10 28 -9 45 12 11 13 20
19 21 13 0 -6 12 -9 29 -6 23 3 33 -2 50 -27 14 -19 20 -38 16 -50 -4 -13 3
-26 25 -44 16 -14 30 -30 30 -36 0 -5 12 -24 27 -41 21 -26 26 -41 24 -80 -1
-38 3 -52 18 -62 11 -8 25 -26 30 -41 6 -15 27 -37 46 -48 23 -14 35 -28 35
-43 0 -27 18 -46 42 -46 24 0 23 32 -2 55 -18 16 -29 65 -15 65 3 0 28 -11 56
-25 27 -14 54 -23 59 -20 15 9 12 38 -5 61 -8 10 -15 34 -15 53 0 19 -13 58
-30 88 -30 52 -42 133 -20 133 6 0 10 -7 10 -16 0 -9 6 -14 13 -11 7 2 13 24
13 56 2 52 20 110 38 123 5 3 19 0 30 -8 27 -19 42 -18 50 4 3 9 11 24 17 32
9 13 6 24 -15 54 -33 49 -34 79 -2 94 20 9 27 7 50 -17 17 -18 26 -38 26 -60
0 -23 8 -41 25 -57 14 -13 25 -32 25 -42 0 -22 -63 -82 -85 -82 -19 0 -19 -14
1 -92 22 -84 34 -106 89 -153 26 -22 68 -59 94 -82 27 -24 53 -43 59 -43 18 0
20 24 4 53 -13 21 -24 27 -50 27 -21 0 -41 7 -51 18 -9 11 -26 24 -38 31 -34
17 -33 87 1 102 18 9 29 8 49 -5 23 -15 25 -15 31 -1 8 23 7 67 -2 82 -5 8
-19 9 -42 4 -68 -14 -78 2 -43 69 7 14 13 36 13 51 0 29 17 49 40 49 33 0 90
-65 130 -147 22 -46 57 -111 79 -145 28 -45 47 -94 67 -173 20 -81 35 -119 56
-143 40 -47 38 -65 -9 -58 -21 3 -55 7 -75 8 -42 2 -44 6 -27 74 9 34 9 47 -1
59 -17 21 -54 19 -75 -5 -22 -24 -14 -61 21 -103 16 -19 23 -38 20 -50 -2 -10
2 -55 9 -98 24 -134 10 -146 -140 -120 -108 19 -116 24 -142 80 -28 57 -51 75
-79 62 -19 -8 -24 -18 -24 -46 0 -19 -3 -35 -7 -35 -12 0 -43 33 -43 47 0 26
-19 12 -30 -22 -6 -19 -16 -35 -21 -35 -11 0 -39 53 -39 74 0 10 -6 13 -16 9
-11 -4 -22 1 -31 13 -14 19 -15 18 -33 -3 -21 -26 -38 -29 -63 -10 -15 10 -16
16 -5 45 12 30 11 35 -6 48 -11 8 -34 14 -50 14 -17 0 -40 7 -50 15 -28 21
-33 19 -28 -15 5 -37 -16 -48 -51 -25 -23 15 -28 15 -55 1 -16 -8 -32 -12 -36
-9 -10 10 -7 31 7 45 7 7 19 38 26 68 12 52 11 60 -16 145 -27 82 -93 198 -93
164 -1 -10 -6 -8 -16 6 -13 16 -15 36 -10 98 5 62 4 78 -6 75 -7 -3 -14 -23
-16 -46 -3 -36 -6 -42 -26 -42 -17 0 -26 7 -30 24 -5 20 -12 24 -52 24 -25 1
-54 4 -64 7 -13 4 -25 -3 -39 -24 -12 -16 -21 -32 -21 -35 0 -3 19 -18 43 -32
54 -34 86 -73 84 -101 -1 -21 -7 -23 -52 -23 -30 0 -60 -6 -74 -16 l-23 -16
30 -32 c58 -61 62 -92 16 -117 -14 -7 -40 -38 -59 -68 -31 -53 -33 -60 -28
-124 3 -37 10 -70 14 -73 5 -3 23 10 41 29 18 18 40 34 48 34 8 0 22 4 31 7
15 6 16 -2 13 -75 -2 -53 -9 -88 -18 -98 -13 -14 -12 -19 5 -40 24 -29 24 -43
0 -65 -15 -14 -24 -15 -40 -7 -27 15 -41 14 -41 -4 0 -9 -11 -20 -24 -27 -30
-13 -41 -37 -22 -44 18 -7 10 -71 -12 -97 -15 -16 -14 -18 6 -24 13 -3 22 -13
22 -24 0 -10 10 -25 22 -33 19 -13 23 -13 32 0 16 22 56 -9 56 -43 0 -28 -25
-63 -46 -63 -27 0 -74 51 -74 80 0 16 -4 32 -10 35 -5 3 -10 -1 -10 -11 0 -9
-7 -22 -15 -28 -13 -9 -14 -17 -4 -44 6 -17 15 -32 20 -32 5 0 9 -4 9 -10 0
-16 -27 -12 -34 6 -4 10 -16 14 -38 12 -29 -3 -33 -7 -36 -35 -2 -21 -10 -34
-23 -38 -23 -8 -23 -15 -4 -61 13 -32 16 -34 52 -29 41 6 70 -6 59 -24 -4 -6
-16 -11 -27 -11 -11 0 -22 -7 -25 -15 -7 -17 -34 -21 -34 -5 0 6 -13 10 -29
10 -30 0 -68 41 -56 60 14 22 -7 28 -50 13 -57 -19 -58 -34 -3 -30 41 2 43 1
53 -34 5 -20 18 -43 27 -53 17 -17 17 -18 -10 -39 -41 -33 -69 -47 -94 -47
-42 0 -111 -26 -129 -48 -22 -28 -27 -27 -63 4 l-28 25 22 24 c21 23 24 23 47
8 22 -15 27 -14 71 7 43 21 91 64 92 82 0 4 -9 12 -21 18 -15 9 -24 8 -35 0
-22 -19 -44 -4 -44 29 0 24 -5 29 -27 33 -37 5 -65 -1 -58 -13 4 -5 1 -9 -4
-9 -6 0 -11 9 -11 20 0 13 7 20 20 20 26 0 26 26 0 40 -20 10 -20 12 -3 35 23
31 34 31 63 0 31 -32 44 -32 70 5 24 33 29 85 12 102 -16 16 -15 45 1 55 14 9
38 93 30 106 -2 4 -13 5 -24 2 -20 -7 -27 9 -8 20 7 5 5 12 -4 23 -9 10 -17
47 -20 88 -4 47 -13 83 -27 107 -18 30 -20 42 -12 69 6 18 14 52 17 75 9 57
30 81 95 107 l54 22 3 60 c2 60 2 60 -39 92 -23 18 -59 37 -79 42 -21 6 -44
21 -53 35 -20 30 -30 31 -58 5 -27 -25 -68 -27 -68 -3 0 9 13 28 28 42 16 14
38 40 50 58 12 17 42 41 67 53 25 12 48 26 51 31 3 6 -5 27 -19 47 -37 54 -41
76 -18 97 37 32 132 -12 158 -73 l14 -35 47 46 c60 59 94 68 117 33 12 -17 15
-36 11 -56 -4 -22 -2 -30 9 -30 18 0 28 17 15 25 -5 3 4 28 22 58 41 66 50 75
88 89 l31 10 -26 28 -27 28 16 64 c9 35 16 75 16 87 0 20 -2 21 -15 11 -13
-10 -15 -9 -15 9 0 11 6 22 13 22 6 1 21 3 32 4 31 3 74 29 135 79 30 25 61
46 68 46 20 0 92 79 92 100 0 23 5 24 80 27 49 2 64 -1 80 -17z m2069 -157
c14 -16 42 -36 62 -46 48 -25 64 -59 45 -95 -13 -24 -12 -30 5 -51 25 -30 24
-73 -1 -96 -11 -10 -20 -28 -20 -40 0 -30 -20 -53 -50 -57 -17 -2 -26 -10 -28
-25 -7 -47 -61 -37 -62 11 0 10 -13 34 -30 53 -16 18 -30 38 -30 42 0 5 -10
12 -22 15 -13 3 -47 29 -76 56 -29 28 -59 50 -67 50 -8 0 -15 4 -15 8 0 5 -11
15 -25 22 -36 19 -33 43 4 35 24 -5 33 -2 46 18 9 14 42 36 73 50 31 13 67 36
79 51 31 36 76 35 112 -1z m-3029 -260 c29 -28 36 -40 28 -50 -14 -18 -63 -16
-78 2 -7 8 -16 15 -21 15 -15 0 -69 -125 -69 -161 0 -26 -3 -30 -10 -19 -8 13
-10 12 -10 -2 0 -19 -15 -24 -25 -9 -3 5 -1 31 5 56 9 41 8 51 -10 80 -20 32
-20 32 0 58 23 29 95 67 128 67 12 0 40 -17 62 -37z m-5468 -53 c10 -15 24
-20 57 -20 34 0 54 -8 92 -36 27 -20 49 -39 49 -44 0 -5 15 -17 33 -28 28 -17
45 -19 149 -14 l118 5 36 44 c28 34 42 43 62 41 14 -2 28 -10 32 -18 34 -74
35 -75 71 -72 146 15 671 -8 639 -28 -6 -4 -19 -33 -29 -66 -10 -32 -27 -63
-37 -69 -33 -18 -45 -33 -33 -40 6 -4 14 -17 19 -29 l9 -21 0 23 c1 12 -3 22
-9 22 -5 0 -10 5 -10 10 0 16 86 11 125 -7 19 -9 35 -20 35 -23 0 -4 -18 -15
-40 -25 -22 -10 -37 -22 -33 -28 5 -8 8 -7 11 1 5 17 30 15 48 -3 9 -8 20 -15
25 -15 5 0 9 7 9 15 0 8 5 15 10 15 6 0 10 -8 10 -17 0 -10 3 -28 6 -40 5 -17
2 -23 -9 -23 -8 0 -17 6 -20 13 -9 27 -14 0 -7 -43 5 -29 8 -35 9 -18 1 30 16
45 24 26 3 -8 6 -6 6 5 1 9 7 17 15 17 8 0 16 10 18 23 4 30 20 28 29 -5 4
-17 3 -28 -3 -28 -6 0 -8 -9 -5 -20 6 -23 -18 -48 -26 -28 -3 7 -5 2 -4 -12 2
-19 -3 -26 -20 -28 -13 -2 -23 -7 -23 -12 0 -5 -7 -7 -15 -4 -8 4 -15 2 -15
-4 0 -5 -31 -13 -70 -16 -38 -4 -72 -11 -74 -15 -3 -5 6 -19 21 -32 75 -69
100 -150 68 -226 -8 -20 -14 -37 -12 -39 1 -2 30 5 62 15 84 26 101 55 80 135
-13 50 -13 61 0 92 27 64 65 55 84 -21 11 -42 13 -45 46 -45 30 0 39 -6 62
-42 23 -35 28 -52 28 -107 0 -58 -4 -73 -34 -121 -67 -107 -78 -107 -208 0 -7
6 -13 24 -13 40 0 34 -13 37 -74 15 -40 -14 -61 -12 -51 6 13 20 -35 8 -64
-17 -22 -18 -40 -24 -63 -22 -30 3 -33 6 -36 42 -2 21 1 43 7 49 6 6 11 21 11
33 0 30 -32 39 -71 20 -17 -9 -36 -13 -41 -10 -5 3 -17 -1 -26 -9 -9 -8 -35
-17 -57 -19 -22 -3 -48 -8 -57 -12 -15 -7 -18 -3 -18 27 0 19 -7 51 -16 72
-11 27 -13 52 -8 91 l6 54 -30 0 c-74 0 -104 37 -62 75 29 27 25 39 -30 85
-53 44 -77 47 -87 10 -4 -14 -17 -22 -43 -26 -37 -6 -92 -35 -91 -48 3 -19 -1
-23 -20 -22 -12 1 -26 -7 -33 -17 -9 -14 -3 -32 31 -97 38 -72 40 -80 22 -80
-14 0 -25 13 -39 45 -11 25 -23 45 -27 46 -4 1 -47 3 -95 4 -102 4 -116 10
-93 35 9 10 18 35 20 56 2 22 9 61 16 87 15 59 2 75 -40 49 -35 -22 -41 -33
-34 -59 3 -14 1 -23 -6 -23 -6 0 -11 10 -11 23 0 16 -3 18 -9 8 -6 -9 -11 -10
-15 -2 -4 6 -11 9 -16 6 -5 -3 -15 1 -23 9 -8 8 -18 12 -22 8 -5 -4 -5 -2 -2
4 4 7 0 17 -8 24 -21 17 -19 27 11 55 30 28 27 50 -10 66 -55 25 -106 -22 -57
-53 39 -24 13 -38 -70 -38 -66 0 -82 3 -99 20 -34 34 -42 70 -36 150 5 59 3
81 -10 105 -37 67 -64 126 -64 140 0 24 36 37 73 27 24 -7 41 -6 58 4 33 18
47 17 61 -6z m8313 -5 c14 -13 25 -33 25 -45 0 -11 9 -29 20 -40 24 -24 27
-75 4 -84 -27 -10 -54 12 -54 45 0 33 -23 47 -95 58 -34 5 -40 10 -40 30 0 18
9 27 45 41 61 24 67 24 95 -5z m-5135 -102 c0 -5 14 -9 31 -10 41 -3 58 -27
51 -75 -2 -21 1 -51 7 -67 11 -25 9 -36 -18 -95 -30 -67 -46 -130 -61 -237 -8
-61 -43 -119 -71 -119 -20 0 -100 64 -113 90 -4 10 -18 23 -30 30 -31 17 -82
89 -100 142 -8 25 -17 85 -19 132 -5 98 1 108 76 122 21 3 53 19 70 35 23 21
42 29 69 29 21 0 38 4 38 10 0 5 6 7 14 4 8 -3 17 -1 21 5 7 12 35 15 35 4z
m2226 -508 c33 -22 30 -34 -18 -76 -41 -35 -42 -36 -29 -68 8 -17 22 -36 32
-42 11 -5 19 -19 19 -31 0 -20 -3 -19 -35 12 -20 19 -33 40 -31 47 3 7 1 12
-3 10 -26 -7 -109 128 -97 158 11 28 113 22 162 -10z m-1495 -52 c18 -18 7
-58 -18 -61 -12 -2 -27 -9 -33 -17 -6 -8 -18 -11 -26 -8 -8 3 -24 -4 -35 -16
-11 -11 -31 -21 -45 -21 -14 0 -37 -9 -52 -20 -21 -15 -46 -20 -109 -22 -46
-2 -83 -7 -83 -11 0 -5 -10 -7 -22 -5 -32 4 -33 62 -2 66 12 2 30 12 40 23 9
10 30 19 45 19 15 0 30 4 33 9 3 4 27 14 53 22 27 7 59 19 72 25 14 7 28 11
32 9 4 -3 20 2 35 10 32 16 98 15 115 -2z m-3698 -137 c10 -8 23 -33 30 -57
l13 -44 46 3 c47 4 88 -10 88 -29 0 -6 13 -28 29 -48 15 -20 36 -51 45 -68 9
-18 21 -33 26 -33 5 0 24 -10 44 -22 45 -30 66 -84 66 -173 0 -77 -16 -105
-59 -105 -23 0 -27 5 -29 32 -3 35 -18 58 -38 58 -33 0 -62 -24 -73 -61 -13
-44 -38 -55 -97 -46 -49 8 -61 21 -73 78 -14 63 -37 109 -56 109 -19 0 -24 23
-24 96 1 81 10 95 41 61 28 -31 80 -44 96 -24 16 19 4 102 -18 130 l-18 21
-47 -47 c-26 -25 -51 -45 -54 -43 -31 19 -167 66 -178 62 -7 -3 -13 -14 -13
-24 0 -53 -43 -63 -88 -21 -21 19 -22 21 -5 44 14 19 27 24 59 25 39 0 43 3
62 43 24 51 36 62 88 81 50 19 114 19 137 2z m644 -109 c7 -23 13 -59 13 -80
0 -24 5 -40 15 -43 11 -5 15 -22 15 -68 0 -39 5 -69 15 -82 8 -10 15 -27 15
-36 0 -25 -35 -23 -53 3 l-15 21 -7 -23 c-9 -29 16 -49 61 -49 23 0 39 -8 56
-28 32 -38 52 -44 66 -21 7 11 18 16 27 13 22 -9 19 18 -5 39 -24 20 -26 36
-4 44 9 3 23 -3 35 -16 11 -11 28 -21 39 -21 11 0 22 -10 26 -22 4 -13 15 -29
26 -36 10 -8 17 -21 16 -29 -2 -9 3 -18 10 -20 6 -3 12 0 12 6 0 6 9 11 20 11
31 0 24 -15 -20 -44 -22 -14 -40 -32 -40 -39 0 -7 14 -32 31 -55 23 -32 36
-41 50 -37 16 5 19 1 19 -26 0 -34 32 -79 57 -79 17 0 53 36 53 54 0 22 17 28
39 14 17 -10 22 -9 39 12 17 21 22 22 48 12 16 -7 41 -11 54 -10 22 3 25 -1
28 -30 2 -18 10 -36 18 -39 8 -3 14 -17 14 -31 0 -20 3 -23 12 -14 20 20 38
14 38 -13 0 -28 3 -30 29 -13 17 11 27 9 61 -10 30 -18 60 -32 65 -32 3 0 5
11 5 25 0 18 5 25 20 25 21 0 40 -27 40 -56 0 -10 9 -28 21 -40 26 -28 18 -61
-18 -75 -30 -11 -25 -34 8 -34 20 0 24 -4 21 -25 -1 -14 -3 -34 -3 -44 0 -11
-8 -25 -17 -32 -15 -12 -15 -13 -1 -14 9 0 22 -6 28 -14 9 -11 7 -15 -11 -19
-27 -8 -40 4 -42 35 -1 16 -7 23 -22 24 -12 1 -26 4 -33 8 -6 4 -15 -3 -20
-17 -5 -13 -20 -31 -34 -39 -23 -16 -24 -16 -19 8 3 17 0 24 -11 24 -19 0 -34
-19 -39 -50 -3 -22 -8 -25 -48 -25 -39 0 -45 -3 -43 -20 1 -11 -4 -23 -10 -27
-8 -5 -5 -14 10 -30 21 -23 42 -108 26 -108 -5 0 -15 9 -23 20 -17 24 -38 26
-46 5 -9 -22 -24 -18 -21 6 1 12 -5 25 -13 29 -27 14 -100 33 -106 28 -3 -4
-1 -22 4 -42 9 -32 8 -37 -15 -54 -18 -13 -24 -25 -20 -36 10 -25 39 -20 35 6
-2 15 3 24 15 26 19 4 25 -32 7 -43 -8 -5 -7 -11 1 -21 9 -11 9 -18 1 -26 -18
-18 -14 -45 7 -51 14 -3 17 -11 14 -31 -5 -26 5 -34 23 -17 5 5 19 5 31 0 l23
-8 -22 -38 c-12 -21 -25 -40 -28 -43 -8 -8 -48 -101 -61 -145 -28 -95 -57
-117 -99 -75 -29 29 -50 26 -50 -7 0 -42 -13 -55 -44 -47 -16 4 -32 1 -41 -6
-20 -16 -50 9 -71 59 -12 30 -17 33 -43 28 -32 -7 -41 8 -41 67 0 23 -4 27
-20 23 -42 -11 -50 53 -14 111 17 25 15 27 -50 36 -47 6 -68 23 -47 36 8 5 25
4 38 -1 14 -5 29 -9 34 -9 13 0 11 34 -2 47 -15 15 -2 35 19 31 10 -1 23 1 30
6 9 5 22 0 36 -13 26 -25 46 -27 46 -5 0 8 -4 13 -9 9 -12 -7 -61 41 -61 60 0
8 4 17 10 20 14 9 50 -13 50 -30 0 -8 9 -32 21 -54 11 -22 18 -45 14 -51 -4
-7 2 -7 19 -1 18 8 26 6 30 -4 3 -8 1 -17 -4 -20 -17 -11 -11 -37 8 -33 9 2
16 11 14 20 -2 16 40 29 66 20 20 -6 14 -50 -8 -57 -11 -3 -20 -13 -20 -21 0
-21 40 -9 59 17 7 10 24 19 37 19 15 0 24 6 24 15 0 8 -4 15 -10 15 -18 0
-120 99 -120 117 0 7 -13 19 -29 27 -31 16 -41 34 -41 72 0 14 -7 27 -15 30
-20 8 -19 33 2 56 22 25 6 54 -28 51 -53 -4 -120 -27 -115 -39 3 -8 1 -16 -4
-19 -6 -4 -10 -15 -10 -26 0 -16 -5 -18 -27 -13 -16 4 -32 11 -37 15 -6 5 -16
9 -24 9 -11 0 -12 -10 -7 -42 4 -24 11 -48 16 -54 10 -12 -35 -114 -50 -114
-5 0 -14 20 -21 45 -15 54 -32 70 -57 57 -10 -6 -31 -8 -46 -5 -22 4 -27 2
-27 -16 0 -11 5 -21 11 -21 6 0 8 -9 4 -20 -5 -16 1 -23 34 -36 23 -9 41 -18
41 -21 0 -3 -8 -18 -17 -33 -16 -27 -16 -31 2 -69 10 -23 22 -41 27 -41 4 0 8
-6 8 -14 0 -7 7 -19 15 -26 21 -18 19 -47 -5 -53 -13 -3 -20 -14 -20 -29 0
-35 -76 -138 -102 -138 -7 0 -26 -13 -41 -30 -17 -17 -39 -30 -53 -30 -13 0
-24 -5 -24 -11 0 -17 -32 -38 -57 -39 -31 0 -53 -10 -53 -25 0 -33 112 -35
165 -3 26 15 56 22 104 23 36 2 71 3 78 4 23 2 43 33 43 65 l0 33 55 -3 c30
-1 69 -5 87 -9 24 -6 35 -3 44 10 17 22 46 13 37 -12 -11 -29 -24 -33 -93 -28
l-65 4 -17 -39 c-10 -26 -30 -48 -55 -62 l-38 -23 32 -3 c17 -2 45 4 62 13 18
9 41 13 55 9 13 -3 27 -1 30 5 4 6 16 11 27 11 10 0 26 8 35 18 10 13 25 17
45 14 l29 -4 -47 -26 c-50 -26 -101 -41 -165 -47 -20 -1 -60 -9 -87 -16 -47
-12 -52 -11 -64 6 -9 12 -16 14 -21 7 -4 -6 8 -37 26 -69 29 -52 33 -67 34
-138 l0 -79 50 -13 c73 -19 84 -17 84 12 0 14 7 28 15 32 20 7 55 -24 55 -48
0 -21 28 -39 61 -39 22 0 22 0 3 21 -17 19 -47 109 -38 118 2 2 11 -12 19 -32
8 -21 20 -37 25 -37 16 0 33 -51 20 -64 -5 -5 -10 -18 -10 -28 0 -10 -4 -18
-10 -18 -5 0 -10 -8 -10 -19 0 -17 -9 -19 -104 -20 -57 0 -115 -5 -127 -10
-24 -10 -24 -10 4 -10 24 -1 27 -4 22 -21 -4 -12 -2 -42 4 -68 22 -102 34
-238 22 -261 -29 -53 -72 -5 -72 80 0 61 -29 241 -41 256 -6 8 -6 19 1 32 16
28 15 29 -31 42 -24 6 -60 18 -81 25 -48 18 -58 18 -51 -1 4 -10 0 -15 -11
-15 -10 0 -62 -22 -116 -50 -54 -27 -102 -50 -107 -50 -6 0 -13 7 -16 17 -10
25 40 71 118 107 l68 31 -51 33 c-27 18 -59 44 -70 57 -21 28 -51 33 -51 10 0
-10 -10 -15 -27 -15 -38 0 -49 10 -57 47 -10 46 -70 119 -101 126 -18 3 -47
-5 -83 -24 -104 -52 -135 -37 -94 46 42 84 72 151 72 159 0 5 29 52 64 105 77
115 91 159 76 238 -22 124 -6 198 35 153 14 -16 17 -30 12 -77 -3 -32 -3 -78
1 -103 6 -40 10 -45 37 -50 43 -7 45 -39 3 -76 -34 -30 -59 -79 -77 -147 -8
-33 -7 -41 9 -57 44 -44 129 -38 240 18 56 27 75 42 75 57 0 25 -30 31 -51 11
-8 -9 -29 -16 -45 -16 -16 0 -38 -9 -50 -21 -36 -36 -48 -20 -38 55 3 25 0 31
-21 36 -18 4 -25 13 -25 30 0 18 7 26 33 32 33 9 36 12 46 60 11 49 86 47 86
-3 0 -23 9 -28 43 -22 22 4 27 11 27 34 0 28 2 29 35 26 20 -3 38 -7 42 -11 3
-3 13 0 21 6 11 10 17 9 28 -6 15 -21 3 -56 -20 -56 -15 0 -36 -50 -36 -85 0
-21 3 -20 36 13 40 40 64 82 64 111 0 22 -52 69 -58 52 -2 -6 -12 -11 -23 -11
-28 0 -25 38 4 42 16 2 23 11 25 31 4 36 -15 60 -45 54 -29 -5 -31 21 -3 46
26 22 25 31 -6 56 -30 23 -54 64 -54 90 0 9 -9 22 -20 29 -21 13 -29 75 -11
87 5 3 7 20 4 38 -6 40 15 62 52 55 18 -4 29 1 40 18 16 26 75 35 75 12 0 -6
6 -3 14 8 14 19 15 19 38 -3 14 -13 29 -23 35 -23 6 0 13 -7 17 -15 3 -8 10
-15 17 -15 7 0 8 7 4 18 -4 9 -9 23 -12 30 -9 23 25 12 41 -13 9 -14 25 -25
36 -25 12 0 25 -11 32 -25 16 -35 32 -26 36 18 2 24 8 37 18 37 17 0 17 5 3
32 -9 17 -6 31 16 75 15 29 35 58 45 63 30 16 74 -3 92 -41 12 -26 18 -30 23
-18 7 18 -45 79 -67 79 -18 0 -38 20 -38 37 0 20 28 15 40 -8 9 -16 14 -18 25
-9 19 16 75 -26 75 -56 0 -24 18 -35 47 -28 14 4 19 0 20 -16 2 -28 -23 -37
-46 -16 -32 29 -51 21 -50 -21 0 -21 4 -46 7 -56 7 -16 10 -15 44 8 45 30 48
31 48 5 0 -12 -10 -25 -25 -32 -36 -16 -31 -32 8 -23 81 17 98 13 119 -27 19
-37 49 -50 63 -28 3 6 1 10 -4 10 -6 0 -11 9 -11 20 0 30 27 24 45 -9 14 -27
50 -49 61 -38 6 6 -29 111 -43 129 -5 7 -17 34 -27 60 -10 26 -22 50 -27 54
-5 3 -22 31 -38 63 -32 62 -61 95 -61 68 0 -8 7 -20 15 -27 12 -10 13 -15 4
-21 -10 -6 -10 -11 1 -24 12 -15 12 -19 -5 -31 -10 -8 -24 -14 -29 -14 -13 0
-56 61 -56 78 0 6 -9 16 -19 22 -27 14 -36 48 -18 68 21 24 28 64 18 99 -9 31
-54 83 -72 83 -5 0 -21 12 -34 28 -19 22 -26 25 -36 15 -7 -7 -17 -13 -22 -13
-5 0 -5 6 1 13 6 6 13 29 17 49 4 21 12 35 19 32 6 -2 17 6 25 18 11 17 11 23
1 26 -7 3 -20 13 -28 23 -21 24 -44 25 -41 2 4 -49 -16 -58 -52 -22 -18 18
-26 20 -40 11 -13 -9 -18 -8 -23 3 -3 8 -14 15 -24 15 -10 0 -23 5 -29 11 -20
20 -46 2 -40 -26 7 -41 -19 -47 -68 -14 -67 45 -70 52 -70 158 0 107 -5 112
-54 69 -37 -33 -41 -34 -69 -8 -27 26 -27 34 -1 59 20 18 20 20 2 30 -10 6
-12 11 -5 11 6 0 12 8 12 19 0 44 46 43 63 -1 8 -23 34 -23 46 1 6 10 9 20 7
22 -2 2 -6 28 -10 57 -6 48 -5 53 17 61 12 5 29 16 36 25 18 22 31 9 48 -47z
m6393 -347 c0 -54 -26 -90 -65 -90 -14 0 -25 -4 -25 -8 0 -4 -25 -9 -55 -10
-44 -2 -59 2 -76 19 -19 19 -22 19 -44 5 -24 -16 -25 -15 -41 16 -14 27 -14
33 -2 42 8 6 20 21 27 34 13 24 49 30 57 8 3 -8 13 -12 25 -9 23 6 49 -13 49
-37 0 -27 31 -49 57 -39 22 8 25 16 37 88 4 19 11 41 18 48 19 23 38 -12 38
-67z m1050 50 c28 -15 51 -47 69 -96 14 -38 22 -48 37 -46 96 16 140 19 166
10 33 -12 62 -60 53 -88 -7 -24 -30 -26 -39 -5 -4 11 -22 15 -75 15 -48 0 -79
5 -100 17 -29 17 -31 17 -57 -3 -15 -11 -29 -24 -31 -30 -6 -17 131 -150 156
-152 13 0 31 -8 40 -17 15 -15 14 -16 -11 -10 -24 6 -26 5 -21 -17 4 -12 14
-34 25 -47 10 -13 18 -29 18 -35 0 -6 11 -28 25 -48 14 -20 25 -44 25 -53 0
-14 -3 -14 -30 2 -16 9 -30 24 -30 33 0 44 -54 52 -98 15 -17 -14 -34 -25 -40
-25 -6 0 -19 17 -29 39 -14 31 -27 42 -66 56 -26 10 -50 15 -53 12 -9 -9 -54
35 -54 52 0 26 -88 100 -111 94 -27 -7 -36 -33 -18 -47 8 -6 25 -31 37 -56 20
-41 20 -46 6 -68 -9 -13 -17 -42 -18 -63 -2 -22 -6 -42 -9 -46 -3 -3 -52 -8
-109 -10 -56 -2 -109 -8 -117 -13 -9 -5 -24 -2 -38 7 -29 19 -31 73 -4 135 16
38 85 118 134 156 9 7 17 23 17 36 0 27 15 36 52 29 30 -6 88 21 88 41 0 8 -7
27 -15 42 -21 40 -19 72 8 124 19 38 29 48 72 62 49 16 111 16 145 -2z m-6140
-318 c0 -13 -12 -39 -27 -59 -26 -34 -27 -35 -5 -29 23 8 24 3 27 -237 0 -26
6 -42 18 -48 29 -17 20 -44 -18 -58 -40 -14 -65 -3 -65 30 0 10 -18 32 -39 50
-69 54 -63 83 15 87 84 3 76 43 -14 72 -40 13 -50 22 -69 60 -12 25 -23 59
-25 75 -3 26 0 30 21 27 31 -3 101 28 101 45 0 20 41 32 62 19 10 -6 18 -21
18 -34z m4416 -140 c12 -9 26 -25 31 -35 5 -9 29 -27 53 -40 38 -18 44 -26 41
-47 -13 -88 7 -196 32 -171 6 6 17 11 24 11 19 0 16 -40 -4 -47 -25 -10 -61
-54 -67 -84 -3 -16 -14 -29 -28 -34 l-23 -8 25 -4 c14 -3 30 -9 37 -15 18 -15
31 -2 26 26 -4 20 3 30 37 55 24 17 51 31 61 31 10 0 21 5 24 10 11 18 36 10
80 -26 50 -43 59 -64 37 -95 -14 -21 -14 -23 7 -41 13 -10 29 -18 36 -18 12 0
40 -49 32 -56 -2 -3 -17 2 -33 11 -34 17 -60 19 -69 5 -9 -15 -51 -12 -65 5
-18 22 -25 19 -53 -24 -20 -30 -31 -38 -47 -34 -13 4 -26 -1 -34 -12 -7 -10
-19 -20 -27 -21 -80 -16 -88 -16 -85 -1 1 9 10 24 19 35 21 23 22 32 3 32 -27
0 -30 23 -4 45 13 11 27 29 31 39 6 15 3 17 -26 11 -17 -4 -37 -14 -44 -22 -9
-11 -24 -13 -67 -8 -47 6 -57 5 -62 -9 -4 -9 -24 -35 -45 -56 -22 -22 -39 -48
-39 -59 0 -11 -4 -23 -10 -26 -5 -3 -10 -15 -10 -26 0 -17 -5 -19 -55 -13 -42
5 -60 3 -79 -10 -33 -21 -53 -22 -36 -1 7 8 17 15 23 15 5 0 26 18 45 41 19
22 53 52 75 66 22 14 51 38 64 54 14 16 31 29 39 29 26 0 14 19 -13 22 -22 2
-28 8 -28 27 0 13 6 26 13 29 7 2 12 -6 12 -23 0 -26 1 -27 23 -12 20 13 24
12 40 -10 21 -27 37 -22 37 11 0 23 -19 35 -64 41 -11 1 -25 10 -32 20 -12 16
-14 16 -30 -4 -10 -11 -22 -18 -26 -15 -5 3 -18 -2 -28 -11 -10 -9 -34 -18
-53 -20 -57 -5 -104 -34 -134 -81 -17 -27 -38 -47 -53 -51 -32 -7 -70 -42 -70
-62 0 -17 -85 -91 -104 -91 -6 0 -23 15 -38 34 -24 30 -25 36 -13 52 19 26 18
34 -3 34 -26 0 -33 10 -21 31 11 21 112 54 136 45 10 -4 14 -2 10 8 -8 19 26
61 41 52 7 -4 12 -14 12 -22 0 -8 5 -14 10 -14 14 0 12 28 -2 32 -8 3 1 18 23
39 27 25 36 42 35 64 -1 25 -6 31 -29 33 -23 3 -28 -1 -33 -27 -4 -16 -14 -32
-23 -34 -10 -3 -8 -5 7 -6 34 -2 25 -35 -11 -39 -15 -2 -27 -8 -27 -13 0 -13
-99 -75 -135 -83 -54 -13 -125 -17 -125 -6 0 5 -4 10 -10 10 -8 0 -132 80
-149 96 -9 8 31 54 48 54 10 0 31 18 45 39 36 52 49 55 97 26 54 -35 99 -43
111 -22 10 18 38 22 54 8 5 -5 23 -12 39 -15 26 -5 33 -1 53 26 23 33 23 33 2
47 -21 14 -27 46 -10 56 6 4 0 23 -15 49 -14 24 -25 49 -25 58 0 8 16 32 35
54 l36 39 50 -55 c82 -91 79 -86 68 -120 -8 -22 -8 -34 1 -44 9 -12 17 -11 52
7 23 12 50 37 61 55 20 34 41 41 51 17 3 -8 10 -15 16 -15 13 0 13 47 0 55
-15 9 -12 47 3 43 6 -3 16 -14 22 -26 6 -15 15 -20 25 -16 8 4 25 6 38 5 16 0
22 5 22 20 0 14 -5 19 -14 16 -17 -7 -40 18 -31 33 3 5 12 10 19 10 8 0 16 14
20 30 4 24 11 30 30 30 14 0 28 5 31 10 9 15 27 12 51 -8z m-6048 -229 c2 -16
-5 -26 -30 -39 -57 -29 -170 -106 -213 -144 -22 -20 -65 -55 -95 -79 -69 -53
-75 -64 -57 -99 8 -15 23 -62 33 -105 17 -73 17 -79 1 -106 -19 -32 -21 -87
-8 -176 13 -81 2 -139 -25 -143 -42 -6 -45 12 -33 219 11 190 11 195 -10 242
-24 52 -30 55 -51 29 -8 -9 -27 -32 -42 -50 -20 -24 -28 -45 -28 -72 0 -22 -7
-54 -15 -72 -8 -18 -19 -59 -25 -90 -6 -32 -16 -60 -21 -63 -11 -8 -11 -26 1
-45 8 -12 13 -11 33 8 26 25 57 21 57 -7 0 -9 -18 -35 -40 -56 -24 -23 -40
-48 -40 -62 0 -13 -5 -23 -11 -23 -6 0 -26 -16 -44 -36 -45 -49 -60 -37 -34
29 11 29 24 56 29 61 4 4 6 41 3 82 -4 55 -1 88 12 129 19 62 13 82 -14 46
l-18 -24 -6 23 c-4 17 2 34 22 59 15 20 34 47 41 61 7 14 56 73 107 132 88 99
133 138 297 257 34 24 88 66 120 93 63 53 99 60 104 21z m7695 -114 c76 -38
154 -128 141 -162 -7 -19 -47 -27 -69 -14 -12 6 -31 5 -57 -3 -71 -21 -122 -2
-194 71 -29 29 -24 66 15 101 39 35 102 38 164 7z m-5905 -46 c15 -10 51 -39
80 -65 30 -26 60 -48 67 -48 18 0 23 -16 36 -137 28 -262 -8 -556 -205 -1659
-14 -76 -30 -178 -37 -226 l-12 -87 -31 6 c-17 3 -43 12 -58 20 -33 16 -34 21
-13 193 9 69 20 175 25 235 6 61 13 120 16 133 4 20 2 23 -16 17 -18 -6 -21
-3 -18 16 4 28 28 38 29 12 3 -44 19 64 29 192 18 227 40 471 56 605 8 69 21
181 29 250 24 205 16 428 -20 541 -8 24 8 24 43 2z m4653 -285 c14 -25 6 -96
-16 -142 -9 -18 -34 -52 -57 -76 -40 -41 -41 -44 -29 -74 40 -96 44 -116 45
-196 0 -82 -13 -186 -29 -222 -6 -14 -2 -18 16 -18 13 0 37 -7 53 -15 15 -8
36 -15 46 -15 10 0 20 -7 24 -15 3 -8 0 -15 -6 -15 -6 0 -8 -3 -5 -7 9 -9 -33
-53 -50 -53 -7 0 -13 -4 -13 -8 0 -11 -73 -52 -92 -52 -8 0 -23 9 -33 20 -27
29 -51 25 -103 -20 -26 -23 -58 -46 -72 -53 -31 -16 -33 -41 -2 -45 12 -2 22
-8 22 -13 0 -5 20 -9 45 -9 34 0 45 -4 45 -15 0 -19 -32 -32 -100 -41 -27 -4
-50 -11 -50 -17 0 -5 -8 -3 -19 7 -34 30 -34 186 0 186 5 0 16 14 24 31 16 29
15 31 -9 54 -28 26 -33 54 -14 73 17 17 79 15 104 -2 12 -8 44 -18 73 -22 51
-7 53 -6 49 17 -3 22 -7 24 -45 21 -31 -3 -43 0 -43 10 0 7 -9 29 -19 49 -22
42 -58 203 -67 305 -6 67 -5 72 17 88 13 9 34 16 47 16 35 0 94 36 120 74 30
44 28 56 -11 56 -42 0 -77 25 -77 54 0 13 -6 26 -14 29 -23 9 -38 -18 -31 -55
8 -43 -15 -79 -38 -60 -11 10 -14 30 -12 85 l3 72 88 18 c193 39 212 38 235
-5z m-738 -356 c-2 -14 11 -36 35 -61 29 -30 37 -46 37 -72 -2 -58 -6 -84 -12
-71 -2 6 -13 12 -24 12 -15 0 -19 -7 -19 -39 0 -22 -6 -42 -12 -45 -10 -5 -10
-7 0 -12 36 -17 -4 -53 -68 -61 -42 -5 -50 -3 -50 11 0 24 35 55 51 45 19 -12
49 -11 49 1 0 6 -9 21 -21 33 -19 21 -21 21 -30 4 -8 -14 -14 -16 -25 -6 -22
18 -17 46 16 80 16 17 32 46 34 63 13 84 14 104 4 114 -14 14 0 34 20 30 11
-3 16 -12 15 -26z m1695 -152 c35 0 82 -23 150 -75 53 -40 53 -40 27 -48 -17
-6 -41 -5 -68 3 -23 7 -82 16 -132 19 l-90 6 -3 31 c-4 42 39 90 67 74 11 -5
33 -10 49 -10z m-775 -74 c9 -7 17 -20 17 -29 0 -9 18 -22 43 -32 52 -19 123
-81 132 -113 6 -22 5 -23 -32 -17 l-38 6 30 -23 c54 -42 60 -53 72 -126 4 -23
10 -32 19 -28 8 3 14 -1 14 -9 0 -17 -16 -20 -25 -5 -3 6 -14 10 -24 10 -10 0
-33 13 -52 30 -19 16 -56 44 -83 63 -60 40 -66 53 -32 68 14 7 26 20 26 30 0
14 -14 19 -72 29 -115 17 -121 19 -110 33 6 7 15 30 22 53 7 25 23 47 39 57
31 20 31 20 54 3z m537 -5 c0 -10 16 -34 35 -53 23 -22 34 -40 30 -50 -7 -17
-60 -40 -137 -59 -47 -11 -48 -11 -77 20 -16 17 -38 31 -49 31 -12 0 -24 5
-27 10 -3 6 1 10 9 10 9 0 16 5 16 10 0 6 11 10 24 10 29 0 55 23 68 62 9 26
14 28 59 28 41 0 49 -3 49 -19z m-6426 -147 c20 -8 20 -40 1 -78 -8 -15 -15
-36 -15 -46 0 -10 -12 -28 -28 -38 -25 -18 -32 -19 -77 -7 -43 10 -50 16 -50
36 0 21 4 24 30 21 17 -1 38 -12 47 -23 13 -16 19 -18 22 -8 14 43 11 55 -24
76 -23 15 -29 22 -17 23 9 0 27 11 39 25 22 25 42 30 72 19z m6615 -139 c14
-14 57 -54 94 -90 38 -36 72 -65 77 -65 4 0 21 7 36 15 57 29 67 21 86 -75 16
-79 5 -167 -23 -191 -11 -9 -19 -19 -19 -21 0 -9 80 -6 86 3 3 5 16 9 30 9 38
0 47 -37 25 -101 -9 -29 -23 -55 -29 -57 -7 -2 -30 14 -52 36 -21 22 -49 44
-62 47 -54 18 -75 105 -37 156 13 18 14 29 6 60 -5 22 -12 39 -16 39 -4 0 -5
16 -3 35 3 21 0 35 -7 35 -6 0 -11 -9 -11 -20 0 -11 -4 -20 -10 -20 -5 0 -10
12 -10 26 0 20 -4 25 -16 20 -17 -6 -84 20 -96 38 -4 6 -10 7 -14 4 -3 -4 -14
0 -23 9 -27 28 -81 107 -81 120 0 22 41 14 69 -12z m-756 -76 c28 -24 25 -69
-4 -76 -11 -3 -19 -9 -19 -13 0 -5 -21 -23 -46 -40 l-46 -31 -25 28 c-24 25
-53 81 -53 101 0 5 19 12 41 15 23 3 46 11 50 19 5 7 9 10 9 6 0 -4 10 -3 23
2 34 13 45 12 70 -11z m-6917 -146 c-13 -57 -14 -56 59 -69 80 -14 110 -25
143 -53 28 -25 28 -33 -2 -25 -26 6 -56 -17 -56 -45 0 -14 -8 -16 -57 -11 -65
6 -83 14 -83 36 0 26 -24 10 -46 -32 -28 -53 -58 -53 -96 1 -33 48 -35 76 -8
93 15 9 24 9 39 1 10 -7 26 -9 36 -5 14 5 17 15 12 54 -6 52 11 82 46 82 16 0
18 -5 13 -27z m7324 -133 c51 -83 40 -78 119 -51 58 20 73 22 86 11 8 -7 15
-18 15 -24 0 -20 -96 -116 -116 -116 -13 0 -31 17 -49 46 -16 25 -46 59 -67
75 -27 22 -38 38 -38 58 0 27 7 41 20 41 3 0 17 -18 30 -40z m188 -386 c12 -2
39 -20 60 -38 57 -51 97 -69 142 -61 64 11 80 -5 80 -78 0 -118 -17 -133 -145
-136 -44 -1 -174 -6 -289 -10 -115 -4 -220 -6 -233 -3 -15 3 -31 18 -44 43
-10 21 -32 45 -48 54 -16 8 -33 25 -37 37 -3 12 -15 30 -25 41 -17 19 -19 19
-44 3 -14 -9 -31 -27 -36 -40 -16 -34 -45 -49 -70 -35 -17 9 -25 7 -43 -10
-26 -25 -53 -25 -121 -3 -55 19 -54 16 -39 115 8 53 15 58 38 22 13 -20 25
-25 56 -25 60 0 85 14 103 58 10 26 25 43 44 50 48 20 571 32 651 16z m-1368
-104 c0 -21 -12 -38 -48 -68 -48 -41 -48 -41 -49 -104 -1 -73 -20 -178 -33
-178 -24 0 -33 46 -26 134 3 50 2 106 -3 124 -11 37 -2 51 59 87 19 11 43 25
53 32 28 16 47 5 47 -27z m-4166 -299 c16 -17 15 -22 -19 -89 -20 -38 -41 -97
-47 -131 -10 -55 -14 -61 -37 -61 -46 0 -91 22 -91 46 0 47 21 127 47 180 22
45 31 54 47 50 12 -3 32 2 46 9 32 18 34 18 54 -4z m-63 -309 c85 3 89 2 89
-18 0 -38 -32 -66 -80 -71 -91 -10 -170 31 -170 88 l0 28 36 -15 c26 -11 62
-14 125 -12z m-63 -109 l33 -6 -7 -241 c-4 -132 -11 -249 -16 -259 -16 -31
-49 -17 -66 28 -12 30 -17 95 -20 269 l-4 229 24 -7 c12 -4 38 -9 56 -13z
m-1114 -278 c16 -14 39 -33 52 -41 22 -15 25 -14 50 5 15 12 38 21 51 21 22 0
23 -3 17 -37 -3 -21 -12 -60 -20 -87 -8 -27 -14 -60 -14 -73 0 -14 -5 -21 -13
-17 -8 3 -13 -6 -15 -28 -2 -25 0 -29 8 -18 7 11 10 -3 10 -48 0 -40 -4 -61
-10 -57 -5 3 -10 2 -10 -4 0 -7 -8 -7 -26 -1 -38 15 -75 12 -89 -7 -11 -15
-15 -13 -43 15 -17 18 -36 32 -42 32 -5 0 -10 8 -10 18 0 9 -3 27 -6 40 -5 18
-2 24 13 28 31 8 49 48 35 78 -7 17 -17 23 -29 20 -11 -3 -28 5 -42 20 -25 26
-65 34 -76 16 -4 -6 -11 -7 -17 -4 -14 9 19 34 45 34 19 0 56 36 57 55 0 12
37 46 60 57 26 12 36 9 64 -17z m4287 -101 c5 -60 18 -147 28 -193 13 -58 15
-79 6 -68 -7 10 -21 29 -31 43 -11 14 -47 39 -81 55 -49 24 -63 35 -68 59 -11
48 -8 109 5 125 7 9 13 25 14 37 0 12 7 23 15 26 8 3 11 0 7 -7 -13 -20 19
-12 54 14 18 14 35 23 37 21 2 -1 8 -52 14 -112z m-3206 -168 c13 -9 31 -13
39 -10 11 4 16 0 16 -13 0 -10 -30 -187 -66 -393 -36 -206 -78 -451 -94 -545
-36 -216 -80 -449 -87 -455 -3 -3 -2 24 1 60 3 36 8 125 11 197 3 118 15 230
70 678 8 66 17 154 20 195 3 41 10 93 15 115 5 22 14 76 21 120 13 84 21 111
27 83 2 -9 14 -24 27 -32z m-1126 -287 c7 -23 73 -79 93 -79 10 0 21 -7 24
-15 4 -8 10 -12 15 -9 5 3 9 -4 9 -15 0 -28 -38 -36 -107 -22 -42 8 -59 8 -70
-1 -11 -9 -11 -13 -1 -19 9 -6 4 -9 -14 -9 -38 0 -58 10 -52 25 7 17 -35 8
-55 -12 -14 -15 -33 -14 -32 2 0 6 7 11 16 13 32 7 62 49 68 96 4 30 3 45 -3
41 -6 -3 -15 -3 -20 0 -22 14 2 21 61 20 45 -1 64 -6 68 -16z"/>
<path d="M4515 7509 c-147 -61 -195 -115 -142 -161 17 -16 31 -19 67 -15 25 3
54 9 65 13 19 8 20 7 2 -16 -30 -43 -39 -73 -30 -104 11 -38 26 -43 42 -14
l12 23 -5 -23 c-8 -40 3 -52 48 -52 28 1 68 14 126 43 78 39 85 45 88 75 2 24
8 32 23 32 10 0 19 -7 19 -15 0 -32 127 -3 137 31 4 12 -61 34 -131 44 -49 7
-181 -11 -213 -28 -11 -7 -21 -6 -31 4 -7 8 -24 14 -36 14 -12 0 -26 3 -29 7
-9 8 22 43 38 43 7 0 18 6 24 13 6 8 30 24 53 36 55 29 104 68 95 77 -4 4 -33
8 -64 10 -49 3 -73 -2 -158 -37z"/>
<path d="M2446 5385 c-27 -24 -36 -39 -32 -51 4 -9 -2 -32 -13 -50 l-20 -34
24 -16 c28 -18 55 -13 55 11 0 9 9 15 21 15 22 0 22 8 4 53 -5 13 -2 17 14 17
14 0 23 8 27 28 4 15 11 32 16 39 11 13 2 19 -32 21 -15 0 -40 -12 -64 -33z"/>
<path d="M5820 8223 c-46 -13 -73 -13 -165 -4 -60 6 -113 7 -118 2 -11 -11 20
-41 44 -41 10 0 19 -5 19 -11 0 -6 8 -3 17 6 14 14 28 16 77 11 34 -4 71 -8
83 -9 12 -1 25 -5 29 -9 4 -5 24 -8 43 -8 20 0 47 -7 59 -16 20 -14 23 -14 28
3 3 10 9 27 14 39 4 11 5 26 1 33 -12 19 -71 21 -131 4z"/>
<path d="M7275 2420 c-8 -13 4 -50 21 -68 8 -7 12 -18 9 -23 -4 -5 -2 -9 4 -9
6 0 8 -12 5 -29 -5 -24 -1 -32 26 -51 27 -19 35 -21 57 -11 14 6 40 9 58 5 26
-5 37 -1 54 17 11 13 21 31 21 40 0 15 -6 17 -35 12 -21 -3 -35 -1 -35 5 0 17
-54 21 -77 6 -28 -18 -36 -5 -17 30 20 40 18 49 -17 69 -34 19 -65 22 -74 7z"/>
<path d="M6991 1290 c-1 -69 -6 -181 -11 -250 -6 -69 -12 -163 -16 -210 -3
-47 -9 -107 -14 -135 -12 -63 -23 -255 -23 -405 0 -76 -3 -105 -8 -85 -6 21
-7 14 -4 -25 3 -30 5 -83 5 -117 0 -119 17 -63 24 80 4 78 18 270 32 427 27
315 38 654 25 770 -8 74 -8 74 -10 -50z"/>
</g>
</svg>
