<?xml version="1.0" standalone="no"?>
<!DOCTYPE svg PUBLIC "-//W3C//DTD SVG 20010904//EN"
 "http://www.w3.org/TR/2001/REC-SVG-20010904/DTD/svg10.dtd">
<svg version="1.0" xmlns="http://www.w3.org/2000/svg"
 width="501.000000pt" height="242.000000pt" viewBox="0 0 501.000000 242.000000"
 preserveAspectRatio="xMidYMid meet">
<metadata>
Created by potrace 1.16, written by Peter Selinger 2001-2019
</metadata>
<g transform="translate(0.000000,242.000000) scale(0.100000,-0.100000)"
fill="#000000" stroke="none">
<path d="M0 2300 l0 -110 110 0 110 0 0 110 0 110 -110 0 -110 0 0 -110z"/>
<path d="M260 2300 l0 -110 105 0 105 0 0 110 0 110 -105 0 -105 0 0 -110z
m200 0 l0 -100 -95 0 -95 0 0 100 0 100 95 0 95 0 0 -100z"/>
<path d="M510 2300 l0 -110 110 0 110 0 0 110 0 110 -110 0 -110 0 0 -110z
m200 0 l0 -100 -95 0 -95 0 0 100 0 100 95 0 95 0 0 -100z"/>
<path d="M770 2300 l0 -110 105 0 105 0 0 110 0 110 -105 0 -105 0 0 -110z"/>
<path d="M1020 2300 l0 -110 110 0 110 0 0 110 0 110 -110 0 -110 0 0 -110z
m200 0 l0 -100 -95 0 -95 0 0 100 0 100 95 0 95 0 0 -100z"/>
<path d="M1270 2300 l0 -110 110 0 110 0 0 110 0 110 -110 0 -110 0 0 -110z
m210 0 l0 -100 -100 0 -100 0 0 100 0 100 100 0 100 0 0 -100z"/>
<path d="M0 2040 l0 -110 110 0 110 0 0 110 0 110 -110 0 -110 0 0 -110z m210
0 l0 -100 -100 0 -100 0 0 100 0 100 100 0 100 0 0 -100z"/>
<path d="M260 2040 l0 -110 110 0 110 0 0 110 0 110 -110 0 -110 0 0 -110z
m200 0 l0 -100 -95 0 -95 0 0 100 0 100 95 0 95 0 0 -100z"/>
<path d="M510 2040 l0 -110 110 0 110 0 0 110 0 110 -110 0 -110 0 0 -110z
m210 0 l0 -100 -100 0 -100 0 0 100 0 100 100 0 100 0 0 -100z"/>
<path d="M770 2040 l0 -110 105 0 105 0 0 110 0 110 -105 0 -105 0 0 -110z"/>
<path d="M1020 2040 l0 -110 110 0 110 0 0 110 0 110 -110 0 -110 0 0 -110z
m210 0 l0 -100 -100 0 -100 0 0 100 0 100 100 0 100 0 0 -100z"/>
<path d="M1270 2040 l0 -110 110 0 110 0 0 110 0 110 -110 0 -110 0 0 -110z
m200 0 l0 -100 -95 0 -95 0 0 100 0 100 95 0 95 0 0 -100z"/>
<path d="M1980 1780 l0 -110 100 0 100 0 0 110 0 110 -100 0 -100 0 0 -110z"/>
<path d="M2230 1780 l0 -110 105 0 105 0 0 110 0 110 -105 0 -105 0 0 -110z
m200 0 l0 -100 -95 0 -95 0 0 100 0 100 95 0 95 0 0 -100z"/>
<path d="M2480 1780 l0 -110 105 0 105 0 0 110 0 110 -105 0 -105 0 0 -110z
m200 0 l0 -100 -95 0 -95 0 0 100 0 100 95 0 95 0 0 -100z"/>
<path d="M2740 1780 l0 -110 105 0 105 0 0 110 0 110 -105 0 -105 0 0 -110z
m200 0 l0 -100 -95 0 -95 0 0 100 0 100 95 0 95 0 0 -100z"/>
<path d="M3250 1780 l0 -110 105 0 105 0 0 110 0 110 -105 0 -105 0 0 -110z
m200 0 l0 -100 -95 0 -95 0 0 100 0 100 95 0 95 0 0 -100z"/>
<path d="M3940 1780 l0 -110 110 0 110 0 0 110 0 110 -110 0 -110 0 0 -110z"/>
<path d="M4200 1780 l0 -110 105 0 105 0 0 110 0 110 -105 0 -105 0 0 -110z
m200 0 l0 -100 -95 0 -95 0 0 100 0 100 95 0 95 0 0 -100z"/>
<path d="M0 1770 l0 -110 110 0 110 0 0 110 0 110 -110 0 -110 0 0 -110z m210
0 l0 -100 -100 0 -100 0 0 100 0 100 100 0 100 0 0 -100z"/>
<path d="M260 1770 l0 -110 105 0 105 0 0 110 0 110 -105 0 -105 0 0 -110z"/>
<path d="M510 1770 l0 -110 110 0 110 0 0 110 0 110 -110 0 -110 0 0 -110z"/>
<path d="M770 1770 l0 -110 105 0 105 0 0 110 0 110 -105 0 -105 0 0 -110z
m200 0 l0 -100 -95 0 -95 0 0 100 0 100 95 0 95 0 0 -100z"/>
<path d="M1020 1770 l0 -110 110 0 110 0 0 110 0 110 -110 0 -110 0 0 -110z
m200 0 l0 -100 -95 0 -95 0 0 100 0 100 95 0 95 0 0 -100z"/>
<path d="M1270 1770 l0 -110 110 0 110 0 0 110 0 110 -110 0 -110 0 0 -110z"/>
<path d="M0 1510 l0 -110 110 0 110 0 0 110 0 110 -110 0 -110 0 0 -110z"/>
<path d="M260 1510 l0 -110 110 0 110 0 0 110 0 110 -110 0 -110 0 0 -110z
m210 0 l0 -100 -100 0 -100 0 0 100 0 100 100 0 100 0 0 -100z"/>
<path d="M510 1510 l0 -110 110 0 110 0 0 110 0 110 -110 0 -110 0 0 -110z
m210 0 l0 -100 -100 0 -100 0 0 100 0 100 100 0 100 0 0 -100z"/>
<path d="M770 1510 l0 -110 105 0 105 0 0 110 0 110 -105 0 -105 0 0 -110z
m190 0 l0 -100 -90 0 -90 0 0 100 0 100 90 0 90 0 0 -100z"/>
<path d="M1020 1510 l0 -110 110 0 110 0 0 110 0 110 -110 0 -110 0 0 -110z
m210 0 l0 -100 -100 0 -100 0 0 100 0 100 100 0 100 0 0 -100z"/>
<path d="M1270 1510 l0 -110 110 0 110 0 0 110 0 110 -110 0 -110 0 0 -110z
m200 0 l0 -100 -95 0 -95 0 0 100 0 100 95 0 95 0 0 -100z"/>
<path d="M1980 1510 l0 -110 100 0 100 0 0 110 0 110 -100 0 -100 0 0 -110z
m190 0 l0 -100 -90 0 -90 0 0 100 0 100 90 0 90 0 0 -100z"/>
<path d="M2230 1510 l0 -110 105 0 105 0 0 110 0 110 -105 0 -105 0 0 -110z"/>
<path d="M2490 1510 l0 -110 100 0 100 0 0 110 0 110 -100 0 -100 0 0 -110z
m190 0 l0 -100 -90 0 -90 0 0 100 0 100 90 0 90 0 0 -100z"/>
<path d="M2740 1510 l0 -110 105 0 105 0 0 110 0 110 -105 0 -105 0 0 -110z"/>
<path d="M3000 1510 l0 -110 100 0 100 0 0 110 0 110 -100 0 -100 0 0 -110z
m190 0 l0 -100 -90 0 -90 0 0 100 0 100 90 0 90 0 0 -100z"/>
<path d="M3250 1510 l0 -110 105 0 105 0 0 110 0 110 -105 0 -105 0 0 -110z"/>
<path d="M3940 1510 l0 -110 110 0 110 0 0 110 0 110 -110 0 -110 0 0 -110z
m210 0 l0 -100 -95 0 -95 0 0 100 0 100 95 0 95 0 0 -100z"/>
<path d="M4190 1510 l0 -110 110 0 110 0 0 110 0 110 -110 0 -110 0 0 -110z"/>
<path d="M1750 1480 c0 -18 -6 -20 -70 -20 l-70 0 0 -75 0 -75 70 0 c69 0 70
-1 70 -26 0 -25 0 -25 23 -7 13 10 45 37 72 61 l49 43 -54 50 c-75 67 -90 75
-90 49z"/>
<path d="M3720 1480 c0 -18 -7 -20 -70 -20 l-70 0 0 -75 0 -75 70 0 c68 0 70
-1 70 -25 0 -14 3 -25 8 -25 8 0 135 109 140 120 3 8 -126 120 -139 120 -5 0
-9 -9 -9 -20z"/>
<path d="M1980 1250 l0 -110 100 0 100 0 0 110 0 110 -100 0 -100 0 0 -110z
m190 0 l0 -100 -90 0 -90 0 0 100 0 100 90 0 90 0 0 -100z"/>
<path d="M2230 1250 l0 -110 105 0 105 0 0 110 0 110 -105 0 -105 0 0 -110z
m200 0 l0 -100 -95 0 -95 0 0 100 0 100 95 0 95 0 0 -100z"/>
<path d="M2480 1250 l0 -110 105 0 105 0 0 110 0 110 -105 0 -105 0 0 -110z
m200 0 l0 -100 -95 0 -95 0 0 100 0 100 95 0 95 0 0 -100z"/>
<path d="M2740 1250 l0 -110 105 0 105 0 0 110 0 110 -105 0 -105 0 0 -110z
m200 0 l0 -100 -95 0 -95 0 0 100 0 100 95 0 95 0 0 -100z"/>
<path d="M2990 1250 l0 -110 105 0 105 0 0 110 0 110 -105 0 -105 0 0 -110z"/>
<path d="M3250 1250 l0 -110 105 0 105 0 0 110 0 110 -105 0 -105 0 0 -110z
m200 0 l0 -100 -95 0 -95 0 0 100 0 100 95 0 95 0 0 -100z"/>
<path d="M3940 1250 l0 -110 110 0 110 0 0 110 0 110 -110 0 -110 0 0 -110z"/>
<path d="M4200 1250 l0 -110 105 0 105 0 0 110 0 110 -105 0 -105 0 0 -110z
m200 0 l0 -100 -95 0 -95 0 0 100 0 100 95 0 95 0 0 -100z"/>
<path d="M0 1240 l0 -110 110 0 110 0 0 110 0 110 -110 0 -110 0 0 -110z m200
0 l0 -100 -95 0 -95 0 0 100 0 100 95 0 95 0 0 -100z"/>
<path d="M260 1240 l0 -110 105 0 105 0 0 110 0 110 -105 0 -105 0 0 -110z"/>
<path d="M510 1240 l0 -110 110 0 110 0 0 110 0 110 -110 0 -110 0 0 -110z
m210 0 l0 -100 -100 0 -100 0 0 100 0 100 100 0 100 0 0 -100z"/>
<path d="M770 1240 l0 -110 105 0 105 0 0 110 0 110 -105 0 -105 0 0 -110z"/>
<path d="M1020 1240 l0 -110 110 0 110 0 0 110 0 110 -110 0 -110 0 0 -110z
m210 0 l0 -100 -100 0 -100 0 0 100 0 100 100 0 100 0 0 -100z"/>
<path d="M1270 1240 l0 -110 110 0 110 0 0 110 0 110 -110 0 -110 0 0 -110z"/>
<path d="M0 980 l0 -110 110 0 110 0 0 110 0 110 -110 0 -110 0 0 -110z m210
0 l0 -100 -100 0 -100 0 0 100 0 100 100 0 100 0 0 -100z"/>
<path d="M260 980 l0 -110 110 0 110 0 0 110 0 110 -110 0 -110 0 0 -110z
m210 0 l0 -100 -100 0 -100 0 0 100 0 100 100 0 100 0 0 -100z"/>
<path d="M510 980 l0 -110 110 0 110 0 0 110 0 110 -110 0 -110 0 0 -110z
m200 0 l0 -100 -95 0 -95 0 0 100 0 100 95 0 95 0 0 -100z"/>
<path d="M770 980 l0 -110 105 0 105 0 0 110 0 110 -105 0 -105 0 0 -110z
m200 0 l0 -100 -95 0 -95 0 0 100 0 100 95 0 95 0 0 -100z"/>
<path d="M1020 980 l0 -110 110 0 110 0 0 110 0 110 -110 0 -110 0 0 -110z"/>
<path d="M1270 980 l0 -110 110 0 110 0 0 110 0 110 -110 0 -110 0 0 -110z
m200 0 l0 -100 -95 0 -95 0 0 100 0 100 95 0 95 0 0 -100z"/>
<path d="M2740 980 l0 -110 105 0 105 0 0 110 0 110 -105 0 -105 0 0 -110z"/>
<path d="M1980 975 l0 -105 100 0 100 0 0 105 0 105 -100 0 -100 0 0 -105z
m190 0 l0 -95 -90 0 -90 0 0 95 0 95 90 0 90 0 0 -95z"/>
<path d="M2230 975 l0 -105 105 0 105 0 0 105 0 105 -105 0 -105 0 0 -105z
m200 0 l0 -95 -95 0 -95 0 0 95 0 95 95 0 95 0 0 -95z"/>
<path d="M2480 975 l0 -105 105 0 105 0 0 105 0 105 -105 0 -105 0 0 -105z
m200 0 l0 -95 -95 0 -95 0 0 95 0 95 95 0 95 0 0 -95z"/>
<path d="M3250 975 l0 -105 105 0 105 0 0 105 0 105 -105 0 -105 0 0 -105z
m200 0 l0 -95 -95 0 -95 0 0 95 0 95 95 0 95 0 0 -95z"/>
<path d="M3940 975 l0 -105 110 0 110 0 0 105 0 105 -110 0 -110 0 0 -105z
m210 0 l0 -95 -100 0 -100 0 0 95 0 95 100 0 100 0 0 -95z"/>
<path d="M4200 975 l0 -105 105 0 105 0 0 105 0 105 -105 0 -105 0 0 -105z
m200 0 l0 -95 -90 0 -90 0 0 95 0 95 90 0 90 0 0 -95z"/>
<path d="M770 710 l0 -110 105 0 105 0 0 110 0 110 -105 0 -105 0 0 -110z"/>
<path d="M0 705 l0 -105 110 0 110 0 0 105 0 105 -110 0 -110 0 0 -105z m210
0 l0 -95 -100 0 -100 0 0 95 0 95 100 0 100 0 0 -95z"/>
<path d="M260 705 l0 -105 110 0 110 0 0 105 0 105 -110 0 -110 0 0 -105z
m200 0 l0 -95 -95 0 -95 0 0 95 0 95 95 0 95 0 0 -95z"/>
<path d="M510 705 l0 -105 110 0 110 0 0 105 0 105 -110 0 -110 0 0 -105z
m210 0 l0 -95 -100 0 -100 0 0 95 0 95 100 0 100 0 0 -95z"/>
<path d="M1020 705 l0 -105 110 0 110 0 0 105 0 105 -110 0 -110 0 0 -105z
m210 0 l0 -95 -100 0 -100 0 0 95 0 95 100 0 100 0 0 -95z"/>
<path d="M1270 705 l0 -105 110 0 110 0 0 105 0 105 -110 0 -110 0 0 -105z
m200 0 l0 -95 -95 0 -95 0 0 95 0 95 95 0 95 0 0 -95z"/>
<path d="M0 440 l0 -110 110 0 110 0 0 110 0 110 -110 0 -110 0 0 -110z m200
0 l0 -100 -95 0 -95 0 0 100 0 100 95 0 95 0 0 -100z"/>
<path d="M260 440 l0 -110 105 0 105 0 0 110 0 110 -105 0 -105 0 0 -110z"/>
<path d="M510 440 l0 -110 110 0 110 0 0 110 0 110 -110 0 -110 0 0 -110z
m210 0 l0 -100 -100 0 -100 0 0 100 0 100 100 0 100 0 0 -100z"/>
<path d="M770 440 l0 -110 105 0 105 0 0 110 0 110 -105 0 -105 0 0 -110z"/>
<path d="M1020 440 l0 -110 110 0 110 0 0 110 0 110 -110 0 -110 0 0 -110z
m210 0 l0 -100 -100 0 -100 0 0 100 0 100 100 0 100 0 0 -100z"/>
<path d="M1270 440 l0 -110 110 0 110 0 0 110 0 110 -110 0 -110 0 0 -110z"/>
</g>
</svg>
