<?xml version="1.0" standalone="no"?>
<!DOCTYPE svg PUBLIC "-//W3C//DTD SVG 20010904//EN"
 "http://www.w3.org/TR/2001/REC-SVG-20010904/DTD/svg10.dtd">
<svg version="1.0" xmlns="http://www.w3.org/2000/svg"
 width="624.000000pt" height="416.000000pt" viewBox="0 0 624.000000 416.000000"
 preserveAspectRatio="xMidYMid meet">
<metadata>
Created by potrace 1.16, written by Peter Selinger 2001-2019
</metadata>
<g transform="translate(0.000000,416.000000) scale(0.100000,-0.100000)"
fill="#000000" stroke="none">
<path d="M3470 4071 c80 -48 161 -103 182 -120 33 -29 150 -103 256 -161 l42
-24 41 40 c22 21 104 110 181 197 l139 157 -493 0 -493 0 145 -89z"/>
<path d="M4565 3923 c-110 -129 -201 -239 -203 -243 -2 -5 55 -38 125 -76 215
-114 362 -208 456 -291 l38 -34 32 43 c18 24 67 86 107 138 41 52 100 129 133
170 32 41 72 92 90 114 18 21 46 55 62 77 61 78 211 263 244 300 l33 39 -458
0 -459 -1 -200 -236z"/>
<path d="M5681 4028 c-56 -73 -123 -162 -151 -198 -439 -571 -478 -625 -469
-642 5 -10 13 -18 17 -17 4 0 77 91 162 202 183 237 466 596 488 617 13 13 14
13 7 0 -15 -27 -223 -302 -533 -702 -82 -107 -112 -153 -107 -167 7 -21 -10
-38 -45 -43 -20 -3 -5 -13 74 -52 192 -95 520 -314 944 -628 l172 -128 0 945
0 945 -230 0 -229 0 -100 -132z"/>
<path d="M2445 3965 c-49 -48 -40 -64 143 -247 176 -176 193 -187 232 -148 31
31 24 53 -30 113 -27 30 -50 58 -50 62 0 9 -41 57 -141 163 -86 91 -111 101
-154 57z m234 -196 c114 -105 151 -146 151 -168 0 -15 -30 -41 -46 -41 -22 0
-134 109 -134 130 0 10 -29 44 -65 78 -59 55 -77 87 -58 105 16 17 40 0 152
-104z"/>
<path d="M706 3763 c10 -18 22 -33 26 -33 11 0 48 -61 48 -79 0 -11 -5 -10
-25 3 -31 20 -43 20 -47 -1 -3 -15 -6 -15 -24 5 -18 20 -22 20 -40 7 -15 -11
-16 -17 -6 -23 10 -7 11 -14 1 -35 -15 -34 -29 -35 -29 -2 0 14 -8 29 -20 35
-13 7 -20 7 -20 1 0 -6 -7 -8 -15 -5 -18 7 -20 -7 -2 -25 10 -10 8 -11 -7 -5
-15 6 -17 3 -12 -13 4 -13 1 -27 -8 -36 -13 -13 -10 -15 25 -21 35 -6 39 -9
36 -31 -1 -13 -6 -27 -10 -31 -12 -12 -8 -34 7 -34 8 0 17 -7 20 -16 5 -14 1
-16 -26 -10 -17 3 -40 14 -50 23 -10 9 -21 13 -24 10 -13 -12 7 -58 29 -67 12
-5 18 -9 13 -9 -5 -1 -2 -8 5 -17 11 -14 10 -16 -11 -12 -22 3 -25 -1 -28 -34
-5 -56 -20 -46 -24 14 -3 59 -19 71 -44 33 -14 -22 -16 -32 -7 -56 15 -40 -1
-52 -52 -38 -48 13 -91 7 -135 -20 l-34 -20 28 -11 c34 -13 66 -13 86 0 13 8
11 11 -7 16 -13 4 -23 11 -23 16 0 6 7 7 16 4 9 -3 34 -6 57 -7 l42 -1 -31
-13 c-49 -22 -99 -94 -56 -81 9 3 26 -1 36 -9 16 -12 17 -17 6 -30 -10 -12
-16 -13 -29 -3 -14 11 -14 11 -4 -3 9 -11 10 -18 1 -27 -8 -8 -4 -14 15 -23
18 -8 27 -20 27 -36 0 -21 -4 -23 -54 -23 -30 0 -58 -5 -61 -10 -4 -6 10 -27
30 -47 19 -19 33 -38 30 -41 -2 -3 0 -11 5 -17 8 -9 6 -14 -5 -19 -24 -9 -18
-36 9 -36 21 0 24 4 21 38 -1 20 1 46 5 57 6 16 1 23 -24 34 -29 13 -29 15 -8
18 12 3 29 -3 38 -11 8 -9 24 -16 33 -16 10 0 24 -6 31 -14 6 -8 17 -13 24
-10 8 3 16 -5 20 -18 5 -18 8 -20 15 -9 5 8 14 10 21 6 9 -6 5 -12 -14 -22
-34 -18 -33 -29 5 -49 23 -11 28 -18 19 -24 -8 -5 -11 -19 -7 -39 5 -24 3 -29
-8 -24 -8 3 -15 12 -15 21 0 14 -2 14 -17 0 -10 -9 -23 -14 -29 -11 -17 6 -34
-21 -28 -45 6 -20 8 -20 29 -6 20 13 23 13 29 -2 6 -16 8 -15 21 2 8 11 15 14
15 7 0 -23 17 -13 30 17 8 19 26 36 46 45 33 14 44 37 24 50 -16 10 -11 35 8
36 10 0 12 3 5 6 -7 2 -13 13 -13 24 0 16 4 17 25 9 23 -9 25 -8 19 15 -5 20
-2 25 21 31 26 6 27 9 23 55 -3 27 -1 49 3 49 5 0 9 -5 9 -11 0 -8 4 -8 13 -1
7 6 17 8 22 4 15 -10 37 -80 30 -92 -3 -5 5 -15 19 -21 14 -7 33 -23 42 -36
15 -23 14 -26 -5 -40 -13 -9 -21 -25 -21 -43 0 -28 0 -28 30 -14 16 9 34 23
40 32 8 15 9 14 10 -5 0 -13 5 -23 10 -23 6 0 10 5 10 11 0 15 26 39 44 39 8
0 18 5 21 10 9 14 21 12 40 -6 8 -9 22 -14 30 -11 21 9 40 -19 26 -37 -10 -11
-9 -16 4 -24 19 -10 16 -48 -3 -45 -15 4 -15 -7 1 -29 7 -9 26 -18 42 -20 22
-2 34 -12 47 -37 23 -45 14 -65 -26 -56 -17 3 -43 8 -59 9 -32 3 -46 14 -30
24 15 9 6 49 -11 55 -9 4 -12 -11 -12 -49 1 -47 4 -54 21 -54 16 0 13 -5 -13
-22 -30 -18 -38 -19 -73 -9 -43 13 -54 45 -20 56 19 6 33 48 24 71 -2 7 -11
10 -19 7 -20 -7 -44 21 -37 46 3 12 1 21 -6 21 -6 0 -11 -4 -11 -10 0 -5 -12
-10 -26 -10 -22 0 -25 -2 -14 -15 7 -8 20 -15 29 -15 14 -1 14 -2 1 -13 -8 -7
-16 -19 -18 -27 -5 -24 -17 -32 -56 -37 -43 -6 -82 16 -96 53 -8 21 -12 23
-29 12 -26 -16 -38 -4 -17 17 13 13 14 21 4 38 -25 48 -37 52 -69 21 -16 -15
-29 -32 -29 -38 0 -5 11 1 25 14 17 16 29 20 35 14 16 -16 1 -43 -31 -60 -25
-13 -27 -17 -17 -34 13 -20 28 -27 28 -12 0 5 14 9 30 9 36 0 36 -1 8 -27
l-22 -20 25 0 c14 0 31 6 38 13 11 10 14 9 18 -1 3 -6 10 -9 16 -5 6 4 8 0 4
-10 -7 -18 8 -33 18 -17 10 16 22 12 28 -10 4 -17 9 -19 31 -10 21 8 28 7 32
-5 3 -8 3 -19 -1 -25 -4 -6 5 -10 22 -11 15 0 37 -4 48 -9 18 -8 17 -9 -7 -9
-17 -1 -27 -6 -25 -13 1 -7 -5 -12 -13 -11 -9 2 -6 -4 8 -13 12 -9 22 -23 22
-30 0 -8 4 -14 9 -14 5 0 11 -10 13 -22 2 -12 9 -23 16 -26 7 -2 13 2 11 9 -4
34 1 39 29 33 24 -7 26 -6 13 9 -7 10 -20 17 -27 17 -8 0 -14 5 -14 10 0 7 6
7 18 2 9 -5 23 -7 31 -4 8 2 20 -3 28 -14 7 -10 13 -12 13 -6 0 7 11 12 23 12
13 0 32 9 42 20 17 18 17 20 2 14 -10 -4 -17 -1 -17 6 0 6 9 14 20 17 11 3 20
12 20 19 0 8 10 14 24 14 44 0 52 8 48 49 -2 22 1 42 7 46 8 4 3 13 -13 26
-16 13 -22 26 -19 39 3 11 0 20 -6 20 -16 0 -13 40 3 46 8 3 13 11 10 18 -8
20 23 41 40 27 11 -9 15 -7 19 9 6 24 20 26 41 5 8 -8 17 -15 19 -15 3 0 17
20 30 45 14 25 21 45 16 45 -6 0 -7 5 -4 10 9 15 -7 12 -29 -5 -32 -24 -47
-19 -40 13 4 15 11 33 17 40 7 9 6 18 -5 29 -20 20 -38 9 -38 -23 0 -14 -7
-36 -16 -49 -9 -14 -14 -32 -10 -40 3 -8 1 -15 -4 -15 -6 0 -10 4 -10 9 0 5
-12 23 -26 41 -21 24 -25 37 -20 61 4 23 2 31 -12 35 -31 10 -67 29 -74 39
-17 23 11 105 36 105 2 0 17 5 33 12 15 6 33 12 38 14 6 1 18 5 27 9 13 5 15
2 11 -13 -3 -14 2 -24 17 -32 14 -8 20 -18 17 -30 -3 -11 0 -21 7 -24 7 -3 2
-12 -12 -25 -33 -29 -22 -64 16 -55 70 17 83 29 60 52 -9 9 -9 18 0 37 10 22
15 24 33 15 11 -7 32 -9 45 -6 19 5 24 2 24 -13 0 -12 6 -18 18 -17 12 1 17
-7 17 -26 1 -15 4 -30 7 -34 4 -3 4 -12 2 -18 -3 -7 6 -21 20 -30 16 -10 26
-26 26 -41 0 -20 5 -25 25 -25 20 0 25 5 25 25 0 14 -7 36 -16 49 -9 15 -14
42 -13 70 2 40 6 46 25 46 14 0 31 -12 43 -29 22 -30 28 -71 11 -71 -15 0 -40
-56 -30 -66 12 -12 -11 -41 -35 -45 -29 -4 -105 31 -105 47 0 10 -9 14 -27 12
-34 -4 -43 -14 -43 -55 0 -26 3 -30 20 -26 11 3 20 0 20 -6 0 -6 12 -11 28
-12 l27 -1 -27 -9 c-15 -6 -29 -20 -32 -35 -8 -32 -41 -29 -40 4 1 22 -1 21
-28 -8 -33 -37 -34 -40 -8 -40 15 0 20 -7 20 -25 0 -19 -5 -25 -21 -25 -18 0
-19 -2 -9 -15 11 -13 10 -18 -6 -30 -18 -14 -18 -14 3 -15 12 0 31 -12 44 -27
14 -18 23 -23 26 -15 7 19 20 14 26 -9 8 -30 22 -16 37 36 14 51 33 72 24 27
-4 -17 -1 -32 5 -36 6 -4 8 -12 5 -18 -4 -6 -1 -9 7 -6 8 3 14 13 15 24 1 10
7 33 14 49 l13 30 6 -25 7 -25 11 31 c7 20 8 35 2 41 -11 11 -2 43 12 43 12 0
39 -42 39 -62 0 -10 -7 -18 -15 -18 -22 0 -18 -23 8 -41 22 -16 22 -16 22 37
0 29 -4 56 -8 60 -26 26 18 40 58 17 13 -7 29 -7 44 -2 23 9 23 10 6 29 -14
16 -15 20 -4 20 8 0 20 -5 27 -12 9 -9 12 -7 12 10 0 12 9 31 20 42 15 15 18
25 12 37 -5 9 -7 24 -5 33 3 10 0 21 -6 25 -8 4 -6 11 4 21 20 20 19 44 -1 44
-12 0 -15 -6 -11 -21 5 -19 2 -21 -22 -16 -16 3 -33 1 -39 -5 -7 -7 -21 -13
-33 -15 -17 -3 -19 1 -13 19 6 20 5 21 -10 9 -23 -19 -20 -3 7 36 12 18 31 33
42 34 18 0 18 1 -2 9 -29 12 -29 18 2 42 31 24 34 58 5 58 -13 0 -20 -7 -20
-19 0 -20 -17 -37 -26 -28 -12 11 10 57 29 63 47 14 87 37 87 50 0 8 -5 14
-11 14 -8 0 -8 4 0 14 14 17 -3 61 -20 51 -5 -4 -7 -10 -4 -15 3 -4 -1 -10 -9
-13 -8 -3 -16 -16 -18 -29 -2 -17 -9 -23 -25 -22 -13 0 -23 -3 -23 -8 0 -4 -9
-8 -20 -8 -13 0 -20 7 -20 20 0 23 -10 26 -28 8 -17 -17 -45 21 -30 39 7 9 7
13 -1 13 -6 0 -11 11 -11 24 0 14 -4 28 -10 31 -14 9 -12 53 2 57 7 3 -6 16
-29 31 -45 29 -62 71 -43 107 8 16 17 19 37 14 19 -5 30 -2 39 10 15 22 29 4
16 -21 -5 -10 -7 -43 -5 -75 5 -50 8 -57 30 -61 18 -3 23 -1 19 10 -3 8 -6 16
-6 19 0 2 -8 1 -17 -2 -13 -4 -14 -3 -5 3 7 5 10 17 6 26 -3 10 -2 23 3 30 12
14 11 57 0 75 -5 8 1 24 17 43 14 17 26 34 26 39 0 5 9 12 21 15 15 5 17 10 9
20 -14 16 -49 8 -74 -18 -19 -20 -20 -20 -36 0 -13 17 -18 18 -29 6 -17 -19
-20 -14 -14 20 6 31 15 34 38 11 11 -11 19 -13 28 -6 7 5 19 12 27 15 8 2 3 3
-12 1 -21 -3 -26 0 -21 12 5 12 -1 15 -28 12 -28 -2 -37 -10 -52 -40 -10 -22
-24 -38 -34 -38 -15 0 -14 2 3 15 15 12 16 16 6 23 -11 8 -11 10 2 15 9 4 16
13 16 21 0 11 -8 12 -34 6 -47 -10 -54 -16 -51 -43 4 -37 27 -66 55 -69 35 -4
38 -40 6 -79 -14 -17 -26 -37 -26 -46 0 -13 -3 -13 -15 -3 -14 12 -14 15 1 31
16 18 15 19 -24 17 -31 -1 -39 -4 -34 -16 4 -11 1 -14 -10 -9 -22 8 -52 -27
-44 -50 6 -15 8 -15 16 -3 7 11 10 6 10 -17 0 -37 -15 -44 -23 -12 -3 12 -10
18 -16 14 -12 -7 -32 34 -24 48 2 4 -9 21 -26 37 -18 18 -33 47 -38 72 -7 36
-12 41 -36 42 -19 1 -29 -4 -33 -18 -6 -18 -7 -18 -20 5 -10 18 -13 20 -14 7
0 -10 -7 -18 -15 -18 -18 0 -20 -37 -2 -43 9 -3 9 -7 -2 -20 -10 -13 -10 -17
-1 -17 10 0 10 -3 0 -15 -7 -8 -21 -15 -31 -15 -10 0 -21 -4 -24 -10 -7 -12
-45 -13 -45 -2 0 5 -10 8 -22 8 -14 -1 -23 5 -23 14 0 8 -6 20 -13 25 -19 16
14 75 50 89 36 13 31 32 -9 29 -24 -1 -32 3 -37 20 -10 36 -7 55 10 72 9 9 14
19 10 22 -7 7 -45 -37 -46 -53 0 -18 -30 -26 -30 -9 0 8 -4 15 -10 15 -5 0
-10 -7 -10 -16 0 -8 -5 -24 -11 -36 -11 -20 -11 -20 -26 1 -9 14 -12 32 -8 50
4 19 1 32 -10 41 -10 8 -15 9 -15 1 0 -6 -4 -11 -10 -11 -5 0 -10 7 -10 15 0
19 -14 19 -30 0 -10 -13 -15 -12 -32 8 l-19 22 17 -32z m104 -164 c0 7 5 9 10
6 6 -3 10 -22 10 -40 0 -24 6 -38 20 -45 38 -20 24 -45 -23 -41 -9 1 -29 -12
-43 -29 -15 -17 -29 -29 -32 -26 -3 3 1 13 9 22 13 16 12 16 -8 5 -24 -12 -31
-3 -12 16 8 8 6 11 -7 10 -41 -4 -29 68 19 113 29 27 33 29 45 13 7 -10 12
-12 12 -4z m393 -99 c7 0 25 -13 40 -30 21 -22 24 -30 13 -30 -8 0 -21 -10
-27 -22 -6 -13 -20 -32 -30 -44 -19 -20 -18 -21 14 -56 38 -42 42 -73 9 -72
-13 0 -22 -5 -22 -13 0 -12 -3 -12 -15 1 -8 8 -15 19 -15 25 0 5 -8 15 -17 20
-17 10 -16 10 2 11 11 1 14 4 8 7 -7 2 -13 13 -13 23 0 10 -5 22 -11 25 -6 4
-8 14 -5 22 4 11 2 13 -9 9 -11 -4 -15 1 -15 19 0 17 9 29 31 41 23 11 28 19
20 27 -16 16 -14 47 4 47 8 0 16 10 16 23 2 18 3 17 6 -5 2 -16 10 -28 16 -28z
m-377 -272 c9 -18 18 -34 19 -36 1 -1 15 4 31 12 37 20 47 5 28 -40 -13 -32
-4 -48 12 -23 4 8 12 2 21 -16 12 -21 12 -29 3 -35 -14 -9 -8 -15 64 -66 39
-27 45 -34 28 -34 -15 0 -22 -6 -22 -20 0 -11 -4 -20 -10 -20 -5 0 -10 5 -10
10 0 6 -15 10 -32 10 -18 0 -48 9 -65 20 -18 11 -39 17 -48 14 -8 -4 -15 -1
-15 6 0 6 -4 8 -10 5 -5 -3 -20 3 -32 15 -28 25 -33 80 -11 97 15 12 15 14 0
31 -23 25 -21 35 4 29 19 -5 21 -2 17 34 -4 47 6 50 28 7z m-126 -34 c0 -3 -4
-13 -9 -23 -6 -10 -7 -27 -4 -39 4 -18 9 -20 24 -11 23 12 21 13 24 -33 2 -36
0 -38 -29 -38 -36 0 -49 -7 -64 -35 -6 -11 -20 -21 -31 -22 -20 -2 -25 9 -23
47 0 8 -5 18 -11 23 -9 7 -9 10 0 13 7 3 9 12 6 20 -3 8 0 14 6 14 7 0 11 8 9
18 -2 11 3 16 13 14 11 -1 19 7 23 22 4 16 11 23 20 20 8 -3 17 -1 21 5 6 11
25 15 25 5z"/>
<path d="M4086 3723 c-31 -36 -36 -47 -25 -54 30 -20 130 -79 134 -79 3 0 59
-34 126 -75 66 -41 123 -75 125 -75 7 0 114 -81 135 -101 9 -9 41 -35 72 -57
30 -23 79 -66 108 -98 81 -84 96 -98 192 -169 l89 -65 -46 85 c-25 47 -46 88
-46 91 0 3 16 3 35 0 19 -4 35 -5 35 -2 0 6 -200 152 -305 223 -107 71 -266
166 -425 252 -202 111 -202 111 -190 126 6 8 21 15 32 17 18 2 19 5 7 15 -11
9 -22 2 -53 -34z"/>
<path d="M3260 3118 c-13 -18 -55 -77 -93 -132 l-68 -101 28 -23 28 -22 19 22
c10 13 24 31 31 41 11 15 17 17 34 8 17 -9 21 -9 21 3 0 7 7 16 15 20 18 7 45
-3 45 -16 0 -6 -6 -8 -13 -5 -6 2 -18 -2 -25 -9 -10 -11 -8 -15 7 -24 79 -42
189 51 161 136 -13 37 -62 84 -120 114 -22 11 -41 20 -42 19 -2 0 -14 -14 -28
-31z"/>
<path d="M3515 2934 c-82 -28 -132 -110 -119 -196 22 -142 214 -202 292 -91
24 35 62 120 62 141 0 8 -11 35 -25 59 -41 70 -141 111 -210 87z m213 -142 c2
-28 -1 -42 -9 -42 -7 0 -10 -3 -6 -6 11 -11 -15 -64 -31 -64 -14 0 -14 -2 -3
-9 19 -12 -29 -44 -55 -35 -18 5 -18 5 0 -10 11 -9 16 -16 10 -17 -5 0 -27 -2
-49 -4 -27 -3 -55 2 -85 16 -62 29 -75 40 -58 50 10 7 9 9 -4 9 -21 0 -24 16
-5 23 6 2 22 -7 34 -20 12 -12 27 -23 34 -23 6 0 -3 14 -21 30 -27 25 -31 35
-25 58 11 48 40 86 78 107 l37 20 37 -20 c65 -35 69 -95 12 -160 -25 -28 -39
-35 -68 -36 -34 0 -35 -1 -13 -11 19 -9 29 -8 55 7 18 10 37 24 42 30 20 21
45 74 45 95 0 30 -31 80 -50 80 -12 0 -12 2 -2 9 9 5 29 0 55 -14 38 -19 42
-26 45 -63z"/>
<path d="M3794 2712 c-65 -96 -124 -197 -124 -209 0 -9 59 -47 64 -41 2 1 14
23 26 48 28 57 27 55 45 40 10 -9 15 -31 15 -75 0 -57 3 -66 26 -84 15 -12 31
-21 35 -21 5 0 9 36 9 80 0 79 0 80 26 80 38 0 64 18 80 55 25 60 19 84 -33
133 -36 33 -102 74 -117 72 0 0 -24 -35 -52 -78z"/>
<path d="M4051 2608 c-13 -20 -11 -24 19 -50 l33 -27 -33 -53 c-51 -80 -90
-152 -90 -165 0 -6 13 -21 28 -32 l28 -20 51 77 c28 42 59 94 69 114 l18 38
41 -24 c41 -25 41 -25 54 -4 7 11 9 24 4 29 -24 23 -188 139 -197 139 -6 0
-17 -10 -25 -22z"/>
<path d="M4306 2428 c-27 -36 -156 -245 -156 -253 0 -3 6 -5 14 -5 7 0 19 -7
26 -15 7 -8 15 -15 19 -15 3 0 21 27 39 60 19 33 37 60 41 60 4 0 26 -13 49
-30 l41 -30 16 22 c22 33 19 41 -30 70 -45 28 -45 28 -29 53 16 25 18 25 42 9
14 -9 41 -26 60 -37 l35 -21 18 23 c11 13 16 28 13 33 -8 12 -154 108 -165
108 -4 0 -19 -15 -33 -32z"/>
<path d="M4545 2272 c-42 -10 -103 -61 -119 -102 -50 -125 34 -250 168 -250
57 0 106 40 142 114 30 61 31 108 3 153 -32 51 -138 98 -194 85z m68 -29 c-3
-6 -12 -14 -21 -16 -10 -3 -5 -5 11 -6 15 0 27 -5 27 -10 0 -13 -52 -1 -75 18
-12 9 -15 10 -7 1 18 -21 15 -32 -9 -25 -15 5 -19 4 -15 -4 4 -6 0 -11 -8 -11
-9 0 -16 -4 -16 -10 0 -5 -8 -10 -17 -10 -15 0 -16 -2 -3 -10 13 -8 12 -10 -3
-10 -10 0 -16 -4 -12 -9 3 -5 1 -12 -4 -15 -8 -5 -9 -43 -2 -81 3 -20 27 -42
51 -50 23 -6 22 -4 -9 22 -31 27 -33 32 -27 68 9 44 59 100 99 110 56 15 118
-49 104 -107 -10 -40 -76 -98 -111 -98 -26 -1 -28 -2 -13 -11 22 -13 51 -4 80
24 33 31 65 89 62 109 -5 30 -29 77 -41 80 -6 2 -3 11 8 23 16 17 18 17 13 2
-6 -13 1 -20 24 -30 17 -7 28 -16 24 -20 -3 -4 1 -7 11 -7 13 0 16 -7 12 -32
-10 -70 -28 -118 -46 -118 -5 0 -7 -6 -4 -14 7 -18 -29 -38 -53 -29 -16 6 -16
5 -4 -10 7 -9 12 -17 10 -17 -65 -9 -99 -8 -93 2 4 7 3 8 -4 4 -11 -6 -62 14
-90 37 -11 8 -11 12 0 18 10 6 8 9 -6 9 -12 0 -16 5 -12 15 3 8 1 15 -5 15 -7
0 -9 12 -7 30 3 17 1 30 -4 30 -5 0 -6 5 -3 11 4 5 8 22 10 37 1 14 8 28 14
30 6 2 9 8 5 13 -3 5 2 9 10 9 9 0 15 4 14 10 -2 5 11 18 27 29 34 22 116 25
108 4z"/>
<path d="M4787 2003 c-104 -165 -104 -165 -82 -178 10 -5 47 -30 83 -54 51
-34 66 -40 74 -30 28 43 28 44 -28 74 -30 16 -54 34 -54 40 0 17 79 156 112
197 17 22 29 40 27 42 -7 6 -48 26 -53 26 -2 0 -38 -53 -79 -117z"/>
<path d="M5025 1914 c-22 -36 -61 -99 -87 -139 -27 -41 -48 -78 -48 -83 0 -10
48 -38 53 -31 2 2 19 27 37 54 19 28 50 70 68 95 19 25 44 65 56 88 l21 44
-24 19 c-13 10 -26 19 -30 19 -3 0 -24 -30 -46 -66z"/>
<path d="M1424 1872 c-58 -55 -214 -253 -214 -273 0 -5 -33 -45 -73 -88 -74
-79 -131 -151 -109 -137 28 17 8 -13 -35 -55 -70 -66 -166 -187 -158 -199 3
-5 -1 -13 -9 -16 -9 -3 -16 -13 -16 -22 0 -8 3 -12 6 -9 4 3 16 1 28 -5 18
-10 19 -9 8 4 -11 13 -5 26 40 85 29 38 87 114 128 168 41 54 120 155 175 224
123 155 297 381 293 381 -2 0 -30 -26 -64 -58z"/>
<path d="M5155 1833 c-77 -40 -112 -112 -96 -197 22 -121 173 -183 262 -109
43 37 92 138 85 176 -11 56 -46 98 -103 123 -62 28 -106 30 -148 7z m195 -71
c31 -15 35 -22 38 -60 2 -26 -1 -42 -8 -42 -6 0 -9 -4 -5 -9 7 -12 -15 -61
-28 -61 -5 0 -7 -7 -4 -15 8 -19 -13 -31 -24 -14 -7 11 -9 10 -9 -5 0 -12 -5
-16 -15 -12 -8 3 -15 1 -15 -4 0 -6 5 -10 11 -10 5 0 7 -5 3 -11 -3 -6 -15 -8
-27 -5 -11 3 -28 1 -37 -4 -12 -6 -31 -2 -61 12 -61 29 -83 49 -67 60 10 6 8
8 -4 8 -10 0 -18 5 -18 10 0 17 28 11 42 -8 7 -10 26 -22 41 -26 15 -3 26 -10
23 -14 -2 -4 11 -6 29 -4 37 4 81 40 108 89 20 36 20 103 0 103 -7 0 -13 6
-13 14 0 8 -8 17 -17 19 -15 4 -15 5 2 5 11 1 36 -7 55 -16z m-66 -7 c38 -25
51 -67 32 -102 -19 -38 -81 -93 -104 -93 -24 0 -79 35 -91 58 -27 50 47 152
110 152 16 0 40 -7 53 -15z"/>
<path d="M647 1694 c-3 -3 -3 -13 0 -22 5 -11 2 -14 -10 -9 -22 8 -41 -26 -33
-59 8 -32 49 -58 81 -50 61 15 88 99 43 130 -22 16 -69 21 -81 10z"/>
<path d="M449 1431 c-52 -52 -32 -105 50 -133 49 -16 57 -17 78 -3 25 17 31
34 11 31 -7 0 -13 4 -13 9 0 6 8 9 18 8 22 -3 22 0 -9 53 -42 72 -86 83 -135
35z"/>
<path d="M699 932 c-52 -70 -151 -200 -220 -290 -68 -90 -154 -206 -191 -259
-36 -52 -75 -105 -86 -116 -10 -12 -30 -42 -43 -65 -23 -43 -24 -44 -4 -58 19
-14 27 -8 129 96 60 60 114 110 119 110 14 0 258 248 285 290 21 32 20 31 -10
-5 -55 -67 -112 -119 -116 -106 -2 6 -9 8 -14 5 -18 -11 -2 11 120 174 63 83
120 152 128 152 7 0 20 13 29 30 18 35 19 54 3 44 -7 -4 2 8 20 26 32 34 40
50 22 50 -12 0 -227 -279 -220 -286 3 -3 -2 -10 -12 -15 -16 -9 -103 -117
-163 -204 -28 -41 -62 -82 -165 -199 -25 -29 -56 -66 -70 -82 -34 -41 -46 -47
-47 -22 -1 11 1 18 3 15 3 -3 19 9 35 28 29 33 38 52 19 40 -22 -14 63 110
185 270 72 94 182 238 244 320 134 176 129 170 137 162 3 -3 -27 -50 -67 -104
-41 -53 -80 -107 -88 -118 -36 -52 23 17 97 114 72 94 79 106 64 118 -9 7 -19
12 -22 12 -3 0 -48 -57 -101 -127z"/>
</g>
</svg>
