<?xml version="1.0" standalone="no"?>
<!DOCTYPE svg PUBLIC "-//W3C//DTD SVG 20010904//EN"
 "http://www.w3.org/TR/2001/REC-SVG-20010904/DTD/svg10.dtd">
<svg version="1.0" xmlns="http://www.w3.org/2000/svg"
 width="512.000000pt" height="512.000000pt" viewBox="0 0 512.000000 512.000000"
 preserveAspectRatio="xMidYMid meet">
<metadata>
Created by potrace 1.16, written by Peter Selinger 2001-2019
</metadata>
<g transform="translate(0.000000,512.000000) scale(0.100000,-0.100000)"
fill="#000000" stroke="none">
<path d="M303 5052 c-86 -74 -272 -269 -286 -299 -33 -73 41 -14 241 191 78
80 142 151 142 156 0 23 -34 6 -97 -48z"/>
<path d="M503 5051 c-104 -90 -480 -475 -488 -500 -12 -37 2 -35 52 7 72 60
533 529 533 541 0 24 -33 8 -97 -48z"/>
<path d="M703 5051 c-112 -97 -680 -674 -687 -699 -23 -71 24 -29 442 391 188
189 342 349 342 356 0 24 -32 8 -97 -48z"/>
<path d="M903 5051 c-116 -100 -880 -875 -888 -899 -22 -72 19 -35 543 491
243 244 442 449 442 455 0 25 -32 10 -97 -47z"/>
<path d="M1103 5051 c-118 -102 -1080 -1075 -1088 -1099 -11 -38 2 -37 52 6
79 66 1133 1127 1133 1140 0 25 -32 10 -97 -47z"/>
<path d="M1303 5051 c-119 -104 -1280 -1275 -1288 -1299 -11 -38 2 -37 52 6
80 67 1333 1327 1333 1340 0 25 -32 10 -97 -47z"/>
<path d="M1503 5051 c-121 -105 -1480 -1475 -1488 -1499 -11 -38 2 -37 52 6
81 68 1533 1527 1533 1540 0 25 -32 10 -97 -47z"/>
<path d="M1703 5051 c-121 -105 -1680 -1675 -1688 -1699 -11 -38 2 -37 52 6
81 68 1733 1727 1733 1740 0 25 -32 10 -97 -47z"/>
<path d="M1903 5051 c-122 -106 -1881 -1875 -1888 -1899 -11 -38 2 -37 52 6
82 69 1933 1927 1933 1940 0 25 -32 10 -97 -47z"/>
<path d="M2133 5078 c-60 -50 -1999 -1986 -2064 -2061 -56 -65 -72 -97 -48
-97 7 0 183 170 392 378 290 288 401 405 470 497 116 153 289 326 442 442 92
69 209 180 498 470 207 209 377 385 377 392 0 20 -29 12 -67 -21z"/>
<path d="M2303 5051 c-81 -70 -591 -581 -581 -581 4 0 31 11 60 24 43 19 104
75 336 309 155 156 282 290 282 296 0 24 -33 8 -97 -48z"/>
<path d="M2503 5051 c-38 -33 -162 -154 -277 -269 l-209 -210 47 11 c42 9 66
30 291 258 135 136 245 252 245 258 0 24 -33 8 -97 -48z"/>
<path d="M2703 5051 c-38 -33 -151 -143 -253 -245 -182 -184 -184 -185 -145
-180 36 5 62 28 268 234 125 126 227 233 227 239 0 24 -33 8 -97 -48z"/>
<path d="M2903 5051 c-38 -33 -147 -138 -243 -235 -175 -176 -175 -176 -139
-176 33 0 51 15 257 224 122 124 222 229 222 235 0 24 -33 8 -97 -48z"/>
<path d="M3103 5051 c-38 -33 -146 -138 -242 -234 -168 -170 -172 -174 -145
-180 27 -6 45 10 257 222 125 126 227 234 227 240 0 24 -33 8 -97 -48z"/>
<path d="M3303 5051 c-38 -33 -151 -142 -252 -244 -180 -181 -183 -184 -155
-191 27 -7 42 6 266 232 131 132 238 245 238 251 0 24 -33 8 -97 -48z"/>
<path d="M3533 5078 c-76 -64 -492 -482 -487 -490 20 -31 59 1 302 246 139
140 252 259 252 265 0 20 -29 11 -67 -21z"/>
<path d="M3703 5051 c-38 -33 -169 -160 -292 -284 -218 -219 -222 -224 -195
-231 27 -7 44 8 306 272 153 154 278 285 278 291 0 24 -33 8 -97 -48z"/>
<path d="M3903 5051 c-38 -33 -180 -171 -316 -308 -240 -241 -247 -250 -224
-260 24 -11 40 4 331 297 168 169 306 313 306 319 0 24 -33 8 -97 -48z"/>
<path d="M4103 5051 c-38 -33 -193 -185 -347 -339 -269 -270 -278 -280 -256
-292 22 -12 40 4 362 327 186 187 338 345 338 352 0 24 -33 8 -97 -48z"/>
<path d="M4333 5078 c-21 -17 -192 -185 -380 -372 -264 -262 -340 -343 -331
-353 6 -7 16 -13 22 -13 15 0 756 743 756 759 0 20 -29 12 -67 -21z"/>
<path d="M4503 5051 c-38 -33 -227 -219 -422 -414 -340 -341 -353 -355 -331
-367 22 -12 43 8 437 402 227 228 413 420 413 426 0 25 -32 9 -97 -47z"/>
<path d="M4703 5051 c-38 -33 -246 -238 -463 -456 -377 -378 -394 -397 -375
-411 19 -14 43 8 477 444 252 252 458 464 458 470 0 25 -32 10 -97 -47z"/>
<path d="M4903 5051 c-38 -33 -266 -258 -508 -500 -420 -421 -439 -441 -422
-458 17 -17 40 4 522 488 278 278 505 511 505 517 0 25 -32 10 -97 -47z"/>
<path d="M4576 4530 c-498 -496 -520 -520 -503 -537 17 -17 38 3 473 437 251
250 482 485 515 523 57 65 72 97 47 97 -6 0 -246 -234 -532 -520z"/>
<path d="M4624 4378 c-453 -451 -473 -473 -457 -490 16 -18 34 -2 426 389 225
224 435 438 468 476 57 65 72 97 47 97 -6 0 -224 -212 -484 -472z"/>
<path d="M4666 4220 c-412 -410 -430 -430 -413 -447 17 -17 33 -2 383 347 201
201 392 395 425 433 57 65 72 97 47 97 -6 0 -205 -193 -442 -430z"/>
<path d="M4708 4063 c-369 -368 -388 -389 -374 -408 14 -19 30 -5 341 305 410
407 483 490 433 490 -6 0 -186 -174 -400 -387z"/>
<path d="M4749 3903 c-192 -191 -349 -352 -349 -357 0 -6 5 -18 10 -26 8 -12
69 44 301 275 372 371 446 455 398 455 -7 0 -169 -156 -360 -347z"/>
<path d="M1636 4123 c-45 -12 -96 -57 -121 -106 -24 -48 -25 -60 -25 -209 l0
-158 -237 0 c-218 0 -242 -2 -283 -21 -55 -25 -105 -71 -133 -124 -21 -38 -22
-54 -25 -365 -2 -228 0 -337 8 -365 28 -93 109 -167 206 -187 l44 -10 0 -121
c0 -67 4 -127 8 -133 13 -20 47 -32 67 -24 11 5 81 69 155 144 108 109 140
136 162 136 l28 0 2 -729 3 -729 30 -43 c17 -23 50 -53 74 -66 l44 -23 917 0
917 0 44 23 c24 13 58 43 74 66 l30 43 3 334 c3 334 3 334 24 334 14 0 71 -49
169 -145 153 -151 172 -162 209 -125 18 18 20 33 20 144 l0 124 44 6 c87 13
183 100 207 188 6 25 9 160 7 366 l-3 327 -27 47 c-16 25 -45 60 -65 77 -66
55 -102 61 -355 61 l-228 0 0 553 c0 517 -2 555 -19 592 -24 53 -55 83 -105
106 -39 18 -83 19 -946 18 -498 -1 -914 -4 -924 -6z m466 -215 c120 -214 198
-258 458 -258 261 0 338 43 459 259 l64 114 135 -7 c74 -3 159 -6 189 -6 44 0
58 -5 78 -25 l25 -24 0 -551 0 -550 -124 0 -124 0 -7 28 c-19 79 -133 236
-223 307 -77 62 -222 132 -307 150 -121 25 -283 17 -411 -20 -20 -6 -22 -2
-28 61 -9 83 -32 140 -78 186 -70 69 -85 73 -355 76 l-243 3 0 152 c0 170 6
189 63 206 18 5 107 10 199 10 l166 1 64 -112z m804 40 c-50 -89 -81 -125
-129 -151 -39 -20 -55 -22 -217 -22 -162 0 -178 2 -217 22 -48 26 -79 62 -129
151 l-35 62 381 0 381 0 -35 -62z m-810 -434 c58 -43 69 -68 72 -167 l4 -92
-57 -39 c-141 -98 -265 -297 -290 -468 l-7 -48 -211 0 -212 0 -102 -102 -103
-103 0 76 c0 62 -4 81 -21 103 -18 23 -28 26 -77 26 -67 0 -112 23 -142 72
-19 31 -20 51 -20 348 0 290 2 317 19 343 23 35 55 58 95 68 17 4 255 7 528 6
485 -2 497 -2 524 -23z m634 -290 c217 -64 400 -257 445 -470 45 -212 -18
-427 -170 -579 -128 -128 -265 -185 -445 -185 -180 0 -317 57 -445 185 -152
152 -215 367 -170 579 50 236 265 442 506 485 71 13 210 6 279 -15z m1388
-504 c18 -11 41 -34 52 -52 19 -32 20 -47 18 -355 l-3 -323 -37 -36 c-33 -34
-43 -37 -108 -43 -97 -9 -110 -25 -110 -129 l0 -76 -104 102 -103 102 -332 0
c-353 0 -362 1 -406 50 l-20 22 50 41 c201 166 307 399 291 635 l-6 82 392 0
c375 0 395 -1 426 -20z m-2304 -156 c3 -9 6 -28 6 -43 0 -48 40 -174 81 -252
94 -181 269 -321 469 -376 98 -26 301 -23 395 6 39 12 77 24 85 27 9 2 25 -10
40 -30 14 -19 39 -44 57 -56 65 -45 96 -49 336 -50 l227 0 0 -130 0 -130 -950
0 -950 0 0 525 0 525 99 0 c81 0 100 -3 105 -16z m1696 -1275 c0 -120 0 -121
-29 -150 l-29 -29 -894 0 c-686 1 -897 3 -909 13 -32 24 -39 56 -39 171 l0
116 950 0 950 0 0 -121z"/>
<path d="M2470 3139 c-97 -44 -132 -103 -138 -236 l-4 -92 -34 -11 c-18 -6
-45 -25 -59 -41 l-25 -31 0 -262 c0 -364 -18 -346 350 -346 262 0 288 4 328
55 21 27 22 36 22 288 l0 260 -25 33 c-14 18 -41 38 -60 44 l-35 12 0 73 c0
87 -26 168 -68 208 -67 64 -170 83 -252 46z m166 -133 c33 -33 34 -36 34 -115
l0 -81 -110 0 -110 0 0 81 c0 79 1 82 34 115 28 28 42 34 76 34 34 0 48 -6 76
-34z m159 -541 l0 -220 -235 0 -235 0 -3 210 c-1 115 0 215 3 222 3 11 54 13
237 11 l233 -3 0 -220z"/>
<path d="M2509 2571 c-33 -34 -36 -51 -12 -92 16 -27 16 -32 0 -80 -9 -29 -14
-56 -11 -61 3 -4 36 -8 74 -8 38 0 71 4 74 8 3 5 -2 32 -11 61 -16 48 -16 53
0 80 9 16 17 37 17 46 0 24 -55 75 -80 75 -12 0 -35 -13 -51 -29z"/>
<path d="M4777 3732 c-304 -303 -319 -320 -307 -342 12 -22 21 -14 272 236
340 339 414 424 367 424 -7 0 -156 -143 -332 -318z"/>
<path d="M4808 3562 c-273 -271 -289 -289 -282 -316 7 -27 13 -22 241 205 314
313 388 399 342 399 -6 0 -142 -129 -301 -288z"/>
<path d="M4832 3387 c-250 -249 -265 -265 -258 -292 7 -28 12 -24 218 181 288
287 362 374 317 374 -6 0 -131 -119 -277 -263z"/>
<path d="M4854 3208 c-228 -226 -244 -244 -244 -277 0 -36 1 -35 196 159 273
272 347 360 303 360 -6 0 -121 -109 -255 -242z"/>
<path d="M359 3112 c-157 -158 -300 -304 -317 -325 -32 -38 -41 -67 -21 -67 6
0 140 127 296 283 236 233 290 291 310 336 13 29 22 55 20 57 -1 2 -131 -126
-288 -284z"/>
<path d="M4864 3018 c-196 -193 -234 -236 -234 -260 0 -15 3 -28 8 -28 8 0
403 397 450 453 32 38 41 67 21 67 -6 0 -116 -104 -245 -232z"/>
<path d="M309 2863 c-129 -131 -250 -255 -267 -276 -32 -38 -41 -67 -21 -67 6
0 122 110 258 245 225 223 249 249 258 290 6 25 10 45 9 45 -1 0 -107 -107
-237 -237z"/>
<path d="M4869 2823 c-214 -211 -229 -229 -229 -262 0 -36 0 -35 181 144 257
256 332 345 288 345 -6 0 -114 -102 -240 -227z"/>
<path d="M284 2637 c-116 -117 -225 -229 -242 -250 -32 -38 -41 -67 -21 -67 6
0 113 102 239 226 202 199 228 230 233 262 2 20 3 38 3 39 -1 1 -97 -93 -212
-210z"/>
<path d="M4864 2618 c-218 -216 -234 -234 -234 -267 0 -36 1 -35 186 149 263
261 337 350 293 350 -6 0 -116 -104 -245 -232z"/>
<path d="M4849 2403 c-223 -223 -249 -252 -255 -288 -6 -39 -3 -37 201 165
283 280 359 370 314 370 -6 0 -123 -111 -260 -247z"/>
<path d="M249 2403 c-205 -208 -252 -263 -235 -280 9 -9 92 67 284 260 171
171 183 186 180 216 -3 33 -6 30 -229 -196z"/>
<path d="M4815 2169 c-257 -255 -285 -285 -303 -337 l-21 -56 255 254 c335
334 410 420 363 420 -6 0 -138 -126 -294 -281z"/>
<path d="M248 2202 c-204 -207 -251 -262 -234 -279 9 -9 92 67 288 264 176
177 187 190 180 216 -7 28 -13 23 -234 -201z"/>
<path d="M259 2013 c-214 -217 -262 -273 -245 -290 9 -9 93 67 300 275 187
189 198 201 189 227 -8 26 -15 20 -244 -212z"/>
<path d="M4734 1889 c-316 -315 -370 -373 -424 -458 l-61 -96 376 375 c207
206 403 405 436 443 56 65 72 97 48 97 -7 0 -175 -162 -375 -361z"/>
<path d="M299 1852 c-124 -125 -240 -244 -257 -265 -32 -38 -41 -67 -21 -67 6
0 125 113 265 252 245 243 277 282 246 302 -5 3 -110 -97 -233 -222z"/>
<path d="M4122 1078 c-535 -535 -992 -995 -1014 -1021 -43 -50 -44 -63 -6 -52
24 7 1853 1826 1959 1948 57 65 72 97 47 97 -7 0 -450 -438 -986 -972z"/>
<path d="M299 1653 c-250 -252 -302 -313 -285 -330 9 -10 95 70 340 315 226
227 238 241 230 266 -9 26 -17 19 -285 -251z"/>
<path d="M4222 978 c-480 -480 -892 -895 -914 -921 -43 -50 -44 -63 -6 -52 24
8 1653 1626 1759 1748 57 65 72 97 47 97 -7 0 -405 -393 -886 -872z"/>
<path d="M323 1478 c-271 -274 -327 -338 -309 -355 10 -10 97 72 368 344 253
254 266 269 254 291 -12 22 -24 11 -313 -280z"/>
<path d="M4322 878 c-754 -754 -860 -863 -849 -874 3 -3 16 -3 29 1 24 8 1454
1427 1559 1548 57 65 72 97 47 97 -7 0 -360 -348 -786 -772z"/>
<path d="M379 1333 c-168 -170 -320 -325 -337 -346 -32 -38 -41 -67 -21 -67
12 0 689 669 689 680 0 3 -6 14 -12 23 -12 15 -48 -18 -319 -290z"/>
<path d="M414 1167 c-187 -188 -355 -359 -372 -380 -33 -38 -41 -67 -21 -67
16 0 759 741 759 756 0 6 -6 16 -13 22 -10 9 -91 -67 -353 -331z"/>
<path d="M4422 778 c-658 -658 -760 -763 -749 -774 3 -3 16 -3 29 1 24 8 1255
1228 1359 1348 57 65 72 97 47 97 -6 0 -315 -303 -686 -672z"/>
<path d="M454 1008 c-209 -211 -395 -400 -412 -421 -33 -38 -41 -67 -20 -67
11 0 838 819 838 830 0 3 -6 14 -12 23 -12 15 -57 -27 -394 -365z"/>
<path d="M494 848 c-231 -233 -435 -440 -452 -461 -33 -38 -41 -67 -20 -67 6
0 217 205 469 457 393 391 457 459 448 475 -5 10 -13 18 -17 18 -4 0 -196
-190 -428 -422z"/>
<path d="M4522 678 c-664 -663 -694 -695 -620 -673 24 8 1056 1030 1159 1148
57 65 72 97 47 97 -6 0 -270 -258 -586 -572z"/>
<path d="M513 668 c-270 -271 -494 -503 -498 -516 -22 -72 14 -39 564 512 403
403 463 467 452 480 -8 9 -16 16 -20 16 -4 0 -228 -222 -498 -492z"/>
<path d="M587 542 c-284 -285 -517 -524 -517 -530 0 -25 32 -10 97 47 38 33
272 264 522 514 394 395 453 458 442 471 -8 9 -16 16 -20 16 -4 0 -239 -233
-524 -518z"/>
<path d="M4623 578 c-558 -557 -594 -595 -521 -573 24 8 858 832 959 948 57
65 72 97 47 97 -6 0 -225 -213 -485 -472z"/>
<path d="M742 496 c-260 -260 -472 -478 -472 -484 0 -25 32 -10 97 47 38 33
252 243 476 468 391 392 407 410 389 426 -17 16 -39 -4 -490 -457z"/>
<path d="M897 452 c-235 -236 -427 -434 -427 -440 0 -25 32 -9 97 47 38 33
232 224 432 424 316 317 363 368 352 381 -8 9 -16 16 -20 16 -4 0 -199 -193
-434 -428z"/>
<path d="M3680 805 c-79 -52 -156 -124 -452 -423 -197 -197 -358 -364 -358
-371 0 -24 33 -8 97 48 66 58 823 812 813 810 -3 0 -48 -29 -100 -64z"/>
<path d="M4723 478 c-452 -450 -492 -495 -421 -472 25 7 661 634 759 747 56
65 72 97 48 97 -7 0 -180 -168 -386 -372z"/>
<path d="M1057 411 c-213 -213 -387 -393 -387 -400 0 -20 29 -12 67 21 55 45
743 731 743 740 0 4 -8 12 -18 17 -16 9 -74 -45 -405 -378z"/>
<path d="M1217 371 c-191 -191 -347 -353 -347 -360 0 -48 84 26 455 398 231
232 287 293 275 301 -8 5 -20 10 -26 10 -5 0 -166 -157 -357 -349z"/>
<path d="M1387 341 c-174 -175 -317 -324 -317 -330 0 -47 85 27 424 367 238
239 257 261 238 271 -11 6 -22 11 -24 11 -3 0 -147 -143 -321 -319z"/>
<path d="M4823 378 c-345 -342 -390 -394 -322 -373 25 8 468 441 560 548 56
64 72 97 48 97 -6 0 -135 -123 -286 -272z"/>
<path d="M3283 608 c-44 -17 -89 -58 -332 -303 -155 -155 -281 -288 -281 -294
0 -24 33 -8 97 48 65 56 583 572 573 570 -3 -1 -28 -10 -57 -21z"/>
<path d="M1557 311 c-158 -159 -287 -294 -287 -300 0 -20 29 -11 67 21 21 17
156 149 300 292 263 260 271 272 217 275 -6 1 -139 -129 -297 -288z"/>
<path d="M1732 286 c-144 -145 -262 -269 -262 -275 0 -20 29 -11 67 21 21 17
145 137 275 267 229 227 247 250 197 251 -8 0 -133 -119 -277 -264z"/>
<path d="M2984 523 c-23 -4 -514 -494 -514 -512 0 -45 88 30 370 313 199 200
207 212 144 199z"/>
<path d="M1912 266 c-133 -134 -242 -249 -242 -255 0 -44 88 30 360 303 194
195 195 196 159 196 -33 0 -51 -16 -277 -244z"/>
<path d="M2102 256 c-128 -129 -232 -239 -232 -245 0 -20 29 -11 67 21 56 47
453 442 453 450 0 5 -13 8 -28 8 -24 0 -67 -38 -260 -234z"/>
<path d="M2502 256 c-128 -129 -232 -239 -232 -245 0 -44 89 30 350 293 184
185 185 186 149 186 -33 0 -51 -16 -267 -234z"/>
<path d="M2297 251 c-125 -126 -227 -234 -227 -240 0 -44 89 31 345 288 179
181 180 181 144 181 -33 0 -51 -15 -262 -229z"/>
<path d="M4924 278 c-185 -182 -261 -265 -250 -275 14 -14 62 23 192 149 203
197 286 298 244 298 -6 0 -90 -78 -186 -172z"/>
</g>
</svg>
