<?xml version="1.0" standalone="no"?>
<!DOCTYPE svg PUBLIC "-//W3C//DTD SVG 20010904//EN"
 "http://www.w3.org/TR/2001/REC-SVG-20010904/DTD/svg10.dtd">
<svg version="1.0" xmlns="http://www.w3.org/2000/svg"
 width="450.000000pt" height="400.000000pt" viewBox="0 0 450.000000 400.000000"
 preserveAspectRatio="xMidYMid meet">
<metadata>
Created by potrace 1.16, written by Peter Selinger 2001-2019
</metadata>
<g transform="translate(0.000000,400.000000) scale(0.100000,-0.100000)"
fill="#000000" stroke="none">
<path d="M953 3452 c-89 -31 -152 -91 -193 -185 -20 -46 -21 -56 -20 -1296 0
-1194 1 -1252 19 -1293 33 -78 110 -149 190 -176 31 -11 1571 -17 2296 -10
239 3 240 3 291 30 66 35 117 92 143 161 20 56 21 63 21 1279 1 1272 1 1287
-41 1354 -28 46 -94 103 -148 128 l-46 21 -1230 2 c-1161 2 -1233 2 -1282 -15z
m2577 -34 c56 -33 92 -70 122 -128 l23 -45 3 -1239 c3 -1397 8 -1301 -73
-1382 -24 -23 -63 -53 -87 -66 l-43 -23 -1229 -3 c-1412 -3 -1300 -10 -1397
87 -97 97 -90 -15 -87 1397 l3 1229 30 54 c16 29 47 68 69 87 78 67 -7 63
1371 61 l1250 -2 45 -27z"/>
<path d="M948 3415 c-59 -22 -105 -62 -133 -118 l-25 -51 0 -1252 c0 -1365 -3
-1283 57 -1354 15 -18 50 -43 78 -56 l50 -24 1243 0 c1374 0 1273 -5 1352 67
86 77 80 -42 80 1368 0 1189 -1 1252 -19 1290 -22 50 -67 96 -118 121 -37 18
-83 19 -1283 21 -1038 1 -1251 -1 -1282 -12z m690 -182 c-31 -37 -38 -86 -38
-272 1 -199 13 -284 45 -307 15 -11 70 -14 257 -14 l239 0 24 25 25 24 0 246
0 247 -27 27 c-25 24 -37 27 -103 29 -132 5 -88 12 71 12 150 -1 153 -1 126
-18 -16 -10 -31 -31 -37 -52 -16 -59 -12 -369 6 -442 25 -101 17 -98 296 -98
l239 0 24 25 25 24 0 247 0 246 -34 34 -34 34 60 0 c59 0 59 0 44 -22 -24 -34
-23 -443 1 -508 31 -84 17 -80 280 -80 244 0 282 6 297 45 3 9 6 125 6 257 l0
240 -34 34 -34 34 42 0 c23 0 47 -5 54 -12 9 -9 12 -299 12 -1242 0 -1130 -1
-1231 -17 -1248 -15 -17 -67 -18 -1236 -18 -1377 0 -1257 -8 -1257 79 l1 46
25 -30 c13 -16 29 -36 35 -43 7 -9 71 -12 255 -12 l245 0 24 25 25 24 0 245 0
244 -31 26 c-17 14 -41 28 -55 31 -88 18 -88 19 -1 30 87 11 87 13 87 286 0
224 -1 238 -21 263 -11 14 -26 26 -34 26 -7 0 -18 7 -25 15 -11 13 -47 14
-244 10 -212 -5 -233 -7 -258 -25 l-28 -21 0 77 0 77 23 -34 c12 -19 34 -39
47 -44 16 -7 110 -9 263 -5 236 5 239 5 258 29 17 21 19 42 19 260 0 192 -3
241 -15 258 -16 23 -82 43 -147 44 -24 0 -52 4 -63 8 -15 6 -11 9 20 14 22 4
67 7 101 7 47 0 65 5 82 20 22 20 22 26 22 275 l0 253 -42 31 -42 31 84 0 c78
0 82 -1 68 -17z m-194 -34 c37 -9 73 -22 79 -28 12 -12 10 -438 -3 -460 -7
-14 -37 -16 -197 -16 -103 -1 -207 -4 -230 -9 -37 -7 -43 -6 -57 15 -27 42
-41 198 -28 303 18 146 28 167 87 189 102 39 215 41 349 6z m1241 -5 c100 -26
96 -13 89 -268 -4 -122 -11 -226 -15 -232 -7 -8 -57 -10 -167 -7 -86 3 -184 0
-217 -5 -80 -14 -98 -2 -113 74 -24 115 -9 338 25 392 40 65 237 87 398 46z
m542 -10 c119 -6 145 -10 159 -25 15 -16 16 -41 9 -218 -4 -113 -12 -209 -19
-222 -15 -30 -48 -38 -191 -45 -128 -6 -244 10 -291 41 -23 15 -24 20 -24 133
0 138 22 315 41 338 11 14 27 16 94 10 44 -3 144 -9 222 -12z m-1237 -11 c122
-4 159 -9 174 -22 17 -15 18 -28 12 -181 -9 -230 -14 -268 -37 -281 -34 -18
-222 -29 -314 -18 -109 12 -163 33 -172 67 -7 31 4 253 18 347 15 96 28 109
104 101 33 -4 130 -9 215 -13z m-556 -599 c113 -29 106 -12 106 -260 0 -130
-4 -223 -10 -235 -10 -18 -19 -19 -148 -13 -90 5 -167 3 -225 -6 -100 -14
-110 -10 -127 49 -28 101 -20 323 15 408 11 27 23 35 77 52 79 25 224 28 312
5z m74 -627 c11 -13 34 -188 47 -357 9 -105 4 -111 -115 -140 -149 -35 -331
-39 -375 -6 -25 18 -34 80 -41 276 -6 163 -5 176 12 191 15 13 58 20 194 29
96 6 177 14 179 16 10 10 90 3 99 -9z m-83 -597 c43 -11 84 -25 91 -31 11 -9
13 -56 11 -237 -3 -208 -5 -226 -23 -239 -10 -8 -28 -12 -39 -9 -56 14 -192
17 -288 7 -60 -7 -117 -9 -127 -6 -54 17 -66 304 -19 451 24 75 223 108 394
64z"/>
<path d="M1684 2613 c-45 -8 -66 -47 -75 -135 -12 -126 -10 -336 3 -382 22
-79 11 -76 285 -76 l244 0 24 25 25 24 0 239 c0 218 -2 242 -18 262 -18 22
-28 23 -219 31 -110 5 -211 10 -224 12 -13 2 -34 2 -45 0z m260 -55 c143 -8
202 -16 212 -26 16 -16 17 -95 5 -306 -6 -98 -13 -142 -23 -153 -20 -19 -194
-36 -291 -28 -80 7 -172 29 -194 47 -28 23 -5 425 27 463 15 18 15 18 264 3z"/>
<path d="M1846 2438 c-3 -13 -9 -72 -15 -133 -11 -119 -9 -125 42 -125 25 0
27 3 27 45 l0 45 54 0 c47 0 57 4 75 26 25 32 28 90 6 121 -16 22 -88 43 -150
43 -28 0 -36 -4 -39 -22z"/>
<path d="M2375 2615 c-5 -2 -35 -11 -66 -19 -34 -10 -60 -23 -64 -33 -21 -51
-35 -172 -35 -303 0 -124 3 -151 21 -190 11 -24 25 -48 32 -52 9 -6 6 -13 -10
-26 -12 -9 -26 -35 -32 -57 -16 -57 -13 -335 3 -430 17 -95 35 -114 105 -116
l46 -1 -38 -8 c-103 -20 -128 -84 -127 -325 0 -149 3 -177 21 -223 15 -35 28
-54 43 -58 12 -3 129 -4 260 -2 236 3 238 3 257 27 18 21 19 42 19 266 0 218
-2 243 -17 257 -33 28 -82 48 -120 48 -75 0 -66 17 12 22 124 8 120 -2 120
293 0 215 -2 246 -17 261 -23 23 -114 54 -160 54 -21 0 -38 5 -38 10 0 6 32
10 75 10 79 0 127 16 139 45 3 9 6 122 6 250 0 279 5 267 -115 283 -86 12
-303 24 -320 17z m302 -52 c104 -26 98 -9 94 -260 -1 -120 -7 -225 -12 -235
-8 -14 -26 -16 -162 -11 -97 4 -177 2 -220 -6 -45 -8 -73 -8 -86 -2 -51 28
-63 283 -21 443 9 33 18 43 54 59 92 40 222 45 353 12z m-11 -603 c43 -11 85
-27 93 -35 13 -12 15 -52 12 -232 -3 -270 3 -258 -126 -241 -70 9 -119 9 -220
-1 -126 -13 -130 -13 -146 8 -52 63 -43 417 11 466 59 53 239 70 376 35z m39
-625 c28 -10 55 -24 61 -31 14 -18 6 -443 -9 -462 -7 -9 -41 -11 -141 -6 -83
4 -165 2 -224 -6 -71 -9 -96 -9 -107 0 -51 42 -48 407 4 471 9 11 41 29 71 40
46 16 74 19 175 16 79 -3 137 -10 170 -22z"/>
<path d="M2428 2348 c-26 -68 -50 -131 -54 -140 -5 -15 0 -18 35 -18 35 0 41
3 47 25 6 23 11 25 59 25 48 0 53 -2 59 -25 6 -22 12 -25 47 -25 35 0 40 3 34
18 -4 9 -27 72 -52 140 l-46 122 -41 0 -41 0 -47 -122z"/>
<path d="M2420 1805 c0 -32 2 -35 30 -35 l30 0 0 -106 0 -105 38 3 37 3 -3
108 -4 107 31 0 c28 0 31 3 31 30 l0 30 -95 0 -95 0 0 -35z"/>
<path d="M2508 1253 c-25 -4 -30 -14 -69 -131 -23 -70 -44 -133 -47 -139 -3
-9 7 -13 32 -13 29 0 39 5 48 25 10 22 18 25 59 25 38 0 51 -4 59 -20 8 -14
21 -20 45 -20 19 0 35 4 35 9 0 23 -114 271 -124 270 -6 -1 -23 -4 -38 -6z"/>
<path d="M2893 2588 c-32 -16 -41 -50 -48 -193 -9 -194 -8 -258 6 -303 22 -73
18 -72 278 -72 241 0 279 6 295 45 3 9 6 124 6 255 l0 239 -26 20 c-25 20 -39
21 -258 20 -140 0 -240 -5 -253 -11z m312 -44 c94 -4 179 -11 189 -16 18 -10
19 -21 14 -225 -7 -263 1 -249 -148 -265 -119 -12 -272 1 -330 30 l-35 17 -3
115 c-1 63 4 164 12 224 16 127 26 141 91 132 22 -3 117 -9 210 -12z"/>
<path d="M3090 2443 c-31 -11 -71 -59 -81 -97 -31 -113 69 -216 179 -186 58
15 102 71 102 129 l0 31 -70 0 -70 0 0 -30 c0 -27 3 -30 30 -30 28 0 30 -2 20
-20 -8 -15 -21 -20 -50 -20 -34 0 -42 4 -55 30 -21 40 -19 82 6 114 26 34 70
35 96 3 17 -22 20 -22 51 -10 28 11 31 16 22 32 -21 40 -60 61 -114 60 -28 0
-58 -3 -66 -6z"/>
<path d="M2962 1999 c-46 -4 -69 -12 -87 -29 -43 -40 -50 -80 -49 -290 0 -162
3 -200 17 -227 32 -61 39 -63 277 -62 233 0 276 7 297 49 8 15 12 61 12 120
l-2 95 -9 -74 c-5 -41 -15 -89 -23 -107 -20 -49 -64 -57 -275 -52 -184 5 -221
13 -237 52 -5 11 -6 114 -3 228 6 259 -4 243 165 258 163 15 297 5 323 -24 24
-26 43 -83 52 -156 6 -48 8 -41 9 48 l1 104 -36 31 -35 32 -167 5 c-92 3 -195
2 -230 -1z"/>
<path d="M1653 1968 c-33 -16 -41 -49 -51 -238 -14 -248 8 -339 82 -340 17 -1
15 -3 -10 -14 -18 -8 -37 -28 -46 -47 -37 -81 -41 -109 -36 -304 4 -169 7
-194 24 -218 29 -40 21 -39 337 -38 186 1 188 1 212 26 14 13 25 34 25 47 -1
20 -2 21 -13 7 -26 -34 -54 -39 -224 -39 -194 1 -250 9 -275 40 -16 20 -17 40
-12 234 8 247 9 249 99 261 89 11 352 7 375 -5 12 -6 28 -26 35 -43 11 -24 14
-27 15 -12 0 11 -14 37 -31 58 -28 34 -34 37 -87 38 l-57 1 49 9 c81 13 105
27 115 68 13 51 14 441 2 474 -6 15 -20 28 -33 31 -54 11 -474 15 -495 4z
m385 -45 c71 -4 108 -11 118 -21 13 -12 14 -40 9 -166 -3 -83 -8 -179 -11
-214 -8 -86 -18 -92 -181 -99 -145 -6 -251 7 -303 38 l-33 21 6 141 c6 158 23
285 40 306 12 14 45 14 355 -6z"/>
<path d="M1830 1700 l0 -140 80 0 80 0 0 29 c0 28 -3 30 -42 33 -36 2 -44 7
-46 26 -3 20 1 22 37 22 44 0 56 10 46 40 -4 13 -17 20 -43 22 -29 2 -37 7
-37 23 0 16 8 21 43 23 39 3 42 5 42 33 l0 29 -80 0 -80 0 0 -140z"/>
<path d="M3080 1831 c-102 -54 -106 -190 -8 -252 26 -15 46 -19 89 -17 91 6
149 64 149 150 0 102 -134 171 -230 119z m125 -76 c16 -15 25 -36 25 -55 0
-38 -39 -80 -73 -80 -42 0 -77 36 -77 80 0 71 76 104 125 55z"/>
<path d="M3125 1360 c-33 -4 -96 -8 -140 -9 -81 -1 -112 -12 -142 -49 -10 -12
-13 -76 -13 -243 0 -224 0 -228 23 -255 33 -38 99 -45 337 -37 263 9 240 -19
240 296 0 260 0 258 -52 290 -29 18 -137 21 -253 7z m230 -50 c15 -16 22 -57
36 -193 23 -221 23 -243 1 -265 -12 -12 -59 -27 -123 -41 -161 -33 -329 -30
-362 7 -31 35 -51 420 -23 457 11 16 34 20 157 27 79 5 171 12 204 17 89 13
90 13 110 -9z"/>
<path d="M3150 1158 l-23 -42 -27 32 c-22 27 -34 32 -68 32 -23 0 -42 -3 -42
-6 0 -4 25 -35 55 -69 51 -58 55 -66 61 -130 l7 -67 35 6 c19 3 36 6 37 8 1 2
-1 30 -5 63 -7 57 -6 64 31 133 22 41 39 75 39 78 0 2 -17 4 -38 4 -35 0 -41
-4 -62 -42z"/>
<path d="M1868 1208 c-5 -34 -2 -38 30 -38 24 0 24 0 18 -77 -4 -43 -10 -93
-13 -110 -5 -33 -5 -33 35 -33 l39 0 9 103 9 102 33 3 c28 3 32 7 32 33 0 25
-4 29 -27 30 -16 0 -58 3 -95 7 l-66 8 -4 -28z"/>
<path d="M1180 2950 l0 -140 80 0 80 0 0 30 c0 28 -2 30 -40 30 -36 0 -40 3
-40 25 0 23 4 25 40 25 38 0 40 2 40 30 0 28 -2 30 -40 30 -36 0 -40 3 -40 25
0 23 4 25 40 25 38 0 40 2 40 30 l0 30 -80 0 -80 0 0 -140z"/>
<path d="M2430 2960 l0 -140 80 0 80 0 0 36 0 36 -42 -4 -43 -3 -3 108 -3 107
-34 0 -35 0 0 -140z"/>
<path d="M3048 2958 c-26 -68 -50 -131 -54 -140 -5 -15 0 -18 35 -18 35 0 41
3 47 25 6 23 11 25 59 25 48 0 53 -2 59 -25 6 -22 12 -25 47 -25 35 0 40 3 34
18 -4 9 -27 72 -52 140 l-46 122 -41 0 -41 0 -47 -122z"/>
<path d="M1880 3038 c0 -24 -3 -87 -7 -140 l-6 -98 41 0 42 0 0 140 0 140 -35
0 c-35 0 -35 -1 -35 -42z"/>
<path d="M1160 2415 c0 -32 2 -35 30 -35 l30 0 0 -106 0 -105 38 3 37 3 -3
108 -4 107 31 0 c28 0 31 3 31 30 l0 30 -95 0 -95 0 0 -35z"/>
<path d="M1170 1700 l0 -140 39 0 40 0 3 48 3 47 28 -47 c28 -46 31 -48 73
-48 24 0 44 3 44 6 0 3 -16 25 -35 48 -19 24 -35 46 -35 49 0 3 11 17 25 31
25 25 32 66 19 101 -11 28 -60 45 -134 45 l-70 0 0 -140z"/>
<path d="M1160 1099 l0 -140 38 3 37 3 -3 51 -4 52 49 4 c26 3 51 3 56 1 4 -2
7 -29 7 -59 l0 -54 35 0 35 0 0 140 0 140 -40 0 -40 0 0 -55 0 -55 -50 0 -50
0 0 55 0 55 -35 0 -35 0 0 -141z"/>
</g>
</svg>
