<?xml version="1.0" standalone="no"?>
<!DOCTYPE svg PUBLIC "-//W3C//DTD SVG 20010904//EN"
 "http://www.w3.org/TR/2001/REC-SVG-20010904/DTD/svg10.dtd">
<svg version="1.0" xmlns="http://www.w3.org/2000/svg"
 width="820.000000pt" height="1024.000000pt" viewBox="0 0 820.000000 1024.000000"
 preserveAspectRatio="xMidYMid meet">
<metadata>
Created by potrace 1.16, written by Peter Selinger 2001-2019
</metadata>
<g transform="translate(0.000000,1024.000000) scale(0.100000,-0.100000)"
fill="#000000" stroke="none">
<path d="M2253 8501 c58 -65 69 -99 39 -119 -18 -12 -19 -17 -9 -38 8 -18 16
-24 30 -20 13 3 30 -5 48 -24 41 -41 37 -55 -16 -57 -31 -1 -45 2 -44 10 3 26
-2 37 -16 37 -9 0 -32 7 -53 17 -20 9 -41 15 -46 14 -4 -1 -14 3 -21 9 -14 12
-95 11 -95 -1 0 -4 14 -17 30 -29 39 -28 70 -89 70 -136 0 -21 3 -34 6 -31 4
3 18 -3 32 -13 31 -25 36 -21 22 14 -5 15 -10 33 -10 40 0 20 37 59 45 46 3
-5 19 -10 35 -10 25 0 32 -7 54 -53 29 -59 40 -154 17 -149 -7 1 -18 -2 -25
-7 -8 -7 -16 -1 -26 22 -7 18 -18 35 -24 39 -24 17 -27 6 -7 -28 34 -57 30
-61 -49 -59 -57 1 -74 5 -93 23 -32 30 -82 44 -112 30 -21 -9 -22 -11 -6 -27
9 -9 30 -44 46 -78 17 -35 35 -63 42 -63 7 0 10 -7 7 -15 -4 -8 -12 -15 -19
-15 -6 0 -20 -9 -31 -21 l-19 -21 -6 28 c-4 16 -7 47 -8 69 -2 55 -30 87 -69
79 -25 -5 -33 -1 -51 24 -24 34 -26 49 -9 54 6 2 -15 12 -47 22 -57 18 -59 18
-106 -2 -55 -23 -58 -21 -74 43 -8 33 -15 41 -40 46 -67 14 -100 10 -135 -19
l-34 -29 47 -12 c51 -12 55 -19 90 -122 13 -39 13 -49 0 -72 -19 -37 -46 -34
-68 7 -19 34 -19 36 0 55 18 21 18 21 -21 21 -33 0 -46 -7 -87 -48 -26 -26
-54 -56 -62 -67 -8 -11 -15 -14 -15 -7 0 22 -55 13 -81 -14 -48 -51 -106 -66
-101 -25 2 19 -1 22 -15 16 -10 -4 -34 -12 -53 -17 -19 -6 -44 -17 -55 -24
-32 -22 -54 -17 -25 6 l25 20 -42 0 c-23 0 -48 7 -57 15 -16 16 -56 21 -56 6
0 -16 73 -71 94 -71 19 0 19 -1 3 -17 -16 -16 -19 -16 -52 0 -20 10 -41 15
-46 12 -5 -4 -20 5 -33 19 -39 43 -90 33 -154 -28 -24 -22 -41 -30 -61 -28
-24 3 -32 -3 -54 -40 -17 -29 -23 -52 -20 -71 3 -16 1 -27 -6 -27 -6 0 -21
-20 -32 -44 -27 -54 -20 -105 19 -140 15 -14 42 -39 60 -56 18 -16 39 -30 47
-30 10 0 15 -11 15 -35 0 -46 29 -75 74 -75 19 0 38 -4 41 -10 9 -14 58 -13
73 2 25 25 12 -41 -13 -68 -30 -32 -34 -74 -7 -74 11 0 34 7 52 16 30 16 34
15 75 -5 23 -11 57 -21 76 -21 31 0 32 -1 17 -17 -14 -13 -20 -14 -32 -3 -13
10 -16 10 -16 -1 -1 -20 -40 -63 -77 -85 -34 -19 -42 -33 -20 -35 31 -3 63 4
77 16 20 18 93 34 165 36 37 1 74 10 102 25 36 18 51 20 76 13 42 -12 47 -11
47 4 0 9 24 11 95 9 70 -3 100 0 115 11 18 12 18 16 6 26 -15 12 -11 40 6 52
5 3 23 5 39 4 29 -2 30 0 25 26 l-5 28 77 -3 c53 -3 92 -11 127 -27 42 -19 91
-28 150 -30 30 0 105 15 105 21 0 20 -84 28 -95 10 -7 -11 -25 -4 -25 9 0 8
60 31 83 31 9 0 17 6 17 14 0 17 24 28 45 20 9 -4 15 0 15 10 0 16 21 19 123
20 24 1 27 4 22 23 -3 13 -2 23 2 23 11 0 53 -63 54 -81 0 -8 4 -6 9 6 5 11 6
36 4 55 l-5 35 15 -25 c15 -24 15 -24 16 -4 0 12 7 24 15 28 20 7 49 -38 42
-65 -5 -20 -5 -20 15 -3 16 15 19 27 14 59 l-6 40 16 -29 c11 -19 14 -42 11
-70 l-6 -41 16 35 c8 19 24 43 35 54 19 18 19 18 25 -3 6 -25 7 -25 33 -9 28
18 37 2 17 -32 -10 -16 -13 -31 -9 -34 5 -3 -7 -23 -27 -44 -20 -21 -37 -35
-39 -31 -2 3 -21 2 -43 -4 -31 -8 -44 -18 -59 -47 -11 -21 -17 -40 -14 -42 9
-9 -75 -78 -89 -72 -9 3 -12 -4 -11 -23 2 -38 2 -37 20 -22 18 15 140 24 148
11 11 -18 17 -74 6 -67 -5 3 -10 1 -10 -4 0 -6 5 -11 11 -11 8 0 8 -5 -1 -15
-7 -8 -10 -25 -6 -39 4 -15 1 -26 -7 -29 -7 -3 -5 -6 6 -6 9 -1 17 -4 17 -7 0
-12 -29 -34 -45 -34 -9 0 -13 -4 -10 -10 3 -5 -7 -15 -22 -22 -15 -6 -56 -24
-89 -40 -34 -15 -77 -28 -95 -28 -19 -1 -53 -5 -76 -9 -23 -4 -63 -4 -90 0
-26 5 -60 11 -75 13 -16 3 -28 1 -28 -4 0 -6 4 -10 10 -10 5 0 6 -8 3 -17 -7
-17 -6 -17 11 0 9 9 22 17 27 17 15 0 10 -17 -6 -24 -8 -3 -15 -13 -14 -23 0
-11 3 -13 6 -5 2 6 9 12 14 12 4 0 6 -6 3 -13 -3 -8 0 -26 5 -40 9 -24 8 -27
-9 -27 -11 0 -20 5 -20 10 0 6 -18 10 -41 10 -22 0 -38 -4 -35 -9 3 -5 14 -8
24 -6 9 1 13 0 7 -2 -5 -2 -19 -16 -29 -30 -11 -15 -14 -23 -7 -18 9 5 12 2 9
-11 -2 -12 -11 -18 -21 -16 -14 2 -16 -2 -12 -21 5 -18 0 -32 -19 -52 -23 -25
-36 -29 -118 -36 -64 -6 -95 -5 -105 2 -10 9 -13 6 -13 -13 0 -13 -6 -31 -12
-40 -17 -20 -56 -29 -65 -15 -4 7 -9 2 -13 -12 -4 -20 -15 -27 -55 -36 -61
-14 -89 -29 -109 -57 -23 -32 -20 -47 12 -59 19 -8 38 -7 66 1 37 11 41 10 57
-11 10 -13 15 -27 13 -31 -3 -4 2 -8 10 -8 9 0 16 -4 16 -10 0 -5 -5 -10 -11
-10 -8 0 -8 -4 0 -14 7 -8 11 -27 9 -43 -4 -35 -43 -55 -112 -56 -85 -2 -158
26 -234 91 -94 80 -132 107 -169 120 -44 15 -43 4 7 -82 22 -38 38 -71 35 -74
-5 -6 -13 3 -67 76 -17 23 -35 42 -40 42 -4 0 -8 -15 -8 -34 0 -27 7 -39 34
-60 19 -14 39 -26 44 -26 18 0 52 -38 52 -59 0 -27 38 -63 102 -98 26 -14 48
-29 48 -33 0 -10 69 -38 110 -45 19 -3 77 -8 128 -12 103 -7 109 -19 24 -48
-26 -9 -57 -22 -70 -29 -20 -11 -21 -14 -9 -25 19 -15 131 1 153 23 8 9 32 16
52 16 45 0 142 39 142 57 0 16 2 16 70 -2 30 -8 69 -15 85 -14 34 0 41 -4 -80
48 -69 29 -93 51 -58 51 10 0 31 18 47 40 17 22 41 42 56 45 19 4 26 12 26 28
-1 29 32 34 86 12 51 -20 62 -12 14 11 -36 18 -49 44 -21 44 8 0 15 6 15 13 0
14 84 51 102 45 27 -9 51 36 36 66 -7 14 -7 16 2 11 9 -6 9 -3 1 13 -6 11 -11
32 -11 47 0 25 2 26 38 19 20 -4 80 -24 132 -44 122 -48 140 -53 140 -42 0 11
-83 52 -145 72 -57 19 -125 63 -139 91 -14 29 1 99 21 99 7 0 13 7 13 15 0 8
6 15 14 15 8 0 16 6 19 14 3 8 20 17 37 21 27 6 40 0 103 -47 40 -29 86 -60
102 -68 17 -8 35 -16 40 -19 12 -6 -9 24 -49 67 -16 17 -35 32 -41 32 -7 0
-22 9 -35 20 -13 11 -19 20 -14 20 6 0 15 -5 22 -12 9 -9 12 -9 12 -1 0 17 41
12 72 -9 14 -10 29 -18 33 -18 8 0 118 -71 125 -82 9 -12 103 -49 109 -42 3 3
-9 18 -28 33 -38 30 -217 139 -243 147 -10 4 -18 13 -18 20 0 8 -14 17 -30 21
-29 5 -47 19 -38 29 3 2 29 8 58 14 30 6 65 18 79 28 38 25 80 42 107 42 20 0
24 5 24 28 0 15 -4 32 -10 38 -6 6 7 22 40 47 37 27 50 44 50 62 0 14 3 25 8
25 4 0 19 11 34 24 23 22 28 23 44 11 13 -10 15 -14 5 -15 -9 0 -11 -6 -6 -17
9 -22 14 -134 6 -128 -5 3 -8 -14 -11 -66 -1 -9 -12 -21 -26 -28 -29 -13 -31
-37 -4 -46 11 -3 20 -9 21 -13 0 -4 2 -15 4 -24 2 -10 -1 -18 -6 -18 -5 0 -9
-7 -9 -15 0 -8 8 -15 18 -15 10 0 23 -5 28 -10 20 -20 107 -23 139 -6 17 9 34
16 38 16 4 0 18 9 30 20 23 22 77 21 104 -1 7 -6 13 -8 13 -3 1 5 7 -5 14 -22
15 -34 10 -87 -8 -81 -6 2 -11 12 -11 23 0 26 -28 24 -40 -3 -5 -13 -17 -23
-25 -23 -13 0 -13 -1 0 -10 8 -5 27 -10 43 -10 21 0 27 -5 27 -23 0 -22 -2
-23 -62 -16 -104 12 -228 56 -228 80 0 9 -52 31 -58 24 -3 -3 0 -5 6 -5 6 0
12 -12 14 -26 2 -21 14 -30 63 -51 33 -14 67 -31 75 -38 10 -9 48 -14 109 -16
81 -2 96 1 108 16 7 11 13 14 13 8 0 -7 -5 -15 -11 -19 -8 -4 -7 -9 2 -16 11
-7 11 -11 2 -15 -18 -7 -16 -24 2 -17 8 3 14 18 13 32 0 15 5 55 11 89 7 41 8
70 1 87 -25 66 0 256 34 256 6 0 19 -25 29 -55 l18 -55 -32 -95 c-31 -93 -32
-95 -15 -138 22 -58 21 -68 -14 -107 -35 -39 -37 -51 -11 -74 16 -15 19 -15
24 -2 4 9 13 13 20 10 16 -6 21 9 32 89 8 53 23 60 47 20 13 -24 14 -33 3 -65
-13 -34 -18 -78 -16 -124 1 -11 10 -30 21 -42 28 -30 25 -58 -12 -102 -50 -59
-78 -114 -67 -131 7 -11 16 -7 44 23 19 21 35 33 35 28 0 -27 43 17 68 68 32
67 49 84 74 71 14 -8 18 -6 18 10 0 30 11 51 26 51 21 0 17 -22 -12 -73 -44
-80 -43 -194 2 -157 18 16 58 145 50 166 -3 8 1 17 10 21 23 8 44 57 44 102 0
34 4 42 35 60 23 13 35 28 35 43 0 35 18 8 24 -37 4 -22 9 -48 12 -58 5 -17
-15 -57 -44 -86 -10 -11 -16 -11 -21 -2 -15 23 -44 -3 -72 -65 -16 -35 -29
-77 -29 -93 0 -41 -36 -134 -60 -156 -11 -10 -20 -22 -20 -26 0 -5 -20 -40
-45 -78 -42 -65 -57 -111 -36 -111 13 0 51 48 86 109 22 38 38 53 58 58 35 7
54 35 65 94 9 48 51 135 52 107 0 -9 9 -23 21 -31 17 -12 19 -21 14 -51 -4
-20 -11 -39 -16 -42 -13 -7 -11 -54 2 -54 5 0 7 -4 4 -10 -4 -6 5 -10 19 -10
14 0 26 6 27 13 0 6 2 26 5 42 13 89 12 105 -4 114 -16 9 -16 12 1 38 10 15
28 49 40 76 16 33 29 49 47 53 46 10 50 13 60 39 6 15 10 60 10 101 0 71 1 74
24 74 13 0 27 8 31 17 6 16 8 15 24 -6 l18 -24 7 28 c8 31 35 57 84 81 18 9
45 29 59 44 14 16 34 27 43 25 13 -2 24 15 46 66 16 39 39 79 51 91 l22 21 -2
-29 c-1 -20 3 -29 13 -29 11 0 14 10 13 35 -2 35 -2 35 7 6 9 -29 31 -55 64
-73 14 -8 19 -23 20 -59 1 -43 5 -51 33 -69 31 -20 73 -97 73 -135 0 -10 9
-29 21 -44 11 -14 25 -41 30 -60 7 -24 16 -35 34 -38 14 -3 25 -1 25 6 1 24
40 -41 40 -66 0 -15 5 -39 11 -55 10 -26 11 -27 21 -9 8 15 12 16 19 5 7 -11
9 -11 9 -1 0 7 5 10 10 7 18 -11 11 -54 -21 -123 -27 -58 -34 -76 -38 -102 -1
-3 -11 10 -22 27 -23 36 -42 35 -35 -2 2 -12 7 -49 11 -81 12 -114 14 -123 35
-121 19 1 34 34 26 59 -2 7 -7 34 -10 59 -5 45 -4 48 35 74 21 16 42 39 45 51
4 13 12 24 19 24 20 0 33 52 46 195 9 103 18 142 39 189 l27 59 7 -49 c4 -27
9 -70 13 -96 3 -27 9 -48 13 -48 25 0 31 36 30 176 0 158 4 271 15 344 5 40 4
43 -8 28 -16 -20 -52 -24 -63 -6 -4 6 4 19 19 30 15 11 27 28 27 39 0 23 25
25 34 3 3 -9 6 -27 6 -40 0 -14 6 -27 14 -30 7 -3 12 -16 10 -31 -2 -24 39
-155 56 -178 4 -5 10 -48 13 -94 6 -96 22 -127 31 -60 3 24 6 62 5 84 0 22 1
65 2 95 1 42 -5 68 -26 110 -15 30 -34 62 -41 70 -16 19 -19 98 -7 168 12 63
20 73 38 49 13 -18 14 -18 27 2 19 30 28 26 28 -14 0 -32 14 -48 22 -25 2 6
24 7 56 3 l53 -6 -52 -48 c-66 -61 -77 -65 -85 -31 -15 70 -26 93 -42 90 -21
-4 -37 -50 -27 -74 7 -18 8 -18 18 4 15 33 25 27 38 -23 11 -42 13 -44 38 -39
14 4 34 11 45 16 12 7 21 7 25 -1 4 -7 24 -2 58 14 51 23 52 25 50 64 -1 23
-6 41 -12 41 -16 0 -39 46 -32 64 3 8 2 18 -3 21 -6 4 -10 10 -10 16 0 5 19
-11 43 -36 38 -39 49 -45 85 -45 23 0 42 4 42 8 0 16 62 44 108 48 90 10 133
11 125 3 -4 -4 -17 -9 -27 -11 -26 -4 -33 -28 -9 -28 25 0 49 20 58 47 5 18 3
22 -9 17 -18 -7 -22 11 -6 21 6 4 8 15 5 24 -3 11 3 25 15 36 16 14 22 15 35
5 12 -10 15 -10 15 4 0 9 -6 16 -12 16 -7 0 -1 8 12 17 14 10 35 16 46 15 12
-2 25 2 29 7 3 6 1 11 -4 11 -6 0 -11 6 -11 13 -1 19 -80 102 -80 83 0 -22
-27 -20 -35 3 -7 22 -45 59 -45 43 0 -6 5 -14 10 -17 6 -3 10 -12 10 -18 0 -7
-13 2 -29 19 -16 18 -39 35 -52 39 l-23 8 18 -29 c17 -28 17 -28 -14 4 -25 26
-38 32 -56 28 -14 -4 -24 -2 -24 4 0 5 5 10 11 10 7 0 17 7 24 16 10 14 15 14
34 4 20 -10 26 -9 43 9 10 12 24 19 29 15 6 -3 24 -7 40 -8 17 -1 34 -8 38
-15 6 -9 14 -9 34 0 33 15 55 6 67 -26 7 -18 17 -25 35 -25 30 0 34 20 5 27
-16 4 -17 7 -5 19 15 15 45 9 45 -10 0 -19 144 -96 180 -96 17 0 52 -12 77
-27 40 -23 49 -25 77 -15 18 7 49 12 70 12 20 0 46 5 57 11 20 10 20 11 2 24
-16 13 -15 14 20 15 26 0 37 -4 37 -15 0 -8 11 -17 25 -21 24 -6 36 -24 16
-24 -17 0 -22 -37 -10 -64 14 -31 61 -60 111 -70 46 -8 88 2 88 21 0 8 -4 11
-10 8 -18 -11 -50 15 -50 40 0 14 4 25 9 25 20 0 41 -13 41 -26 0 -7 8 -19 18
-26 10 -7 19 -23 19 -36 3 -47 44 -62 74 -26 15 18 29 18 29 0 0 -8 -16 -20
-35 -26 -41 -14 -36 -35 6 -26 43 8 37 -18 -8 -35 l-37 -15 54 -31 c30 -17 74
-54 98 -82 24 -28 47 -51 53 -51 23 0 5 55 -37 117 l-46 67 24 21 c14 11 28
28 31 37 7 21 -25 118 -51 156 -28 39 -37 105 -18 121 9 7 13 17 10 22 -3 5
-2 15 3 22 21 33 7 147 -17 132 -5 -3 -21 8 -36 25 -20 21 -33 28 -47 24 -38
-12 -49 39 -17 74 11 12 20 28 20 37 0 12 6 15 20 10 32 -10 24 1 -37 50 -43
36 -62 45 -80 40 -24 -6 -63 9 -63 25 0 16 31 39 45 34 29 -12 15 40 -26 99
-45 63 -69 73 -69 28 0 -19 -12 -42 -35 -67 -19 -21 -35 -42 -35 -46 0 -17
-17 -7 -28 17 -18 38 -16 145 2 145 8 0 23 17 34 38 15 28 25 36 42 34 20 -2
21 0 9 15 -7 10 -29 33 -48 51 -29 28 -36 31 -43 18 -5 -9 -16 -16 -24 -16 -8
0 -17 -7 -21 -16 -4 -10 -13 -14 -28 -10 -28 7 -40 -16 -24 -45 5 -11 9 -32 7
-47 -3 -25 -7 -27 -55 -30 -34 -2 -53 1 -53 8 0 6 -4 9 -9 6 -14 -9 -33 50
-26 83 8 35 48 65 76 56 17 -6 20 -3 17 15 -2 15 -15 27 -43 37 -56 21 -72 18
-106 -14 -16 -15 -42 -40 -57 -54 -15 -15 -39 -34 -53 -43 -17 -10 -29 -30
-33 -50 -4 -18 -24 -52 -49 -78 -27 -30 -47 -64 -58 -99 -17 -57 -39 -77 -39
-35 0 28 16 66 55 131 32 54 31 74 -3 86 -31 11 -55 58 -41 80 8 12 10 12 18
0 5 -7 14 -10 20 -7 6 4 11 2 11 -5 0 -8 4 -8 16 1 13 11 16 10 21 -8 3 -12
11 -22 18 -22 13 0 45 68 45 94 0 7 7 19 15 26 12 10 13 16 1 39 -19 34 -81
101 -95 101 -6 0 -11 -7 -11 -15 0 -8 -11 -22 -24 -31 -16 -10 -26 -27 -28
-46 -2 -17 -10 -34 -18 -38 -85 -40 -123 -70 -134 -106 -5 -16 1 -26 24 -44
36 -28 38 -48 6 -56 -34 -8 -66 12 -66 41 0 26 -48 85 -69 85 -6 0 -11 13 -11
29 0 34 -23 46 -113 61 -53 8 -66 6 -138 -20 -44 -16 -86 -27 -94 -24 -16 6
-39 -55 -29 -79 7 -18 -14 -31 -40 -25 -14 3 -14 6 -2 31 9 15 10 27 5 27 -6
0 -9 10 -7 23 3 22 3 22 -149 22 -84 0 -153 -3 -153 -7 0 -5 -10 -8 -22 -8
-19 0 -20 2 -8 10 17 11 -109 14 -147 4 -33 -9 -37 -33 -6 -45 20 -7 35 -5 69
12 24 11 50 19 56 16 7 -2 -4 -10 -24 -17 -21 -8 -38 -17 -38 -21 0 -4 -8 -10
-19 -14 -13 -4 -17 -12 -13 -30 5 -28 8 -29 25 -15 50 42 66 52 113 67 61 19
81 11 45 -18 -28 -23 -15 -25 17 -3 19 13 137 64 149 64 2 0 3 -4 3 -10 0 -5
-6 -10 -14 -10 -8 0 -32 -16 -53 -36 -21 -20 -63 -48 -93 -63 -30 -14 -60 -36
-66 -48 -6 -13 -14 -21 -17 -18 -4 3 -3 0 2 -6 5 -6 8 -17 5 -23 -2 -6 8 -20
23 -30 23 -17 26 -17 20 -3 -3 9 -3 17 2 17 13 0 87 -69 74 -70 -7 0 -18 9
-25 20 -7 11 -17 20 -21 20 -12 0 1 -52 15 -65 8 -7 9 -5 5 8 -4 9 -3 17 1 17
16 0 28 -16 29 -38 2 -18 -2 -22 -16 -17 -11 3 -21 0 -24 -9 -4 -9 -14 -12
-26 -9 -16 4 -19 9 -11 23 13 24 13 40 0 40 -6 0 -10 -6 -8 -14 2 -8 -1 -14
-7 -13 -5 1 -9 8 -8 15 0 7 -2 10 -5 7 -11 -11 -9 -54 2 -48 5 4 7 -1 3 -11
-5 -13 -2 -16 19 -14 18 2 30 -3 38 -17 6 -11 16 -24 21 -28 6 -5 -1 -6 -14
-3 -14 3 -31 0 -38 -6 -19 -15 -16 -3 3 17 29 29 6 28 -32 -1 -33 -26 -36 -26
-26 -7 10 19 9 23 -8 28 -12 4 -27 1 -35 -5 -19 -16 -19 -10 0 26 13 26 13 30
-1 41 -9 7 -14 18 -12 25 8 20 -17 39 -31 25 -17 -17 -13 -35 9 -42 16 -5 19
-12 14 -33 -9 -36 -14 -43 -24 -37 -5 3 -11 1 -14 -4 -3 -5 -15 -7 -26 -4 -19
5 -19 6 -4 18 10 6 14 17 10 23 -4 6 0 28 9 48 19 46 19 74 0 74 -18 0 -20 26
-2 33 9 4 9 7 -1 18 -10 11 -16 11 -32 1 -13 -8 -21 -8 -26 -1 -3 6 3 13 15
16 12 3 21 9 21 14 0 5 -12 3 -27 -3 -38 -17 -70 -38 -56 -38 6 0 15 -9 18
-20 4 -11 10 -18 14 -15 15 8 61 -20 61 -37 0 -10 1 -21 3 -25 1 -5 -17 -9
-40 -10 -24 -1 -43 3 -43 8 0 5 5 9 10 9 6 0 10 7 10 16 0 8 -4 12 -10 9 -5
-3 -10 -1 -10 4 0 6 -11 34 -25 63 -29 61 -29 58 -10 58 8 0 15 -4 15 -10 0
-5 5 -10 10 -10 6 0 10 7 10 15 0 13 -13 20 -23 13 -2 -2 -12 4 -22 12 -10 8
-23 15 -29 16 -6 0 -17 2 -23 2 -7 1 -13 10 -13 20 0 13 -2 14 -9 3 -5 -8 -10
-9 -12 -2 -4 12 -79 4 -79 -9 0 -4 23 -10 52 -13 33 -4 55 -13 61 -23 7 -12
11 -13 17 -4 4 7 13 9 19 6 22 -14 -11 -35 -36 -23 -13 6 -23 14 -23 19 0 4
-7 8 -15 8 -8 0 -15 -7 -15 -16 0 -19 -38 -10 -57 13 -7 9 -13 11 -18 4 -12
-21 -26 -11 -14 10 6 12 7 24 3 28 -5 3 -10 16 -12 28 -3 20 0 21 34 16 25 -4
35 -3 30 5 -14 23 14 21 32 -3 12 -15 26 -23 35 -19 8 3 21 -2 30 -10 12 -12
16 -13 20 -2 3 7 2 17 -1 23 -11 16 -40 23 -46 10 -2 -7 -5 -2 -5 10 -1 16 4
21 22 18 42 -5 58 -16 52 -36 -7 -21 19 -28 30 -9 5 8 11 7 21 -1 18 -15 18 2
-1 27 -13 17 -14 17 -15 2 0 -26 -17 -22 -24 5 -3 13 -20 30 -41 40 -44 21
-51 21 -35 2 15 -18 9 -19 -22 -4 -13 5 -30 24 -37 40 -7 16 -24 37 -37 46
-28 18 -46 8 -71 -40 -8 -17 -18 -25 -22 -20 -10 17 -93 53 -121 53 -14 0 -32
-6 -39 -12 -10 -11 -14 -10 -22 4 -8 15 -24 17 -92 16 -45 0 -86 -4 -92 -7 -5
-3 -20 -6 -31 -6 -12 0 -28 -6 -36 -12 -8 -7 -19 -8 -27 -4 -10 7 -10 14 3 39
9 17 16 34 16 37 0 10 -59 -25 -96 -57 -19 -17 -58 -42 -86 -55 -46 -21 -87
-57 -88 -76 0 -5 6 -7 13 -4 6 2 12 9 12 14 0 10 42 53 52 53 2 0 2 -9 -2 -19
-5 -17 -2 -19 22 -12 15 4 32 17 38 29 13 30 25 28 25 -4 0 -20 3 -24 13 -17
14 12 47 13 47 2 0 -5 6 -6 13 -3 8 3 14 -1 14 -9 0 -7 -9 -14 -19 -14 -10 -1
-16 2 -13 7 6 10 -61 8 -71 -3 -4 -3 -18 -4 -30 -1 -25 6 -34 -11 -11 -19 6
-2 8 -8 4 -13 -4 -5 -12 -2 -17 5 -5 8 -15 11 -26 7 -16 -6 -16 -8 4 -22 28
-19 28 -34 1 -34 -11 0 -29 -4 -39 -10 -13 -7 -19 -6 -23 5 -4 8 2 16 14 20
10 4 19 11 19 16 0 16 -13 10 -47 -23 -29 -28 -35 -30 -44 -18 -8 11 -12 12
-16 2 -2 -6 -9 -9 -15 -6 -6 4 -8 -2 -4 -17 3 -13 3 -19 0 -12 -3 8 -15 9 -34
3 -29 -8 -50 2 -30 15 15 9 12 35 -4 35 -7 0 -19 7 -26 15 -8 10 -30 15 -64
15 -28 0 -67 4 -86 9 -19 5 -48 12 -65 16 l-30 7 28 -26 c16 -14 32 -26 38
-26 5 0 9 -10 9 -23 0 -13 12 -34 26 -48 20 -18 25 -31 22 -56 -2 -18 0 -33 5
-33 5 0 27 15 50 33 55 43 97 62 97 43 0 -8 -6 -17 -12 -20 -10 -5 -10 -7 0
-12 12 -6 17 -34 6 -34 -4 0 -13 8 -20 18 -13 16 -13 16 -15 0 -3 -37 -5 -43
-14 -41 -6 1 -10 -19 -10 -44 0 -43 -2 -46 -26 -47 -14 -1 -32 5 -40 13 -11
13 -11 14 4 8 10 -4 17 -2 17 5 0 6 6 5 17 -3 15 -12 16 -12 10 4 -3 9 -2 17
3 17 6 0 10 8 10 18 0 12 -2 14 -8 4 -5 -7 -16 -10 -25 -6 -10 3 -24 1 -32 -6
-12 -10 -15 -10 -15 2 0 8 6 20 13 27 10 11 9 13 -6 8 -23 -8 -112 55 -133 94
-8 16 -29 35 -48 43 -35 15 -112 89 -121 117 -4 11 -26 21 -67 29 -42 9 -73
24 -97 44 -20 17 -54 45 -76 62 -197 150 -224 169 -232 160 -3 -3 2 -17 11
-31 9 -14 15 -29 12 -34 -3 -5 3 -16 14 -26 11 -10 20 -24 20 -31 0 -15 31
-34 55 -34 9 0 13 5 10 10 -12 20 10 9 64 -32 99 -76 94 -74 86 -48 -5 15 -4
20 4 16 6 -4 11 -20 11 -36 0 -18 11 -42 29 -62 l29 -34 -28 1 c-20 0 -51 20
-109 69 -44 38 -95 78 -113 89 -17 10 -44 32 -59 48 -15 16 -32 29 -38 29 -21
0 10 -35 65 -74 57 -39 67 -56 34 -56 -11 0 -20 -3 -20 -7 0 -12 69 -114 85
-125 9 -7 -10 -27 -26 -28 -16 0 -56 68 -62 104 -5 29 -19 51 -60 91 -48 47
-79 105 -56 105 5 0 9 16 9 35 0 29 -7 40 -42 66 -24 17 -54 36 -68 41 -14 6
-44 20 -67 32 -55 27 -66 13 -20 -25 21 -17 45 -45 53 -61 l16 -31 -29 7 c-15
4 -38 8 -50 9 -25 2 -24 2 -28 34 -5 50 -37 111 -73 140 -64 50 -69 49 -19 -6z
m417 -403 c0 -7 -8 -26 -18 -43 -20 -34 -27 -91 -12 -100 5 -3 10 1 10 9 0 29
20 27 26 -3 7 -34 13 -37 33 -18 10 10 29 -5 99 -79 91 -96 131 -120 134 -81
0 12 2 28 2 35 1 7 7 17 15 21 11 7 9 17 -9 55 -13 25 -21 49 -17 52 13 14 66
-55 87 -114 14 -37 35 -73 51 -87 16 -13 29 -33 29 -44 0 -14 13 -27 40 -41
46 -24 70 -26 70 -5 0 8 10 19 21 26 18 9 19 13 8 21 -12 8 -11 9 1 5 8 -2 15
-13 15 -25 0 -12 3 -22 5 -23 9 -2 65 25 81 38 14 11 18 11 30 -4 8 -9 9 -14
2 -10 -8 5 -13 -2 -15 -20 -3 -25 -6 -27 -49 -28 -32 0 -54 -6 -68 -19 -12
-11 -29 -20 -39 -21 -9 -1 -38 -5 -63 -9 -34 -6 -67 -2 -130 15 -46 12 -88 27
-94 32 -7 7 -4 8 8 3 11 -3 34 1 53 10 19 9 39 14 46 11 7 -3 30 -13 51 -22
55 -23 37 -2 -43 49 -88 58 -126 77 -134 69 -3 -3 -38 6 -76 21 -74 29 -111
65 -124 120 -6 26 -8 27 -20 11 -17 -24 -31 -13 -56 43 -26 57 -21 148 8 155
31 8 42 7 42 -5z m-886 -129 c42 -33 82 -138 65 -170 -11 -22 -42 -25 -58 -5
-7 8 -20 12 -29 9 -13 -3 -25 12 -50 59 -36 71 -35 68 -22 102 12 33 56 35 94
5z m2009 -83 c6 -47 46 -86 60 -60 7 12 12 13 23 3 10 -8 14 -8 14 -1 0 19 27
2 39 -24 6 -14 11 -36 11 -50 0 -37 19 -19 26 26 5 28 11 37 23 35 10 -1 15
-10 13 -25 -2 -13 1 -20 6 -16 6 4 8 -2 5 -14 -3 -11 -9 -20 -14 -20 -5 0 -6
8 -2 18 6 15 4 15 -15 -2 -12 -11 -22 -25 -22 -31 0 -18 33 -13 48 8 7 9 17
17 23 17 5 0 9 -8 8 -17 0 -23 -61 -72 -67 -55 -8 26 -22 10 -22 -25 0 -38 31
-103 50 -103 5 0 13 -12 16 -27 4 -16 11 -34 17 -40 7 -10 4 -13 -13 -13 -16
0 -20 -4 -16 -16 7 -17 -19 -74 -34 -74 -6 0 -10 -8 -10 -19 0 -10 -7 -34 -15
-54 -8 -19 -11 -37 -8 -40 3 -4 1 -12 -5 -19 -5 -7 -15 -29 -20 -48 -10 -35
-10 -35 -11 -6 -1 18 -5 26 -10 20 -4 -5 -6 -28 -3 -51 3 -30 9 -44 23 -48 10
-4 19 -15 19 -25 0 -10 5 -22 10 -25 6 -4 7 -11 4 -17 -4 -6 -3 -8 3 -5 11 7
43 -34 62 -80 15 -36 41 -44 41 -13 0 11 9 28 20 37 11 10 20 24 20 33 1 12 3
12 14 -2 7 -10 23 -18 35 -18 21 0 22 4 17 40 -3 23 -1 40 4 40 6 0 10 9 10
19 0 25 18 37 26 17 5 -13 8 -14 28 -1 13 8 25 14 27 13 2 -2 -1 2 -8 8 -7 6
-13 20 -14 30 0 17 -2 16 -11 -3 -17 -36 -23 -27 -22 30 1 75 4 86 14 62 7
-15 9 -10 7 20 -2 40 -3 41 -34 38 -36 -2 -42 7 -18 27 9 7 14 19 11 25 -2 7
2 22 10 34 8 11 11 21 6 21 -6 0 -8 9 -5 20 4 16 1 18 -17 15 -12 -2 -27 -9
-34 -14 -7 -6 -24 -7 -42 -2 -29 9 -29 9 -6 18 l24 9 -26 12 c-31 14 -34 32
-6 32 18 0 20 4 15 34 -4 20 -2 36 4 41 6 3 9 10 6 15 -3 5 -1 11 5 15 6 4 10
-5 10 -21 0 -23 2 -25 15 -14 15 13 12 49 -6 60 -16 11 -29 58 -17 62 8 3 7
12 -4 27 -16 23 -17 22 -13 -34 3 -52 2 -56 -12 -42 -20 19 -25 75 -10 102 6
11 10 26 8 34 -2 11 1 10 13 -2 9 -8 16 -18 16 -21 0 -3 11 -22 25 -42 23 -34
25 -35 25 -13 l0 24 20 -25 c19 -25 20 -25 20 -3 0 12 -4 33 -10 47 -6 16 -6
27 1 31 5 4 14 -7 20 -24 6 -17 15 -31 20 -31 14 0 11 23 -6 47 -21 31 0 41
29 14 12 -12 26 -18 30 -14 4 5 11 8 14 9 4 0 15 4 25 9 10 4 21 5 24 2 3 -4
14 -2 24 4 21 11 59 -7 59 -28 0 -7 7 -10 15 -7 12 5 15 -2 15 -29 0 -31 -5
-39 -40 -58 -23 -13 -40 -30 -40 -40 0 -10 -9 -20 -20 -24 -35 -11 -97 -92
-102 -133 -3 -20 -1 -40 5 -43 5 -4 7 -12 3 -18 -9 -14 29 -51 53 -51 10 0 34
-11 53 -23 19 -13 47 -27 63 -31 21 -5 25 -10 16 -16 -11 -6 -7 -16 18 -41 26
-29 28 -35 13 -38 -9 -2 -22 -7 -28 -12 -8 -6 -17 -5 -26 4 -7 7 -19 12 -27 9
-10 -3 -11 0 -2 16 9 18 8 23 -8 32 -13 7 -22 7 -26 0 -3 -5 -1 -10 4 -10 15
0 14 -27 0 -36 -7 -4 -19 3 -29 16 -17 22 -17 22 -23 -31 -4 -29 -4 -55 -2
-57 3 -3 14 6 25 20 21 28 64 28 74 1 5 -12 -40 -82 -65 -103 -3 -3 -11 -15
-18 -28 -7 -12 -16 -20 -20 -17 -5 2 -22 -10 -37 -28 -36 -41 -122 -107 -140
-107 -8 0 -19 -20 -26 -47 -8 -32 -13 -41 -17 -30 -6 16 -8 16 -28 -2 -15 -14
-23 -17 -26 -8 -3 9 -8 9 -20 -2 -15 -12 -17 -11 -17 4 0 11 -5 15 -15 11 -8
-3 -15 0 -15 7 0 8 -4 7 -11 -3 -7 -11 -8 -6 -4 20 8 39 8 38 6 63 0 10 -5 16
-10 13 -5 -3 -12 2 -15 11 -5 12 -10 13 -18 5 -16 -16 -38 4 -38 35 0 20 -3
22 -19 13 -41 -22 -53 -13 -46 31 5 29 4 40 -4 35 -6 -4 -11 0 -11 9 0 8 -8
18 -17 22 -29 10 -53 35 -53 55 0 10 -12 30 -26 43 l-27 25 24 2 c13 1 38 2
56 2 17 1 35 5 40 10 5 5 3 6 -4 2 -8 -4 -13 -2 -13 5 0 10 -3 10 -11 2 -15
-15 -39 -5 -39 14 0 10 -6 13 -17 9 -16 -5 -15 -4 1 9 10 8 23 12 27 9 5 -3
17 0 26 5 13 8 14 10 4 11 -11 0 -10 4 5 16 18 15 18 15 -6 9 -61 -16 -81 -17
-78 -4 2 9 -12 15 -40 19 -36 6 -44 3 -57 -16 -13 -20 -13 -23 3 -26 14 -3 13
-6 -8 -26 -14 -13 -38 -36 -55 -51 -32 -31 -65 -46 -65 -31 0 5 12 21 28 35
l27 26 -30 -13 c-16 -7 -39 -19 -50 -26 -19 -11 -19 -13 -2 -26 9 -7 17 -20
17 -28 0 -18 44 -61 53 -51 4 3 7 -3 7 -15 0 -11 5 -24 10 -27 16 -10 40 14
40 41 0 24 19 45 21 22 0 -10 2 -10 6 0 7 17 23 15 23 -2 0 -8 -16 -27 -35
-42 l-35 -26 21 -29 c23 -33 46 -37 65 -11 13 16 13 16 14 0 0 -10 6 -18 14
-18 8 0 16 -5 18 -11 5 -15 69 -23 78 -9 4 7 13 11 20 8 9 -3 4 -13 -14 -33
-29 -31 -42 -66 -33 -90 4 -8 1 -17 -5 -21 -7 -4 -8 -3 -4 4 4 7 3 12 -3 12
-5 0 -22 11 -36 24 -16 15 -33 22 -42 19 -11 -4 -14 -2 -9 5 4 7 1 12 -8 12
-9 0 -16 4 -16 9 0 5 -10 12 -22 15 -23 7 -88 82 -119 136 -41 73 -50 82 -77
77 -24 -5 -25 -4 -9 8 19 14 23 55 5 55 -6 0 -3 10 8 21 14 16 16 23 6 26 -6
3 -10 9 -6 14 8 14 24 0 24 -22 0 -28 24 -23 51 11 13 17 35 38 49 47 23 15
24 15 11 0 -8 -10 -9 -17 -3 -17 6 0 14 5 17 11 4 5 18 14 32 20 13 5 22 13
19 17 -9 15 28 28 83 31 30 1 65 7 78 12 12 4 23 6 23 3 0 -2 13 2 29 10 16 9
32 12 36 8 5 -4 5 -1 1 6 -4 7 -2 12 6 12 15 0 20 -79 6 -81 -5 -1 -12 -3 -18
-4 -5 -1 -14 -3 -20 -4 -5 0 -10 -6 -10 -11 0 -6 11 -8 28 -4 25 7 26 6 12
-11 -14 -17 -13 -18 13 -13 32 6 33 4 7 -22 -19 -19 -20 -40 -2 -40 11 0 43
61 37 70 -3 4 2 21 10 36 14 27 13 29 -8 42 -22 13 -21 13 6 9 15 -2 30 0 33
4 3 5 0 9 -6 9 -6 0 -8 5 -5 10 4 6 1 18 -6 26 -10 13 -10 17 2 25 11 7 10 9
-6 10 -11 0 -14 3 -7 6 6 2 12 11 12 19 0 9 5 12 10 9 6 -3 10 -1 10 4 0 14
-13 14 -28 -1 -9 -9 -12 -7 -12 10 0 15 5 20 15 16 19 -8 19 3 1 22 -11 10
-15 11 -18 2 -3 -7 -7 -5 -11 5 -4 11 -1 17 8 17 12 0 12 5 3 25 -6 14 -15 25
-20 25 -4 0 -8 7 -8 15 0 22 -38 57 -53 49 -7 -4 -9 -3 -4 1 4 5 -5 21 -20 37
-15 16 -21 28 -14 28 8 0 4 8 -9 18 -17 13 -20 24 -15 45 4 15 12 27 18 27 7
0 7 4 -1 12 -13 13 -16 60 -5 71 9 10 10 7 16 -37z m1649 -48 c-8 -8 -9 -15
-1 -25 9 -10 7 -13 -10 -13 -14 0 -20 -4 -15 -12 4 -7 3 -8 -4 -4 -14 8 -69
-19 -62 -31 7 -13 -91 -55 -143 -61 -26 -2 -50 -9 -53 -13 -10 -17 -35 -9 -59
19 -13 15 -25 31 -25 36 0 7 60 4 105 -7 30 -7 58 7 131 64 40 32 81 55 103
59 41 7 49 4 33 -12z m-3977 -24 c14 -22 15 -28 4 -35 -8 -5 -18 -9 -22 -9 -4
0 -26 -18 -48 -41 -29 -30 -42 -52 -45 -79 -4 -38 -4 -39 26 -38 17 1 30 6 30
14 0 22 21 27 35 8 7 -11 16 -32 19 -47 3 -16 20 -42 37 -58 20 -19 29 -36 27
-50 -5 -34 -21 -32 -43 4 -16 26 -28 33 -60 35 -22 2 -49 12 -60 22 -16 15
-29 18 -58 13 -32 -5 -37 -3 -37 13 0 11 9 34 20 52 11 18 20 39 20 47 0 8 9
29 20 47 11 18 20 44 20 58 0 33 9 43 45 57 45 16 51 15 70 -13z m5002 -31 c5
-15 6 -50 1 -82 -5 -31 -10 -93 -11 -139 -3 -101 -20 -124 -48 -62 -14 31 -15
46 -7 74 9 27 7 43 -6 76 -14 36 -15 45 -2 73 8 18 17 44 20 60 8 36 41 37 53
0z m-5700 -59 c3 -9 15 -19 27 -23 19 -8 18 -9 -14 -26 -56 -28 -107 -86 -112
-128 -4 -35 -2 -37 23 -37 19 0 30 6 34 20 10 31 21 24 44 -30 12 -27 27 -50
35 -50 19 0 41 -73 29 -95 -9 -15 -13 -13 -32 19 -22 34 -59 54 -79 42 -5 -3
-23 5 -41 18 -26 19 -38 22 -70 16 l-40 -7 16 41 c9 23 20 45 25 51 4 5 8 16
8 25 0 9 9 34 20 55 12 22 19 48 16 57 -5 20 15 38 58 54 43 16 46 16 53 -2z
m3902 -497 c6 -8 9 -16 6 -19 -3 -3 1 -11 10 -18 10 -8 15 -9 15 -1 0 6 -6 11
-12 11 -9 0 -9 3 1 9 24 15 60 -9 71 -48 5 -19 8 -36 7 -37 -5 -6 -103 19
-117 30 -13 10 -13 9 -1 -6 7 -10 21 -18 31 -18 10 0 25 -11 34 -25 18 -27 62
-36 52 -10 -3 9 3 19 14 25 11 6 20 20 20 31 0 32 38 39 83 16 36 -18 37 -21
21 -38 -9 -10 -13 -23 -8 -30 5 -8 3 -10 -6 -4 -10 6 -12 4 -7 -8 3 -8 0 -18
-8 -21 -9 -3 -12 0 -9 8 3 8 -4 16 -15 19 -14 3 -21 0 -21 -8 0 -23 12 -45 21
-39 14 8 10 -9 -7 -31 -12 -17 -17 -18 -35 -7 -18 12 -19 11 -10 -7 6 -11 11
-22 11 -25 0 -9 -37 30 -43 45 -4 11 -6 10 -6 -2 -1 -9 -14 -26 -30 -38 -21
-16 -27 -28 -24 -44 4 -18 3 -19 -6 -7 -10 13 -13 13 -21 -2 -6 -9 -16 -16
-23 -14 -6 1 -9 1 -5 -1 4 -2 4 -11 1 -19 -3 -8 1 -14 11 -14 9 0 16 -7 16
-15 0 -13 -6 -11 -29 6 -31 23 -67 20 -58 -4 3 -8 2 -19 -3 -26 -6 -10 -11
-10 -27 -1 -16 10 -26 9 -57 -5 -48 -23 -123 -26 -136 -5 -9 14 -11 13 -14 -9
-2 -20 -16 -23 -16 -4 0 12 -4 23 -10 25 -5 2 -11 20 -12 41 -2 29 -8 39 -24
43 -19 5 -20 9 -10 29 7 16 15 20 22 14 6 -5 14 -6 18 -2 4 4 18 -5 32 -20 29
-32 60 -35 69 -7 8 25 17 25 33 0 7 -12 17 -18 23 -14 6 3 17 -2 25 -12 14
-18 15 -18 32 2 10 11 29 24 42 27 14 3 42 22 63 40 20 19 37 33 37 30 0 -7
46 42 48 52 1 5 -9 11 -24 12 -29 2 -64 29 -64 48 0 7 -7 15 -15 19 -23 8 -18
25 10 32 15 4 22 11 18 17 -10 16 -11 47 -3 47 4 0 13 -6 19 -13z m-1723 -128
c5 1 9 -14 9 -31 1 -26 -8 -42 -43 -74 -24 -23 -45 -50 -46 -60 -2 -10 -18
-29 -37 -41 -69 -45 -72 -48 -71 -81 0 -25 -3 -32 -19 -32 -10 0 -19 7 -19 15
0 9 -10 20 -22 24 -21 9 -78 93 -61 90 22 -4 34 2 27 14 -5 8 -3 8 9 -2 9 -7
14 -18 10 -25 -3 -6 3 -3 15 8 12 10 19 23 15 29 -3 5 -2 7 4 4 6 -4 45 29 87
72 42 43 79 75 82 70 3 -5 1 -9 -4 -9 -5 0 -15 -13 -22 -29 -7 -19 -17 -28
-26 -24 -8 3 -14 0 -14 -6 0 -6 14 -11 30 -11 17 0 30 5 30 11 0 6 9 8 20 4
14 -4 20 -2 20 9 0 10 -6 13 -17 10 -17 -5 -17 -5 -1 6 10 6 15 17 11 28 -5
14 -2 13 11 -3 l17 -20 -4 20 c-3 11 -8 29 -12 40 -5 14 -4 16 3 7 5 -8 13
-13 18 -13z m94 -112 c0 -15 7 -30 15 -33 17 -7 21 -34 4 -34 -5 0 -7 -5 -3
-12 5 -8 2 -9 -10 -5 -10 4 -15 3 -11 -3 3 -6 -1 -13 -9 -16 -9 -3 -13 -10
-11 -15 3 -5 -7 -11 -22 -15 -15 -3 -48 -11 -73 -18 -46 -13 -70 -11 -70 4 0
4 27 15 60 24 33 9 60 20 60 23 0 3 -8 2 -17 -1 -15 -6 -15 -5 1 13 9 10 16
25 15 33 -2 7 3 24 10 36 7 13 10 26 7 29 -3 3 -1 14 5 24 14 27 49 4 49 -34z
m485 -506 c3 -5 18 -12 33 -16 23 -5 30 -14 40 -51 18 -68 16 -82 -12 -79 -19
2 -27 -5 -41 -35 -17 -39 -15 -101 5 -125 13 -16 22 -108 10 -100 -13 8 -35
-14 -44 -43 -12 -38 -36 -27 -36 17 0 23 -5 41 -12 44 -10 3 -7 18 10 58 27
66 28 100 3 116 -14 9 -20 29 -25 83 -9 90 5 140 39 140 13 0 26 -4 30 -9z
m1346 -58 c0 -5 3 -17 6 -28 17 -66 15 -87 -6 -102 -19 -13 -21 -21 -15 -59 4
-28 2 -49 -5 -58 -6 -8 -13 -41 -14 -74 -2 -63 -11 -72 -22 -22 -4 17 -10 30
-15 30 -4 0 -6 30 -4 67 4 66 -9 132 -29 144 -5 4 2 15 17 24 14 9 35 32 47
51 19 32 38 44 40 27z"/>
<path d="M5924 6893 c4 -12 2 -24 -5 -29 -8 -4 -9 -3 -5 4 4 7 2 10 -7 6 -8
-3 -13 -17 -13 -32 1 -15 -4 -36 -11 -47 -17 -25 -16 -35 1 -35 8 0 16 -3 18
-7 2 -5 18 -19 37 -32 29 -20 40 -22 85 -16 47 6 86 27 86 47 0 4 -9 17 -20
28 -19 19 -19 22 -4 51 24 46 14 57 -47 52 -29 -2 -56 -9 -60 -15 -5 -7 -16
-1 -34 18 -24 25 -27 26 -21 7z"/>
<path d="M1495 6718 c-11 -6 -31 -18 -45 -26 -14 -9 -60 -29 -104 -44 -43 -15
-100 -42 -127 -59 -46 -29 -51 -30 -68 -15 -23 20 -55 21 -76 0 -11 -11 -25
-14 -45 -10 -17 3 -32 1 -36 -5 -4 -7 -22 -9 -43 -6 -29 4 -43 -1 -66 -20 -27
-24 -28 -26 -11 -38 9 -7 47 -21 82 -31 65 -17 67 -17 134 5 48 15 80 33 109
61 37 37 46 40 95 40 73 0 127 23 123 53 -1 17 3 21 18 19 42 -6 99 -2 110 9
7 7 -2 9 -30 4 l-40 -6 30 25 c17 14 33 26 38 26 4 0 7 7 7 15 0 17 -26 19
-55 3z"/>
<path d="M6786 6683 c-15 -15 -3 -42 35 -76 22 -21 45 -34 51 -31 7 4 8 2 4
-5 -5 -8 16 -36 56 -76 51 -51 67 -61 81 -54 19 11 23 62 8 102 -5 13 -25 41
-45 61 -27 29 -40 36 -56 31 -14 -4 -38 3 -74 24 -30 16 -57 27 -60 24z"/>
<path d="M4350 6460 c0 -7 -18 -29 -40 -50 -22 -21 -40 -46 -40 -55 0 -9 -9
-28 -20 -42 -11 -14 -17 -30 -14 -35 3 -5 6 -44 5 -86 -1 -107 6 -134 30 -127
11 4 19 2 19 -5 0 -8 6 -8 20 0 17 9 20 21 20 82 l0 70 28 -18 c31 -21 52 -40
52 -49 0 -3 -5 -3 -10 0 -14 9 -30 -38 -24 -69 2 -14 0 -26 -6 -26 -6 0 -15
-11 -20 -25 -5 -14 -14 -25 -18 -25 -5 0 -17 -19 -25 -42 -16 -43 -17 -78 -3
-110 5 -12 0 -31 -16 -55 -20 -33 -23 -50 -22 -123 0 -47 6 -96 13 -109 12
-22 13 -22 26 -4 13 17 14 16 20 -9 4 -15 3 -47 -3 -72 -8 -37 -7 -46 6 -51 8
-3 19 0 24 7 25 38 39 72 45 114 3 25 17 62 32 82 21 31 25 47 24 105 0 46 -6
76 -18 94 -17 26 -18 26 -32 7 -11 -14 -13 -33 -8 -73 5 -37 3 -56 -5 -61 -7
-4 -12 -24 -12 -44 0 -20 -4 -39 -9 -42 -5 -3 -9 0 -9 5 0 6 -7 11 -15 11 -8
0 -15 6 -16 13 0 6 -2 21 -4 31 -8 41 -8 82 0 120 4 22 9 47 9 55 4 43 66 138
66 101 0 -5 17 -8 38 -6 20 2 40 -1 43 -6 4 -6 1 -37 -7 -69 -15 -64 -11 -89
16 -89 35 0 52 36 61 127 10 97 6 133 -16 133 -21 0 -35 33 -35 85 0 51 -21
109 -50 140 -17 18 -18 27 -10 55 11 39 5 70 -15 70 -7 0 -16 10 -19 23 -7 24
-56 65 -56 47z"/>
<path d="M2561 6124 c5 -6 26 -15 47 -19 20 -3 48 -14 62 -23 23 -15 103 -26
260 -36 30 -2 56 -8 57 -13 2 -6 37 0 81 13 43 12 99 25 125 29 25 4 51 13 57
20 12 14 -19 13 -129 -6 -118 -20 -378 -3 -480 31 -65 21 -96 23 -80 4z"/>
<path d="M4080 6085 c0 -8 -4 -15 -10 -15 -5 0 -10 -11 -10 -25 0 -38 -23
-115 -35 -115 -19 -1 -42 -45 -59 -112 -9 -37 -23 -88 -30 -113 -18 -60 -5
-115 32 -133 32 -15 37 -11 63 63 61 174 92 352 67 383 -6 7 -8 15 -5 19 4 3
2 12 -4 20 -6 7 -7 13 -2 13 5 0 10 7 10 15 0 8 -4 15 -9 15 -4 0 -8 -7 -8
-15z"/>
<path d="M3663 5578 c-5 -7 -20 -35 -33 -61 -14 -28 -56 -79 -102 -122 -43
-41 -78 -76 -78 -78 0 -12 34 -16 46 -6 33 27 10 -8 -28 -44 -32 -30 -38 -41
-28 -47 18 -11 47 5 55 30 4 11 10 18 15 15 12 -8 83 88 121 165 12 25 31 54
43 65 13 13 21 34 22 58 1 38 -14 50 -33 25z"/>
<path d="M4883 5388 c-25 -58 16 -418 49 -418 12 0 10 25 -12 129 -18 83 -27
200 -13 161 22 -63 58 -130 69 -130 11 0 11 6 3 28 -6 15 -24 74 -39 131 -31
115 -42 133 -57 99z"/>
<path d="M4248 5343 c-10 -3 -18 -13 -18 -24 0 -11 -20 -42 -45 -68 -25 -26
-45 -54 -45 -61 0 -6 -11 -25 -24 -41 -23 -27 -26 -69 -5 -69 5 0 9 -7 9 -16
0 -14 -3 -14 -15 -4 -12 10 -15 10 -15 -4 0 -9 5 -16 10 -16 7 0 7 -6 1 -19
-6 -10 -8 -30 -5 -45 2 -15 1 -25 -4 -22 -5 3 -13 -13 -16 -37 -4 -23 -10 -53
-13 -66 -4 -17 -2 -22 6 -17 8 6 11 -2 8 -28 -2 -19 -1 -37 2 -38 3 -2 16 -17
29 -35 25 -37 30 -107 8 -136 -12 -16 -14 -15 -19 13 -4 16 -11 30 -17 30 -18
0 -11 -21 28 -87 67 -116 72 -127 61 -134 -11 -7 -68 3 -113 21 -25 9 -37 40
-15 40 16 0 6 55 -11 56 -8 1 -25 2 -37 2 -13 1 -23 7 -23 13 0 7 11 9 29 6
21 -4 31 -2 35 9 3 8 1 12 -4 9 -6 -3 -7 1 -4 10 4 10 13 14 28 10 11 -4 17
-3 11 2 -5 4 -10 17 -10 28 0 13 -6 20 -17 19 -10 -1 -14 4 -11 11 7 20 -16
57 -32 51 -9 -3 -18 7 -26 29 -10 26 -16 31 -28 25 -44 -23 -86 -40 -115 -46
-25 -4 -32 -10 -31 -26 1 -12 11 -25 23 -29 12 -5 22 -13 22 -19 0 -13 -1 -13
-44 5 -29 12 -45 13 -76 5 -22 -6 -41 -14 -41 -18 -6 -30 -5 -84 2 -88 5 -3 9
-22 9 -43 0 -26 9 -51 28 -77 31 -43 31 -47 13 -85 -11 -23 -22 -28 -71 -33
-61 -7 -107 -35 -53 -32 16 1 34 5 41 9 7 5 12 4 12 -3 0 -6 8 -10 18 -8 11 2
16 -3 14 -14 -3 -17 9 -21 99 -33 40 -5 54 -14 119 -80 47 -47 68 -75 58 -75
-9 0 -20 4 -23 10 -3 5 -24 14 -46 20 -35 10 -44 9 -60 -6 -15 -14 -19 -31
-19 -92 0 -64 2 -73 15 -62 8 6 20 10 27 8 8 -3 -1 -12 -19 -21 -23 -12 -35
-28 -42 -55 -21 -79 -42 -331 -56 -657 -12 -286 -46 -711 -60 -751 -4 -15 48
-22 170 -26 l90 -2 12 99 c7 55 21 195 31 310 l17 210 120 6 c126 6 149 11
204 53 112 84 168 299 142 546 -22 220 -88 319 -239 359 -46 13 -48 16 -28 81
l13 45 66 2 66 2 10 -37 c5 -20 13 -57 17 -82 l8 -45 7 40 c4 22 8 59 8 83 1
33 5 42 19 42 13 0 14 2 4 9 -8 5 -12 17 -10 27 3 17 13 19 81 19 58 0 80 -4
87 -15 8 -12 2 -18 -28 -27 -35 -12 -32 -12 45 -10 78 2 82 1 86 -20 4 -21
-45 -103 -61 -103 -4 0 -23 -14 -42 -30 l-35 -29 31 8 c17 5 48 20 70 33 41
26 114 101 114 117 0 5 13 19 29 30 27 20 31 20 67 5 45 -19 198 -30 278 -20
58 8 58 8 31 22 -15 8 -31 12 -35 9 -4 -3 -10 1 -13 9 -3 8 -30 16 -71 20 -36
3 -73 9 -81 12 -9 4 -15 0 -15 -9 0 -10 -7 -13 -20 -10 -23 6 -26 19 -7 26 6
2 0 8 -16 12 -33 9 -97 -2 -97 -17 0 -7 -5 -6 -14 2 -8 6 -12 18 -10 25 4 9
-10 22 -37 36 -24 12 -49 27 -56 35 -7 7 -23 16 -36 20 -12 4 -37 20 -55 35
-18 16 -41 29 -52 29 -13 0 -17 5 -14 14 3 9 -3 17 -16 21 -14 5 -19 12 -15
25 4 12 -1 19 -16 23 -12 3 -18 10 -14 17 5 8 14 6 31 -5 28 -18 34 0 7 20
-11 8 -14 18 -9 31 8 18 9 18 17 -3 4 -13 13 -23 18 -23 12 0 2 41 -16 61 -8
10 -10 18 -4 20 5 2 12 17 15 33 5 25 -1 36 -40 72 -41 39 -47 52 -53 111 0 6
-10 15 -21 18 -12 4 -17 11 -13 18 4 7 0 6 -10 -1 -15 -13 -17 -10 -23 28 -4
23 -10 37 -14 30 -5 -8 -15 -1 -29 19 -12 17 -17 31 -11 31 6 0 8 5 3 13 -4 6
-6 22 -5 33 2 12 -8 34 -22 49 -14 15 -23 32 -20 37 3 5 0 15 -6 23 -10 12
-10 15 -1 15 9 0 8 5 -2 14 -12 13 -12 22 5 71 12 37 16 68 12 91 -7 38 -11
42 -36 37z m-176 -1119 c17 -9 44 -14 60 -12 23 4 30 0 34 -19 4 -13 4 -26 2
-29 -3 -2 -35 -7 -72 -11 -36 -3 -66 -10 -66 -15 0 -5 29 -6 69 -2 69 6 70 6
77 -20 3 -14 3 -38 0 -52 -7 -27 -7 -27 -79 -20 -40 4 -80 7 -89 7 -20 0 -24
15 -7 21 6 2 -11 31 -38 63 -28 33 -53 73 -57 89 l-7 29 71 -7 c39 -3 85 -13
102 -22z m92 -485 c35 -16 46 -57 46 -164 0 -175 -35 -229 -143 -223 l-52 3 2
70 c2 39 5 130 9 204 l6 133 54 -6 c29 -3 64 -11 78 -17z"/>
<path d="M2859 5126 c-37 -37 -187 -133 -266 -172 -39 -19 -98 -40 -130 -45
-59 -11 -158 -35 -203 -49 -22 -7 -20 -9 15 -9 22 -1 53 6 69 14 15 8 42 15
60 15 83 0 242 63 357 141 51 35 139 113 139 124 0 12 -19 3 -41 -19z"/>
<path d="M5196 4390 c-9 -27 -16 -77 -15 -112 1 -53 2 -58 10 -33 5 16 11 56
13 87 3 32 11 67 19 77 12 18 13 11 9 -57 -2 -50 0 -74 6 -67 6 6 12 19 15 30
3 11 4 -10 2 -47 -2 -38 1 -68 6 -68 5 0 10 6 11 13 0 6 2 17 3 22 2 6 4 19 5
30 l1 20 9 -20 c4 -11 6 -30 3 -42 -4 -16 -1 -23 10 -23 15 0 37 67 37 114 0
14 5 28 10 31 7 4 9 -17 6 -64 -3 -46 -1 -73 6 -77 7 -4 8 -3 4 4 -4 7 -2 12
3 12 6 0 11 -7 11 -15 0 -17 18 -22 122 -30 52 -5 78 -11 82 -21 3 -8 13 -14
21 -14 9 0 13 5 10 10 -7 11 37 14 48 4 5 -5 149 -15 221 -15 10 0 15 -3 12
-6 -13 -14 61 -34 143 -38 47 -3 123 -7 169 -10 51 -3 82 -1 82 5 0 5 -22 10
-49 10 -28 0 -53 5 -56 10 -4 7 29 8 102 4 153 -9 226 -11 240 -6 8 2 9 11 3
28 -5 13 -6 24 -2 24 4 0 15 12 26 26 15 22 16 28 5 35 -11 7 -12 10 -1 21 11
11 16 9 28 -6 13 -19 14 -19 14 6 0 37 10 58 26 58 8 0 14 5 14 10 0 6 -4 10
-10 10 -5 0 -15 10 -21 22 -10 18 -8 24 7 35 10 7 13 13 7 13 -7 0 -13 7 -15
15 -2 12 -14 10 -61 -14 -32 -16 -64 -36 -70 -46 -8 -10 -31 -18 -62 -20 -28
-3 -79 -8 -115 -11 -36 -4 -76 -6 -90 -5 -14 1 -63 3 -110 6 -47 3 -107 7
-135 10 -27 2 -83 6 -123 9 -40 3 -77 8 -82 11 -6 4 -25 1 -44 -6 -29 -10 -39
-10 -69 4 -19 10 -41 17 -48 17 -7 0 -20 7 -28 15 -9 8 -32 16 -51 19 -98 13
-135 20 -140 27 -3 5 -42 10 -87 13 l-81 5 -16 -49z"/>
<path d="M4811 4015 c-94 -26 -159 -82 -206 -175 -42 -84 -53 -146 -59 -350
-3 -91 -12 -223 -21 -295 -23 -186 -31 -484 -16 -570 34 -193 138 -279 336
-279 167 0 256 68 315 239 23 66 41 196 70 511 40 428 37 655 -11 749 -71 138
-251 214 -408 170z m160 -301 c24 -25 24 -29 24 -207 -1 -203 -38 -683 -59
-765 -20 -76 -51 -111 -97 -112 -50 0 -89 65 -89 150 0 20 9 130 20 245 11
116 24 299 30 408 11 209 23 264 63 292 34 24 80 19 108 -11z"/>
<path d="M5599 3967 c-93 -35 -155 -94 -200 -192 -69 -148 -64 -410 12 -564
23 -47 63 -97 149 -186 137 -142 155 -176 148 -282 -2 -37 -12 -84 -22 -105
-32 -66 -106 -74 -150 -14 -19 25 -21 41 -20 142 l1 114 -36 0 c-20 0 -73 3
-117 6 l-82 7 -7 -127 c-8 -143 2 -222 40 -297 35 -67 67 -101 127 -134 45
-25 67 -30 145 -33 85 -4 98 -2 148 22 129 64 200 223 212 478 11 238 -16 305
-197 494 -145 150 -166 187 -158 279 8 93 68 147 126 114 39 -22 52 -57 53
-147 l1 -79 60 -7 c34 -3 85 -6 114 -6 l52 0 4 58 c5 80 -8 204 -29 271 -20
65 -84 136 -154 172 -54 28 -167 36 -220 16z"/>
<path d="M6099 3883 c-24 -15 -26 -23 -37 -142 -6 -69 -9 -127 -7 -129 1 -2
38 -6 82 -8 131 -9 124 -5 118 -77 -3 -34 -12 -163 -20 -287 -20 -293 -63
-843 -70 -897 -6 -39 -4 -41 22 -47 15 -3 73 -6 128 -8 l100 -3 21 280 c60
776 75 962 80 984 l5 24 108 -7 108 -6 7 139 c3 77 9 147 12 155 8 21 -9 23
-231 36 -266 14 -394 12 -426 -7z"/>
<path d="M6826 3862 c-3 -6 -13 -104 -21 -219 -8 -114 -21 -275 -30 -358 -27
-271 -85 -1008 -79 -1014 5 -6 241 -23 480 -36 l131 -7 6 38 c3 22 9 92 13
157 7 110 6 117 -12 118 -10 0 -89 6 -174 12 l-155 12 3 105 c2 58 6 137 10
175 l7 70 35 0 c19 -1 94 -5 166 -9 l131 -8 12 152 c7 83 10 154 7 157 -3 3
-72 10 -153 16 -82 5 -153 13 -159 18 -6 5 -8 32 -3 76 5 37 8 97 9 133 0 36
4 70 8 77 6 9 37 10 127 3 66 -5 141 -10 166 -10 l46 0 13 150 c7 83 10 153 8
155 -3 3 -106 12 -229 20 -123 8 -254 17 -290 21 -41 3 -69 2 -73 -4z"/>
<path d="M7500 3812 c0 -13 -50 -635 -65 -807 -16 -186 -29 -337 -45 -545 -5
-74 -13 -158 -16 -186 l-6 -51 74 -6 c225 -20 305 -20 379 -2 96 23 137 44
182 94 80 89 99 167 127 511 5 69 19 237 30 374 16 195 18 268 10 330 -12 102
-49 178 -108 223 -72 55 -122 65 -354 69 -115 2 -208 0 -208 -4z m368 -298
c51 -33 53 -89 17 -524 -28 -342 -42 -420 -82 -462 -48 -50 -153 -64 -153 -20
0 9 11 148 25 307 14 160 32 380 41 490 19 230 23 241 89 230 22 -3 50 -13 63
-21z"/>
<path d="M4037 2239 c-16 -139 -29 -301 -24 -306 3 -2 21 -6 39 -6 l33 -2 3
68 c2 37 6 67 10 68 4 0 26 1 50 3 53 3 80 28 93 86 11 50 -1 99 -30 117 -11
7 -53 15 -94 19 l-74 7 -6 -54z"/>
<path d="M4281 2138 c-6 -73 -14 -154 -17 -180 l-6 -48 41 0 41 0 0 48 c0 67
9 92 31 92 25 0 31 -17 33 -88 l1 -57 38 -3 37 -3 0 78 c0 44 -4 83 -10 89 -7
7 -3 23 10 49 23 44 25 73 9 108 -16 35 -49 47 -128 47 l-68 0 -12 -132z"/>
<path d="M4555 2248 c-2 -7 -11 -87 -18 -178 -16 -177 -15 -180 34 -180 l25 0
16 177 c9 98 14 181 11 185 -7 13 -63 9 -68 -4z"/>
<path d="M4674 2173 c4 -43 11 -105 17 -138 5 -33 9 -79 9 -101 0 -46 10 -54
65 -54 l34 0 55 174 c31 95 56 176 56 180 0 3 -18 6 -40 6 -44 0 -36 14 -75
-140 -31 -120 -36 -113 -51 73 l-6 77 -35 0 -35 0 6 -77z"/>
<path d="M4936 2072 c-68 -218 -66 -202 -19 -202 35 0 40 3 48 33 8 27 15 32
40 32 27 0 31 -4 35 -35 5 -32 8 -35 43 -38 20 -2 37 1 37 5 0 21 -41 339 -45
351 -3 7 -22 12 -47 12 l-43 0 -49 -158z"/>
<path d="M5148 2214 c-5 -4 -8 -20 -8 -36 0 -25 4 -28 30 -28 l31 0 -7 -112
c-13 -192 -14 -183 23 -186 38 -4 39 -2 48 143 9 137 11 143 48 147 28 3 32 7
35 36 3 31 2 32 -36 32 -21 0 -66 3 -98 6 -32 3 -62 3 -66 -2z"/>
<path d="M5387 2178 c-8 -34 -31 -327 -26 -332 2 -2 43 -6 92 -9 l87 -6 0 33
c0 33 -1 34 -51 40 l-50 7 3 37 3 37 53 3 c50 3 52 4 52 31 0 32 -14 41 -66
41 -27 0 -34 4 -34 19 0 42 11 51 60 51 42 0 48 3 52 23 8 43 1 47 -87 47 -78
0 -83 -1 -88 -22z"/>
<path d="M5720 2011 c-7 -94 -12 -174 -12 -178 1 -5 17 -9 35 -11 l34 -3 7 70
7 71 43 0 c58 0 85 30 93 102 5 48 2 57 -20 83 -23 27 -32 30 -99 33 l-74 4
-14 -171z"/>
<path d="M5976 2158 c-4 -13 -26 -289 -26 -326 0 -15 8 -21 35 -24 38 -4 41 2
47 97 3 41 19 54 48 36 10 -7 14 -27 12 -74 l-3 -64 32 -7 c17 -3 35 -6 40 -6
5 0 9 35 9 79 0 60 -4 82 -16 92 -14 11 -14 14 -2 23 40 30 51 108 20 146 -13
16 -35 25 -73 31 -81 11 -119 10 -123 -3z"/>
<path d="M6273 2135 c-29 -20 -40 -66 -48 -190 -4 -73 -2 -107 7 -125 18 -33
87 -56 131 -44 49 14 65 58 73 201 l7 121 -26 26 c-21 21 -36 26 -74 26 -28 0
-58 -7 -70 -15z m91 -147 c-2 -128 -7 -148 -41 -148 l-26 0 6 108 c6 125 12
144 41 140 20 -3 21 -8 20 -100z"/>
<path d="M6496 2107 c-9 -58 -25 -321 -20 -329 3 -4 18 -8 34 -8 28 0 29 1 36
70 l7 70 33 0 c68 0 98 29 109 108 11 74 -26 106 -132 115 l-62 5 -5 -31z"/>
<path d="M6746 2089 c-10 -60 -29 -319 -24 -324 2 -3 43 -8 90 -11 l85 -7 7
28 c9 36 1 43 -54 47 l-45 3 0 40 0 40 50 0 c49 0 50 1 53 33 3 31 2 32 -32
32 -49 0 -66 9 -66 34 0 39 14 48 62 41 44 -7 45 -6 51 22 3 15 2 31 -1 35 -4
3 -44 10 -89 13 l-82 7 -5 -33z"/>
<path d="M6977 2059 c-14 -102 -29 -290 -23 -304 3 -9 18 -15 35 -15 32 0 37
11 43 100 2 28 8 36 26 38 27 4 34 -12 36 -86 l1 -57 38 -3 37 -3 0 78 c0 47
-5 84 -12 91 -9 9 -7 16 8 33 28 31 26 111 -4 141 -19 19 -35 23 -101 26 l-78
4 -6 -43z"/>
<path d="M7228 2084 c-5 -4 -8 -20 -8 -36 0 -25 4 -28 31 -28 l32 0 -6 -67
c-4 -38 -9 -105 -13 -150 l-7 -83 35 0 35 0 6 58 c4 31 9 96 13 145 l7 87 33
0 c32 0 34 2 34 35 l0 35 -57 0 c-32 0 -74 3 -93 6 -19 3 -38 2 -42 -2z"/>
<path d="M7450 2066 c0 -2 13 -49 30 -104 26 -88 29 -110 23 -176 l-6 -76 35
0 c32 0 36 3 42 31 3 17 6 48 6 69 0 24 17 72 50 139 28 56 50 104 50 107 0 2
-16 4 -36 4 -32 0 -37 -4 -55 -45 -27 -60 -36 -63 -49 -13 -6 24 -13 49 -15
56 -4 10 -75 19 -75 8z"/>
<path d="M3616 1808 c-3 -7 -7 -66 -11 -130 l-6 -118 24 0 c28 0 37 16 37 64
0 38 6 47 26 39 10 -3 14 -22 14 -59 0 -50 2 -54 24 -54 21 0 24 6 30 53 5 46
9 159 7 195 -1 6 -12 12 -25 12 -23 0 -25 -5 -28 -47 -3 -40 -6 -48 -23 -48
-17 0 -20 7 -20 50 0 44 -3 50 -23 53 -12 2 -24 -3 -26 -10z"/>
<path d="M3804 1799 c-3 -6 -9 -59 -12 -119 -5 -104 -4 -107 19 -123 24 -18
76 -22 95 -9 23 15 32 50 39 150 l7 102 -25 0 c-29 0 -37 -27 -37 -130 0 -47
-4 -71 -15 -80 -30 -25 -37 -1 -29 102 5 80 4 102 -7 109 -19 12 -26 11 -35
-2z"/>
<path d="M3976 1698 c-10 -153 -10 -158 19 -158 24 0 25 3 26 63 0 66 6 62 31
-23 11 -37 18 -46 40 -48 26 -3 26 -3 33 85 12 166 12 168 -11 171 -24 3 -34
-19 -34 -81 0 -47 -15 -41 -24 10 -12 67 -16 73 -45 73 l-28 0 -7 -92z"/>
<path d="M4160 1760 c0 -14 8 -24 21 -27 21 -6 22 -10 16 -110 l-5 -103 29 0
c28 0 29 1 29 53 0 28 3 76 6 105 6 47 9 52 31 52 20 0 24 4 21 23 -3 20 -9
22 -75 25 -69 3 -73 2 -73 -18z"/>
<path d="M4426 1738 c-3 -18 -7 -77 -10 -130 l-4 -98 24 0 c23 0 24 3 24 61 0
72 14 70 31 -5 10 -45 16 -56 37 -61 13 -3 26 -5 27 -3 2 2 6 60 10 131 7 125
7 127 -14 127 -22 0 -29 -16 -34 -85 l-2 -40 -13 45 c-20 73 -30 90 -51 90
-15 0 -21 -8 -25 -32z"/>
<path d="M4634 1752 c-22 -14 -32 -48 -39 -128 -6 -77 -6 -82 18 -110 23 -26
28 -28 55 -18 22 8 33 9 41 1 18 -18 29 4 33 71 l4 62 -38 0 c-31 0 -38 -3
-38 -20 0 -11 5 -20 11 -20 6 0 9 -10 7 -22 -2 -15 -10 -23 -23 -23 -19 0 -20
6 -17 75 2 41 8 80 14 87 13 16 38 5 38 -18 0 -14 7 -19 25 -19 19 0 25 5 25
23 0 12 -4 27 -8 33 -18 28 -82 44 -108 26z"/>
<path d="M4986 1698 c-3 -18 -8 -75 -12 -125 l-7 -93 26 0 c23 0 26 5 32 49 7
49 8 50 43 53 30 2 38 8 40 26 3 19 -1 22 -32 22 -32 0 -36 3 -36 25 0 23 4
25 40 25 33 0 40 4 40 19 0 21 -26 31 -86 31 -39 0 -42 -2 -48 -32z"/>
<path d="M5260 1700 c-34 -34 -26 -78 22 -127 35 -36 41 -47 32 -61 -14 -22
-27 -20 -39 7 -13 28 -55 29 -55 1 0 -31 44 -70 78 -70 36 0 61 27 69 74 5 33
2 40 -36 75 -38 35 -50 59 -35 74 10 9 34 -4 34 -19 0 -8 9 -14 20 -14 13 0
20 7 20 20 0 28 -35 60 -65 60 -14 0 -34 -9 -45 -20z"/>
<path d="M5406 1658 c-3 -24 -7 -80 -10 -125 -4 -81 -4 -83 19 -83 19 0 23 7
31 53 6 36 14 52 24 52 11 0 16 -14 18 -52 3 -48 5 -53 27 -53 22 0 23 3 30
115 4 63 7 118 6 122 0 5 -11 8 -23 8 -20 0 -24 -6 -28 -45 -4 -37 -9 -45 -25
-45 -17 0 -20 6 -18 48 1 43 -1 47 -22 47 -20 0 -25 -6 -29 -42z"/>
<path d="M5685 1678 c-5 -16 -26 -230 -22 -234 1 -1 11 -4 22 -6 17 -3 20 3
23 47 5 72 17 75 33 8 12 -51 17 -58 40 -61 26 -3 26 -2 33 80 4 46 9 102 12
126 6 40 5 42 -20 42 -25 0 -26 -3 -26 -49 0 -70 -15 -71 -31 -3 -12 47 -18
58 -37 60 -12 2 -24 -3 -27 -10z"/>
<path d="M5876 1661 c-23 -26 -38 -174 -22 -211 10 -22 18 -25 73 -27 l61 -1
4 60 c3 55 1 61 -20 69 -13 5 -27 9 -32 9 -15 0 -20 -30 -8 -49 15 -24 3 -53
-19 -49 -15 3 -18 13 -15 68 4 91 9 112 30 108 9 -2 18 -13 20 -26 5 -34 52
-31 52 3 0 57 -86 88 -124 46z"/>
<path d="M6230 1632 c0 -13 9 -22 25 -26 23 -6 25 -11 21 -39 -3 -18 -8 -62
-11 -99 -7 -68 -7 -68 19 -68 30 0 32 7 41 123 6 74 8 77 32 77 20 0 24 4 21
23 -3 20 -9 22 -75 25 -67 3 -73 1 -73 -16z"/>
<path d="M6406 1613 c-2 -16 -8 -72 -11 -125 l-7 -98 26 0 c24 0 26 3 26 45 0
32 5 47 15 52 23 8 30 -4 30 -55 0 -42 3 -47 23 -50 23 -4 24 -2 21 67 -2 38
0 73 4 77 4 4 7 24 7 45 0 47 -27 69 -86 69 -38 0 -43 -3 -48 -27z"/>
<path d="M6607 1573 c-9 -32 -26 -88 -36 -125 l-20 -68 25 0 c17 0 27 8 34 25
14 36 46 33 54 -5 4 -24 11 -30 31 -30 28 0 27 -16 1 175 -11 79 -12 80 -42
83 -30 3 -32 1 -47 -55z"/>
<path d="M6767 1607 c-3 -8 -8 -64 -12 -125 l-8 -112 26 0 c24 0 26 4 29 48 3
46 4 47 38 49 42 2 70 32 70 77 0 37 -7 49 -37 65 -30 15 -100 14 -106 -2z"/>
<path d="M6946 1554 c-21 -206 -21 -194 7 -194 25 0 37 20 37 68 0 18 6 22 29
22 45 0 73 29 75 78 1 56 -19 74 -87 80 l-55 4 -6 -58z"/>
<path d="M7227 1568 c-3 -13 -9 -69 -13 -125 -7 -100 -6 -103 14 -103 18 0 22
8 28 60 4 34 9 58 12 56 2 -3 10 -31 16 -63 10 -51 15 -58 38 -61 30 -4 33 7
44 156 6 88 6 92 -14 92 -22 0 -32 -24 -32 -77 0 -52 -15 -38 -28 27 -11 53
-16 60 -36 60 -16 0 -26 -7 -29 -22z"/>
<path d="M7414 1555 c-11 -17 -18 -56 -22 -113 -6 -111 2 -122 86 -119 l57 2
3 68 3 67 -30 0 c-37 0 -47 -15 -31 -45 15 -28 7 -55 -15 -55 -23 0 -27 20
-18 101 7 65 11 74 28 74 13 0 21 -8 23 -22 5 -35 52 -32 52 2 0 62 -102 92
-136 40z"/>
<path d="M7685 1537 c-8 -13 -17 -60 -21 -109 -6 -79 -5 -87 15 -107 48 -48
126 -12 135 64 3 25 8 65 12 89 7 60 -17 86 -81 86 -35 0 -48 -5 -60 -23z"/>
<path d="M7866 1493 c-4 -38 -9 -91 -12 -119 -5 -46 -4 -52 15 -57 25 -6 41
17 41 62 0 24 4 31 19 31 17 0 20 -8 23 -47 3 -43 6 -48 29 -51 24 -3 25 -1
23 45 -1 26 -5 58 -9 69 -4 12 -2 25 4 28 6 4 11 25 11 46 0 48 -18 60 -88 60
l-50 0 -6 -67z"/>
<path d="M3594 1395 c-8 -20 4 -35 26 -35 19 0 19 -6 13 -105 l-6 -105 26 0
c23 0 26 4 31 53 4 28 7 75 9 102 2 43 5 50 25 53 26 4 30 37 6 46 -33 12
-124 7 -130 -9z"/>
<path d="M3766 1353 c-3 -27 -7 -84 -8 -128 l-3 -80 28 -3 c26 -3 27 -2 27 43
0 32 5 47 15 52 23 8 29 -3 26 -52 -2 -44 -1 -45 29 -45 30 0 30 0 30 54 0 30
-4 58 -10 61 -6 4 -4 15 6 30 23 35 12 88 -22 103 -14 7 -45 12 -69 12 l-43 0
-6 -47z"/>
<path d="M3947 1269 c-4 -67 -4 -125 -1 -130 3 -5 32 -9 65 -9 56 0 59 1 59
25 0 22 -4 25 -34 25 -40 0 -47 8 -39 38 4 17 13 22 40 22 30 0 34 3 31 23 -2
17 -11 23 -36 25 -28 3 -33 7 -30 25 2 17 11 23 41 25 28 2 37 8 37 22 0 23
-19 30 -79 30 l-48 0 -6 -121z"/>
<path d="M4127 1362 c-10 -10 -17 -35 -17 -55 0 -30 7 -41 40 -69 28 -22 40
-39 38 -53 -4 -29 -42 -27 -46 3 -2 14 -10 22 -23 22 -14 0 -19 -7 -19 -29 0
-40 24 -61 70 -61 46 0 70 27 70 78 0 26 -8 41 -40 69 -41 37 -53 73 -24 73 9
0 18 -9 21 -20 3 -13 14 -20 29 -20 17 0 24 6 24 20 0 52 -88 81 -123 42z"/>
<path d="M4286 1349 c-3 -13 -7 -71 -8 -129 -3 -102 -2 -105 20 -108 18 -3 22
1 22 25 0 56 10 70 50 77 47 7 62 25 64 76 1 53 -18 70 -87 77 -53 5 -56 4
-61 -18z"/>
<path d="M4502 1343 c-19 -37 -73 -224 -67 -233 12 -20 45 -10 51 15 8 34 51
35 56 3 2 -17 11 -24 32 -26 27 -3 28 -2 23 30 -4 18 -12 73 -18 121 -11 79
-15 90 -36 98 -32 12 -31 12 -41 -8z"/>
<path d="M4646 1328 c-28 -40 -20 -77 25 -119 42 -39 49 -71 17 -77 -11 -2
-18 5 -20 20 -2 15 -11 24 -25 26 -35 5 -32 -49 3 -77 36 -28 68 -26 93 5 36
46 23 107 -30 138 -19 11 -29 25 -29 42 0 30 29 33 37 4 8 -29 43 -26 43 3 0
54 -84 79 -114 35z"/>
<path d="M4807 1322 c-10 -10 -17 -35 -17 -55 0 -30 7 -41 40 -69 28 -22 40
-39 38 -53 -4 -29 -42 -27 -46 3 -5 34 -42 30 -42 -5 1 -38 21 -62 58 -69 42
-9 82 30 82 80 0 28 -8 41 -40 69 -24 20 -40 43 -40 55 0 28 30 29 37 2 4 -13
14 -20 30 -20 22 0 24 3 19 28 -4 15 -14 33 -23 40 -25 18 -77 15 -96 -6z"/>
<path d="M5057 1313 c-3 -5 -8 -48 -11 -98 -4 -49 -9 -102 -12 -117 -5 -25 -2
-28 19 -28 23 0 26 5 33 56 7 60 18 57 30 -9 4 -27 13 -42 30 -49 13 -6 27 -8
30 -5 8 8 33 239 27 250 -2 4 -12 7 -22 7 -20 0 -31 -26 -31 -77 0 -45 -16
-42 -24 5 -12 64 -16 72 -41 72 -13 0 -26 -3 -28 -7z"/>
<path d="M5257 1298 c-10 -8 -21 -37 -27 -73 -15 -92 -13 -139 8 -158 20 -19
67 -23 77 -7 4 6 13 5 25 -2 11 -7 22 -10 25 -7 3 3 6 35 7 70 l3 64 -32 3
-33 3 3 -48 c2 -42 0 -48 -18 -48 -18 0 -20 6 -17 64 2 36 8 75 13 88 12 31
39 30 39 -2 0 -21 5 -25 30 -25 25 0 30 4 30 25 0 37 -33 65 -78 65 -21 0 -46
-6 -55 -12z"/>
<path d="M5505 1203 c-3 -49 -8 -105 -11 -125 -5 -35 -4 -38 19 -38 23 0 26 5
34 53 8 49 10 52 41 55 24 2 32 8 32 23 0 14 -7 19 -28 19 -35 0 -41 6 -35 31
4 14 14 19 38 19 24 0 34 5 38 19 7 28 1 31 -64 31 l-57 0 -7 -87z"/>
<path d="M5690 1272 c-19 -15 -24 -33 -30 -103 -8 -91 -2 -122 29 -138 66 -36
106 5 116 118 8 93 3 114 -31 129 -35 17 -58 15 -84 -6z"/>
<path d="M5847 1254 c-3 -16 -9 -75 -13 -131 l-6 -103 26 0 c23 0 26 4 26 38
0 45 13 67 34 59 11 -5 16 -19 16 -52 0 -25 4 -45 9 -45 5 0 16 -3 25 -6 14
-5 16 3 16 53 0 32 -5 64 -10 69 -8 8 -6 15 5 24 19 15 20 70 1 95 -9 12 -30
20 -68 23 -55 4 -56 4 -61 -24z"/>
<path d="M6154 1246 c-22 -60 -70 -233 -67 -238 10 -18 44 -7 53 17 13 35 60
36 60 1 0 -15 7 -26 19 -29 37 -9 39 4 23 130 l-15 121 -35 4 c-19 2 -36 -1
-38 -6z"/>
<path d="M6295 1125 c-4 -63 -8 -118 -8 -122 -1 -5 8 -9 19 -11 24 -3 34 19
34 83 0 50 16 30 26 -33 6 -39 25 -62 52 -62 11 0 17 43 28 178 l6 84 -23 -4
c-22 -3 -25 -9 -29 -63 -6 -67 -12 -64 -30 13 -11 47 -14 52 -40 52 l-28 0 -7
-115z"/>
<path d="M6480 1228 c0 -2 9 -33 19 -70 14 -48 18 -84 14 -123 -6 -54 -5 -55
21 -55 24 0 26 3 26 41 0 25 14 73 35 122 19 44 35 82 35 84 0 2 -11 3 -24 3
-19 0 -28 -8 -37 -35 -16 -43 -24 -44 -35 -2 -7 22 -17 33 -32 35 -12 2 -22 2
-22 0z"/>
<path d="M6746 1209 c-3 -8 -8 -65 -13 -126 l-8 -113 27 0 c26 0 28 3 28 45 0
25 3 45 8 46 72 6 102 29 102 79 0 45 -28 70 -87 77 -40 4 -54 2 -57 -8z"/>
<path d="M6927 1203 c-3 -4 -8 -54 -12 -109 -7 -95 -6 -103 14 -123 24 -24 78
-28 106 -7 20 14 33 82 34 179 1 54 0 57 -23 57 -23 0 -24 -4 -31 -93 -7 -102
-15 -123 -39 -114 -15 6 -16 19 -10 99 4 51 7 97 8 103 1 12 -40 19 -47 8z"/>
<path d="M7106 1143 c-20 -193 -20 -190 3 -196 25 -6 28 -2 37 51 5 32 11 42
25 42 20 0 22 -10 19 -67 -1 -30 1 -33 28 -33 27 0 29 3 30 41 1 22 -2 49 -8
59 -7 13 -5 27 6 49 18 37 12 76 -14 89 -9 5 -40 12 -68 16 l-51 6 -7 -57z"/>
<path d="M7296 1118 c-4 -35 -8 -90 -9 -123 -2 -55 0 -60 20 -63 20 -3 22 2
25 45 3 47 3 48 42 54 46 8 66 30 66 76 0 49 -29 73 -89 73 l-49 0 -6 -62z"/>
<path d="M7511 1169 c-28 -11 -37 -37 -46 -135 -7 -80 -6 -81 20 -103 35 -27
67 -27 100 2 22 20 26 32 31 112 6 80 4 92 -12 106 -24 20 -64 28 -93 18z"/>
<path d="M7666 1138 c-26 -37 -19 -67 24 -111 27 -26 40 -48 38 -61 -4 -28
-30 -27 -43 2 -15 33 -45 29 -45 -7 0 -56 65 -79 114 -40 20 16 26 29 26 59 0
34 -6 44 -40 71 -44 35 -53 69 -20 69 11 0 23 -7 26 -15 9 -22 44 -19 44 4 0
51 -94 73 -124 29z"/>
<path d="M7837 1123 c-4 -22 -10 -78 -13 -126 l-7 -87 67 0 c58 0 66 2 66 19
0 20 -18 31 -51 31 -14 0 -19 7 -19 30 0 28 3 30 35 30 19 0 35 5 35 10 0 6 1
13 2 18 1 4 -11 9 -28 12 -23 4 -30 11 -32 33 -3 26 -1 27 38 27 34 0 41 3 38
18 -3 13 -15 18 -64 20 l-61 3 -6 -38z"/>
<path d="M4277 952 c-10 -10 -17 -35 -17 -56 0 -30 7 -43 42 -75 28 -26 39
-44 35 -55 -9 -24 -36 -19 -47 8 -11 29 -44 29 -48 -1 -4 -28 27 -62 65 -69
26 -5 37 -1 57 19 41 41 35 82 -19 133 -31 28 -43 47 -39 58 8 22 21 20 36 -4
15 -24 58 -27 58 -5 0 9 -11 27 -25 40 -29 30 -75 33 -98 7z"/>
<path d="M4533 942 c-20 -13 -33 -60 -24 -84 5 -13 25 -37 45 -55 38 -33 41
-40 27 -62 -12 -19 -41 -6 -41 19 0 15 -7 20 -25 20 -21 0 -25 -5 -25 -28 0
-40 28 -62 78 -62 48 0 72 25 72 78 0 26 -9 41 -42 71 -28 26 -39 44 -35 55 9
22 28 20 34 -4 7 -26 53 -28 53 -2 0 36 -29 62 -68 62 -20 0 -42 -4 -49 -8z"/>
<path d="M4676 924 c-8 -21 1 -34 25 -34 18 0 20 -5 15 -42 -3 -24 -8 -71 -11
-106 l-6 -63 28 3 c28 3 28 4 36 93 9 109 11 115 37 115 28 0 27 36 -2 44 -47
12 -116 7 -122 -10z"/>
<path d="M4840 888 c0 -24 -3 -80 -7 -125 l-6 -83 27 0 c24 0 26 3 26 40 0 27
5 43 15 47 23 8 29 -3 30 -50 0 -37 3 -42 26 -45 l25 -3 -7 68 c-4 39 -3 72 2
77 5 6 9 27 9 47 0 49 -27 69 -92 69 l-48 0 0 -42z"/>
<path d="M5131 903 c-20 -16 -25 -32 -31 -104 -9 -96 0 -128 42 -143 38 -13
84 8 97 46 13 35 7 48 -20 48 -12 0 -23 -10 -29 -26 -7 -16 -16 -24 -28 -22
-14 3 -16 13 -13 68 1 35 7 75 12 88 10 27 32 25 38 -4 4 -21 19 -34 39 -34
17 0 16 65 -2 79 -27 23 -80 24 -105 4z"/>
<path d="M5285 892 c-9 -24 -5 -31 18 -34 24 -3 24 -1 13 -130 -6 -78 -6 -78
18 -78 28 0 31 10 41 128 7 68 9 72 31 72 19 0 24 5 24 24 0 23 -4 25 -70 28
-51 2 -71 -1 -75 -10z"/>
<path d="M5457 846 c-4 -25 -9 -81 -13 -125 l-7 -81 39 0 c21 0 49 -3 60 -6
16 -4 23 0 27 16 6 22 3 24 -46 35 -19 4 -27 11 -23 20 2 7 8 52 12 99 l7 86
-25 0 c-22 0 -26 -5 -31 -44z"/>
<path d="M5580 867 c0 -8 7 -34 16 -58 10 -26 16 -71 15 -111 -1 -65 0 -68 23
-68 21 0 24 6 30 54 3 30 19 84 36 121 16 37 30 69 30 71 0 2 -11 4 -24 4 -19
0 -27 -8 -36 -35 -14 -44 -27 -45 -38 -2 -6 22 -15 33 -30 35 -14 2 -22 -2
-22 -11z"/>
<path d="M5835 763 c-3 -59 -9 -116 -11 -125 -4 -14 1 -18 19 -18 22 0 25 5
31 50 7 49 7 50 41 50 31 0 35 3 35 25 0 21 -5 25 -28 25 -35 0 -41 6 -35 30
4 13 16 20 42 22 28 2 36 7 36 23 0 18 -8 20 -62 23 l-61 3 -7 -108z"/>
<path d="M6024 852 c-23 -15 -33 -51 -36 -129 -3 -98 11 -123 74 -123 46 0 78
28 78 69 0 15 3 55 6 88 6 53 4 63 -15 82 -21 21 -83 29 -107 13z"/>
<path d="M6187 808 c-15 -107 -19 -208 -9 -208 6 0 17 -3 25 -6 12 -4 17 6 22
45 6 41 11 51 26 51 16 0 19 -7 19 -50 0 -46 2 -50 24 -50 21 0 24 6 28 43 3
23 1 49 -3 59 -6 10 -3 27 6 45 32 62 7 98 -76 108 l-57 6 -5 -43z"/>
<path d="M6379 835 c-3 0 -23 -247 -20 -250 11 -12 99 -3 120 11 21 15 23 22
18 75 -3 33 -1 62 4 65 15 9 10 60 -8 76 -13 12 -87 26 -114 23z"/>
<path d="M6636 764 c-3 -33 -8 -89 -12 -126 l-6 -68 59 0 c82 0 91 12 99 126
8 106 2 115 -80 122 l-54 4 -6 -58z"/>
<path d="M6815 714 c-3 -55 -9 -112 -11 -127 l-6 -28 68 3 c62 3 70 6 81 28 7
14 13 61 13 106 0 96 -7 105 -85 112 l-53 4 -7 -98z"/>
<path d="M7006 783 c-2 -10 -8 -66 -12 -125 -6 -103 -6 -108 13 -108 11 0 41
-3 67 -6 45 -7 46 -6 46 20 0 23 -4 26 -34 26 -39 0 -50 11 -41 40 5 15 15 20
41 20 31 0 35 3 32 23 -2 17 -11 23 -36 25 -28 3 -33 7 -30 25 2 17 11 23 41
25 28 2 37 8 37 21 0 34 -114 46 -124 14z"/>
<path d="M7177 783 c-2 -4 -8 -51 -11 -103 -4 -52 -10 -105 -13 -117 -4 -19
-1 -23 20 -23 19 0 26 6 31 31 3 17 6 42 6 56 0 40 16 18 29 -42 11 -48 16
-55 36 -55 13 0 26 3 28 8 3 4 8 60 11 125 7 113 7 117 -13 117 -16 0 -21 -9
-26 -47 -11 -81 -11 -81 -37 7 -10 33 -19 46 -35 48 -11 2 -23 0 -26 -5z"/>
<path d="M3510 583 c1 -32 30 -224 35 -234 4 -5 19 -9 34 -9 27 0 29 4 59 113
38 136 39 145 10 143 -20 -1 -26 -12 -43 -79 -22 -83 -35 -91 -35 -22 0 77
-10 105 -36 105 -16 0 -24 -6 -24 -17z"/>
<path d="M3818 579 c-24 -13 -38 -71 -38 -151 0 -80 19 -108 73 -108 59 0 72
23 82 141 7 85 7 86 -20 107 -29 23 -69 28 -97 11z"/>
<path d="M3966 488 c-4 -51 -9 -110 -12 -130 l-6 -38 60 0 c45 0 61 4 66 16 9
24 -2 34 -35 34 l-30 0 7 105 7 105 -25 0 c-25 0 -26 -2 -32 -92z"/>
<path d="M4135 483 c-14 -49 -30 -98 -35 -111 -6 -13 -10 -32 -10 -42 0 -30
38 -26 52 5 7 16 19 25 35 25 18 0 23 -5 23 -25 0 -21 5 -25 30 -25 26 0 30 3
25 23 -2 12 -10 67 -16 122 -6 55 -13 103 -16 108 -2 4 -17 7 -33 7 -28 0 -30
-4 -55 -87z"/>
<path d="M4270 535 c0 -19 5 -25 21 -25 22 0 22 -2 15 -106 l-7 -105 28 3 c28
3 28 4 36 93 9 109 11 115 37 115 13 0 20 7 20 19 0 21 -34 31 -106 31 -40 0
-44 -2 -44 -25z"/>
<path d="M4456 528 c-8 -13 -18 -60 -22 -105 -9 -108 5 -133 72 -133 42 0 46
2 59 34 20 47 24 188 6 209 -22 27 -97 23 -115 -5z"/>
<path d="M4628 534 c-3 -5 -8 -43 -12 -84 -4 -41 -9 -94 -12 -117 -6 -42 -6
-43 24 -43 29 0 31 2 34 43 2 34 7 42 23 42 18 0 20 -6 17 -47 -4 -48 -3 -48
27 -48 31 0 31 0 31 53 0 29 -5 58 -10 63 -8 8 -6 15 5 24 19 16 20 84 1 99
-18 15 -121 27 -128 15z"/>
<path d="M4820 510 c-34 -34 -26 -77 21 -121 32 -29 39 -42 34 -59 -9 -28 -39
-22 -43 8 -3 17 -9 22 -25 20 -28 -4 -33 -32 -13 -63 21 -32 82 -35 114 -5 37
35 30 84 -20 129 -28 26 -39 44 -35 55 9 22 28 20 34 -4 3 -13 14 -20 29 -20
17 0 24 6 24 20 0 29 -36 60 -70 60 -17 0 -39 -9 -50 -20z"/>
<path d="M5055 388 c4 -68 8 -124 9 -125 1 -1 14 -3 30 -5 27 -3 30 0 37 32
24 123 23 121 29 40 l5 -75 31 -3 31 -3 22 112 c12 61 25 117 28 125 3 10 -3
14 -20 14 -23 0 -26 -5 -37 -71 -7 -39 -15 -67 -19 -64 -3 4 -8 37 -11 73 -4
59 -8 67 -27 70 -23 3 -24 2 -45 -93 l-13 -60 -2 45 c-6 88 -12 110 -34 110
-20 0 -21 -3 -14 -122z"/>
<path d="M5386 423 c-4 -38 -9 -94 -12 -125 l-6 -58 60 0 c43 0 61 4 65 15 7
16 3 20 -37 29 l-28 7 7 99 7 100 -25 0 c-23 0 -25 -4 -31 -67z"/>
<path d="M5541 467 c-5 -12 -11 -60 -15 -107 -4 -47 -8 -94 -9 -105 -2 -18 5
-20 61 -23 56 -3 62 -1 62 16 0 15 -9 22 -36 26 -27 6 -34 11 -30 24 2 9 8 53
11 98 7 77 6 81 -15 87 -15 4 -23 0 -29 -16z"/>
<path d="M5779 468 c-5 -10 -26 -244 -22 -248 3 -3 29 -5 58 -5 42 0 57 4 69
20 17 22 21 72 7 94 -5 8 -3 24 7 40 31 55 -7 101 -83 101 -19 0 -36 -1 -36
-2z"/>
<path d="M5947 413 c-4 -27 -9 -82 -13 -124 l-6 -76 32 -7 c18 -3 48 -6 66 -6
30 0 34 3 34 25 0 22 -4 25 -35 25 -32 0 -35 2 -35 30 0 28 3 30 35 30 23 0
38 6 42 16 7 19 -13 34 -44 34 -18 0 -23 6 -23 25 0 23 4 25 40 25 32 0 40 4
40 19 0 19 -39 31 -101 31 -24 0 -27 -4 -32 -47z"/>
<path d="M6207 424 c-5 -17 -21 -204 -18 -221 0 -5 12 -9 25 -11 23 -3 25 0
28 45 3 48 3 48 41 51 29 3 40 9 52 32 36 69 12 111 -67 118 -48 4 -57 2 -61
-14z"/>
<path d="M6385 418 c-4 -14 -25 -197 -25 -222 0 -10 9 -16 24 -16 21 0 25 6
31 51 6 39 11 49 24 47 11 -2 17 -16 19 -50 2 -36 7 -47 23 -51 26 -7 33 11
27 79 -3 30 -1 57 4 60 4 3 8 23 8 44 0 29 -6 43 -22 54 -27 19 -107 21 -113
4z"/>
<path d="M6605 420 c-39 -15 -48 -38 -53 -134 -4 -89 -4 -94 19 -110 31 -21
71 -20 99 2 38 31 49 215 13 235 -19 11 -60 15 -78 7z"/>
<path d="M6780 410 c-26 -6 -50 -41 -50 -74 0 -11 18 -36 41 -57 29 -27 40
-44 37 -61 -4 -30 -32 -30 -36 0 -5 34 -52 31 -52 -3 0 -82 127 -86 143 -5 8
40 -6 70 -49 99 -18 13 -34 30 -34 38 0 22 31 28 45 10 26 -36 61 -7 37 30
-11 18 -54 30 -82 23z"/>
<path d="M6906 333 c-4 -38 -9 -94 -12 -125 l-5 -58 34 0 c19 0 49 -3 66 -6
28 -6 31 -4 31 19 0 22 -5 26 -32 29 -29 3 -33 6 -33 33 0 28 2 30 33 27 29
-3 32 -1 32 22 0 22 -4 26 -30 26 -25 0 -30 4 -30 25 0 22 4 25 35 25 31 0 35
3 35 25 0 24 -3 25 -59 25 l-59 0 -6 -67z"/>
<path d="M7085 367 c-9 -14 -18 -60 -21 -114 -7 -87 -6 -91 17 -106 26 -19 71
-22 99 -7 22 12 41 62 30 80 -12 19 -44 7 -50 -20 -7 -28 -37 -39 -46 -17 -3
8 -1 47 3 88 7 65 11 74 28 74 13 0 21 -8 23 -22 3 -17 10 -23 28 -23 20 0 24
5 24 28 0 40 -28 62 -78 62 -32 0 -45 -5 -57 -23z"/>
<path d="M7265 371 c-3 -5 -8 -56 -11 -113 -8 -121 1 -138 65 -138 57 0 71 22
81 132 5 51 10 99 10 106 0 6 -11 12 -24 12 -19 0 -24 -6 -30 -37 -3 -21 -6
-57 -6 -80 0 -54 -15 -93 -36 -93 -15 0 -16 11 -9 110 6 106 6 110 -14 110
-11 0 -22 -4 -26 -9z"/>
<path d="M7438 352 c-4 -14 1 -23 16 -30 21 -9 22 -13 14 -102 -5 -51 -7 -94
-6 -96 2 -1 12 -4 23 -6 22 -4 32 26 34 107 2 71 10 95 32 95 18 0 37 25 27
35 -2 2 -33 7 -69 11 -61 6 -66 5 -71 -14z"/>
<path d="M7606 343 c-2 -10 -8 -66 -11 -124 l-7 -106 57 -8 c60 -7 82 2 72 29
-3 8 -21 16 -39 18 -28 2 -33 7 -33 28 0 22 5 25 38 28 33 3 38 6 35 25 -2 17
-11 23 -36 25 -28 3 -33 7 -30 25 2 17 11 23 41 25 28 2 37 8 37 21 0 32 -115
44 -124 14z"/>
<path d="M7805 351 l-30 -6 -11 -115 c-7 -63 -10 -119 -7 -124 6 -9 110 2 135
15 18 10 24 32 33 131 6 59 4 69 -14 87 -21 21 -49 24 -106 12z"/>
</g>
</svg>
