<?xml version="1.0" standalone="no"?>
<!DOCTYPE svg PUBLIC "-//W3C//DTD SVG 20010904//EN"
 "http://www.w3.org/TR/2001/REC-SVG-20010904/DTD/svg10.dtd">
<svg version="1.0" xmlns="http://www.w3.org/2000/svg"
 width="1200.000000pt" height="618.000000pt" viewBox="0 0 1200.000000 618.000000"
 preserveAspectRatio="xMidYMid meet">
<metadata>
Created by potrace 1.16, written by Peter Selinger 2001-2019
</metadata>
<g transform="translate(0.000000,618.000000) scale(0.100000,-0.100000)"
fill="#000000" stroke="none">
<path d="M0 3090 l0 -3090 4061 0 4061 0 -7 39 c-4 27 -2 49 9 70 25 47 38
124 27 153 -8 21 -3 37 25 92 19 37 39 88 45 114 7 26 20 63 29 82 29 56 28
79 0 93 -20 10 -25 20 -25 52 0 22 -4 51 -9 64 -7 21 -13 23 -53 18 -53 -6
-116 -52 -122 -88 -9 -62 -83 -189 -110 -189 -6 0 -11 -11 -11 -24 0 -38 -17
-41 -57 -10 -21 16 -57 31 -86 35 -27 5 -55 14 -64 20 -31 27 18 100 86 129
16 6 37 20 47 31 16 18 16 20 -1 39 -10 11 -38 30 -61 42 -37 18 -48 19 -69
10 -38 -17 -43 -15 -65 21 -23 37 -26 80 -7 95 16 13 90 17 136 6 l34 -7 -6
62 c-4 34 -11 70 -17 81 -14 27 -12 66 4 79 17 14 39 6 96 -35 46 -33 63 -39
133 -49 45 -6 101 15 116 43 6 12 11 38 11 60 0 42 -12 55 -78 82 -27 10 -43
11 -85 1 -76 -18 -90 -19 -109 -9 -45 23 -2 79 75 99 38 9 47 15 41 28 -16 41
-15 50 10 67 22 13 39 15 89 10 73 -8 97 -9 104 -2 17 17 2 109 -29 186 -20
47 -41 102 -47 122 -7 20 -23 58 -35 85 -17 33 -21 53 -15 65 12 23 89 34 131
19 18 -7 78 -16 134 -21 55 -5 136 -18 180 -29 43 -11 117 -25 164 -31 47 -6
101 -13 120 -16 19 -2 127 -18 240 -34 650 -94 940 -139 961 -150 10 -6 26
-25 35 -42 15 -28 16 -111 18 -795 l1 -763 973 0 972 0 0 3090 0 3090 -6000 0
-6000 0 0 -3090z m838 2411 c18 -9 27 -10 37 -1 8 7 20 8 26 4 7 -4 27 -7 45
-6 28 1 35 -3 40 -23 8 -31 -4 -65 -22 -65 -8 0 -20 -11 -26 -25 -6 -14 -18
-24 -27 -23 -8 2 -16 -4 -17 -12 0 -8 -2 -22 -2 -32 -3 -22 -100 -138 -118
-138 -7 0 -35 34 -61 74 -62 97 -92 98 -132 3 -23 -53 -32 -57 -54 -24 -8 12
-29 38 -46 57 -48 54 -63 140 -25 140 8 0 15 11 16 25 2 47 3 50 12 56 16 12
330 3 354 -10z m1516 -101 c159 -11 291 -22 294 -24 2 -3 -9 -21 -26 -40 -38
-44 -48 -74 -31 -92 8 -7 56 -24 107 -38 93 -24 131 -43 104 -53 -7 -3 -26
-17 -42 -32 -17 -15 -50 -32 -75 -39 -39 -10 -49 -19 -72 -62 -21 -37 -34 -50
-50 -50 -35 0 -27 -17 20 -42 l42 -23 -75 -6 c-41 -3 -88 -11 -103 -17 -16 -7
-50 -12 -77 -12 -41 0 -52 -4 -69 -26 -27 -35 -28 -97 -2 -121 11 -10 30 -26
44 -35 13 -9 32 -33 41 -53 17 -35 67 -75 94 -75 8 0 12 18 12 54 0 30 3 57 8
59 13 9 114 -14 139 -30 56 -37 83 -144 83 -333 0 -112 -21 -223 -46 -252 -21
-23 -59 -29 -119 -20 -47 7 -50 9 -51 38 -2 72 -46 74 -110 7 -38 -41 -49 -47
-77 -44 -17 1 -42 12 -54 23 -28 26 -77 160 -70 189 6 23 -20 72 -33 64 -5 -3
-11 -52 -15 -110 -8 -107 -15 -126 -40 -105 -10 8 -19 9 -35 0 -33 -17 -79 -3
-100 32 -10 17 -26 63 -35 102 -56 246 -58 250 -88 279 -16 15 -36 27 -44 27
-9 0 -26 11 -38 24 -20 22 -23 38 -29 168 -5 123 -11 607 -7 677 l1 24 168 -7
c92 -4 297 -16 456 -26z m756 -55 c213 -14 836 -66 853 -71 14 -4 18 -13 14
-31 -2 -13 1 -30 7 -36 13 -14 15 -35 20 -252 2 -88 1 -171 -4 -185 -7 -21 -8
-22 -9 -5 -1 15 -3 17 -10 6 -5 -7 -6 -22 -3 -34 3 -13 1 -18 -6 -13 -6 3 -16
1 -24 -6 -7 -7 -20 -13 -28 -13 -11 0 -15 -11 -16 -38 -1 -21 -6 -43 -13 -50
-14 -14 -15 -30 -1 -22 6 3 10 1 10 -4 0 -6 -7 -11 -15 -11 -8 0 -15 5 -15 11
0 5 -5 7 -12 3 -8 -5 -9 -2 -5 9 3 9 2 19 -3 22 -9 6 -15 -18 -10 -40 4 -19 1
-87 -4 -92 -3 -3 -12 1 -20 10 -8 8 -12 17 -9 21 4 3 -3 6 -15 6 -19 0 -20 -3
-12 -24 5 -14 10 -53 12 -88 l3 -63 -35 -2 c-19 -1 -47 4 -62 12 -39 19 -37 0
6 -61 19 -27 50 -78 68 -114 29 -57 33 -74 32 -142 -1 -108 -34 -157 -107
-158 -69 0 -127 81 -127 178 0 32 1 33 38 30 36 -3 37 -5 43 -47 10 -74 62
-91 75 -25 8 45 -23 102 -98 183 -70 75 -97 79 -89 14 1 -8 -5 -10 -15 -6 -14
5 -16 3 -11 -11 4 -10 10 -48 13 -84 12 -127 -30 -202 -113 -202 -38 0 -50 5
-76 34 -18 18 -39 44 -48 57 l-17 24 -7 -47 c-4 -27 -10 -48 -14 -49 -3 0 -14
-2 -23 -4 -9 -2 -22 3 -28 11 -7 7 -38 16 -70 20 -32 3 -62 9 -68 13 -8 5 -19
494 -13 614 l1 28 83 -7 c45 -3 90 -11 99 -15 28 -15 122 37 147 81 25 45 26
50 6 50 -8 0 -15 7 -15 16 0 18 -22 13 -84 -18 -35 -18 -54 -20 -180 -15 -191
6 -315 43 -402 119 -52 46 -40 64 23 33 16 -8 54 -17 84 -19 30 -2 77 -11 104
-19 28 -8 87 -17 133 -21 45 -3 91 -10 102 -16 13 -7 20 -7 20 -1 0 6 -9 15
-21 22 -14 7 -19 17 -16 30 3 10 -4 30 -15 44 -11 14 -33 59 -49 100 -16 42
-36 90 -46 108 -9 17 -18 57 -19 87 -1 31 -12 80 -23 110 -27 70 -26 73 7 66
15 -3 70 -8 122 -11z m2582 -368 c51 -25 104 -47 118 -49 44 -5 63 -83 41
-168 -5 -19 -12 -55 -15 -80 -10 -73 -16 -75 -75 -35 -85 57 -166 44 -144 -22
5 -15 18 -32 29 -38 11 -5 34 -20 51 -32 17 -13 36 -23 41 -23 20 0 72 -35 77
-51 8 -25 -24 -96 -53 -119 -13 -11 -40 -20 -58 -20 -23 0 -34 -5 -34 -14 0
-23 -17 -28 -35 -9 -13 12 -15 26 -11 55 6 38 6 39 -39 58 -44 19 -68 51 -58
76 5 15 -17 30 -26 17 -3 -5 -26 -15 -50 -23 -40 -13 -44 -13 -57 5 -8 11 -22
43 -31 72 -23 72 -11 83 53 55 34 -14 55 -18 70 -12 16 6 26 5 34 -6 19 -22
28 -17 49 24 18 36 18 38 0 73 -12 24 -32 43 -62 57 -24 11 -49 28 -57 36 -11
14 -10 19 6 31 15 11 19 27 20 82 0 37 6 79 13 92 12 21 18 23 61 19 31 -3 84
-22 142 -51z m-5097 13 c3 -5 12 -7 20 -3 13 4 15 -16 15 -138 l0 -144 -28 -2
c-48 -2 -52 9 -52 152 0 72 3 135 7 138 9 10 31 8 38 -3z m145 -30 l6 -25 7
25 c6 21 9 22 17 10 14 -22 13 -273 -2 -288 -16 -16 -33 -15 -52 4 -13 13 -16
42 -16 160 0 132 2 145 17 142 9 -2 20 -14 23 -28z m150 -32 l19 -43 0 37 c1
54 17 55 25 1 11 -83 7 -265 -6 -261 -12 4 -21 19 -34 53 -6 18 -8 16 -13 -10
-10 -49 -26 -34 -32 30 -9 83 -10 220 -2 228 14 14 24 6 43 -35z m8170 -180
c30 -22 38 -51 21 -77 -18 -28 0 -50 48 -57 76 -11 171 -72 171 -111 0 -8 7
-27 14 -42 8 -15 18 -51 22 -80 l7 -52 -48 -44 c-60 -56 -80 -63 -103 -35
l-18 22 -2 -36 c-2 -28 0 -34 13 -30 15 6 20 -9 16 -50 -1 -11 5 -26 13 -35
12 -14 12 -21 1 -48 -23 -55 -40 -40 -47 41 -3 35 -20 43 -41 21 -9 -8 -18
-15 -22 -15 -10 0 -28 22 -43 51 -24 46 -60 82 -77 76 -22 -9 -19 -63 5 -84
60 -53 82 -78 93 -106 4 -10 12 -14 22 -11 18 7 20 -23 6 -73 -5 -18 -6 -31
-1 -30 13 3 11 -10 -6 -51 -19 -46 -13 -156 13 -200 17 -29 16 -30 -16 -71
-18 -22 -38 -41 -45 -41 -7 0 -30 13 -52 30 -50 38 -104 41 -131 7 -12 -16
-29 -24 -51 -24 -31 0 -42 10 -23 22 14 8 41 65 41 87 0 11 11 23 25 28 26 10
32 36 16 68 -41 77 -61 135 -61 173 0 60 -22 89 -65 89 -28 0 -37 6 -50 29
-14 28 -13 33 5 64 30 51 12 87 -43 87 -45 0 -66 62 -62 181 2 52 6 111 10
132 7 35 10 38 32 34 17 -3 38 4 61 19 19 13 49 24 67 24 48 0 100 25 137 66
35 39 85 74 106 74 7 0 26 -10 42 -22z m480 -84 c42 -9 126 -86 164 -149 35
-57 36 -64 37 -160 1 -55 4 -113 8 -130 l6 -30 11 30 c6 17 17 46 24 65 6 19
12 47 11 63 -1 17 4 27 13 27 7 0 19 6 25 14 14 16 93 30 121 21 16 -5 20 -15
20 -54 l0 -48 -57 -29 c-74 -36 -80 -43 -89 -90 -4 -21 -21 -70 -39 -109 -18
-38 -45 -96 -59 -128 -17 -35 -36 -61 -49 -66 -12 -5 -37 -32 -56 -61 -36 -56
-51 -66 -78 -55 -19 8 -29 11 -51 13 -17 2 -7 135 14 197 20 59 17 90 -12 125
-19 22 -24 34 -16 42 11 11 42 -11 42 -30 0 -25 31 -18 54 12 41 54 40 79 -4
128 -21 24 -39 52 -41 63 -3 14 -14 21 -36 23 -17 2 -36 9 -42 15 -21 26 -52
248 -42 309 1 7 73 2 121 -8z m-6725 -64 c3 -5 17 -10 29 -10 32 0 38 -37 36
-204 -1 -72 -2 -168 -1 -213 l1 -83 29 0 c55 0 81 -16 81 -50 0 -18 -4 -29
-10 -25 -6 4 -7 -1 -3 -11 6 -15 1 -16 -53 -10 -32 5 -69 8 -82 8 -16 0 -27 9
-34 27 -15 36 -24 581 -10 581 6 0 14 -4 17 -10z m4474 -230 c52 -6 99 -14
105 -18 6 -5 70 -9 141 -10 72 -1 146 -6 165 -12 19 -5 71 -10 115 -10 154 -1
204 -28 207 -115 1 -28 -2 -75 -6 -106 l-8 -55 67 -29 c97 -43 111 -79 79
-207 -9 -37 -24 -70 -37 -81 -19 -17 -20 -20 -5 -28 13 -7 16 -18 12 -38 -3
-15 1 -44 10 -66 12 -28 13 -41 5 -51 -9 -11 -8 -18 1 -29 10 -12 6 -18 -20
-33 -35 -22 -78 -21 -190 3 -36 8 -108 16 -160 19 -52 3 -129 10 -170 15 -41
6 -138 17 -215 26 -77 9 -174 20 -215 25 -41 5 -104 12 -140 15 -98 9 -105 17
-103 106 4 135 -7 121 92 114 79 -6 84 -5 67 9 -19 16 -44 20 -97 16 -37 -2
-57 22 -53 62 3 33 21 143 30 185 7 34 36 45 89 33 61 -14 81 0 88 59 3 25 1
72 -4 105 -8 47 -7 63 6 82 18 27 17 27 144 14z m-2467 -393 c7 -8 24 -55 37
-105 13 -51 27 -92 31 -92 4 0 18 42 31 93 24 90 26 92 55 92 l29 0 3 -147 c2
-143 2 -148 -18 -148 -20 0 -22 6 -24 122 -2 51 -14 38 -33 -34 -16 -59 -24
-74 -41 -76 -22 -3 -26 7 -54 127 l-13 56 -5 -85 c-5 -77 -7 -85 -25 -85 -19
0 -20 8 -23 134 -1 74 0 141 2 148 7 17 31 17 48 0z m387 -53 c23 -29 27 -74
10 -105 -9 -19 -9 -19 10 -10 17 9 51 6 51 -5 0 -2 -7 -22 -16 -44 -15 -37
-15 -42 1 -66 24 -38 13 -58 -29 -50 -20 4 -37 2 -41 -4 -9 -15 -47 -12 -71 5
-12 8 -27 35 -34 60 -12 41 -11 51 5 83 12 24 18 54 16 83 -4 76 55 108 98 53z
m258 -16 c19 -23 102 -293 94 -301 -19 -20 -54 -2 -65 33 -10 31 -16 35 -48
38 -33 3 -38 0 -44 -22 -3 -14 -12 -30 -19 -36 -17 -14 -45 -2 -45 21 0 16 58
194 85 262 8 20 28 22 42 5z m243 -98 l45 -85 3 55 c3 80 10 100 31 100 10 0
21 -7 25 -15 10 -27 9 -276 -2 -287 -5 -5 -20 -8 -33 -6 -24 3 -33 16 -81 123
l-23 50 -3 -75 c-3 -78 -13 -95 -44 -79 -16 9 -18 25 -18 144 0 150 3 167 34
163 15 -2 34 -27 66 -88z m265 49 c73 -18 115 -83 115 -176 0 -49 -17 -88 -50
-118 -16 -14 -35 -19 -75 -19 -84 2 -85 4 -85 169 0 78 3 145 7 148 9 10 38 9
88 -4z m206 -38 c16 -16 29 -39 29 -50 0 -22 20 -30 20 -8 1 26 47 69 71 65
36 -5 35 -37 -5 -117 -25 -49 -36 -84 -36 -115 0 -59 -8 -76 -35 -76 -27 0
-35 17 -35 75 0 27 -14 77 -40 139 -22 53 -40 100 -40 106 0 21 43 9 71 -19z
m2413 -364 c16 -44 -21 -73 -215 -176 -50 -26 -88 -55 -113 -86 -27 -33 -44
-45 -60 -43 -16 2 -20 9 -18 28 5 31 71 121 114 153 65 49 253 158 267 155 9
-2 20 -16 25 -31z m1398 -278 c18 -24 19 -29 5 -55 -20 -38 -70 -74 -103 -74
-25 0 -26 2 -20 38 3 20 6 49 6 64 0 60 74 78 112 27z m-7126 -455 c29 -8 89
-135 80 -169 -9 -34 -29 -31 -62 8 -23 27 -84 145 -84 162 0 7 39 6 66 -1z
m302 -50 c12 -4 22 -10 22 -15 0 -4 -20 -37 -45 -72 -25 -36 -45 -69 -45 -75
0 -5 -6 -14 -13 -21 -8 -6 -26 -34 -40 -63 -33 -65 -74 -111 -93 -104 -7 3
-28 0 -45 -6 -30 -10 -31 -12 -25 -54 3 -24 9 -56 12 -71 7 -25 6 -27 -9 -14
-9 7 -20 35 -23 62 -4 27 -10 49 -15 49 -5 0 -9 -6 -9 -12 0 -7 -5 -5 -11 5
-8 14 -14 16 -24 7 -8 -7 -18 -9 -24 -6 -5 4 -16 -1 -24 -9 -26 -25 -30 -17
-8 14 12 16 21 33 21 38 1 18 37 50 64 57 23 6 27 4 22 -8 -3 -9 -8 -22 -11
-28 -3 -7 0 -20 5 -28 9 -13 13 -12 29 8 11 12 29 22 40 22 12 0 21 4 21 9 0
4 17 39 38 77 20 38 55 108 76 157 42 92 49 98 114 81z m126 -251 c15 -52 31
-128 36 -167 5 -39 12 -91 15 -116 l6 -45 -15 34 c-9 18 -14 37 -11 41 3 4 -4
19 -15 31 l-19 24 -1 -33 c0 -18 5 -42 10 -53 6 -10 15 -50 21 -87 5 -37 12
-81 15 -98 9 -50 -28 -85 -92 -88 -45 -2 -55 1 -91 33 -31 28 -46 53 -67 113
-14 43 -26 90 -25 105 1 15 -3 41 -10 56 -19 48 -15 57 29 57 22 0 40 -4 40
-9 0 -4 18 -21 41 -37 34 -23 42 -25 50 -13 14 22 11 29 -11 29 -11 0 -20 5
-20 11 0 6 -22 32 -50 59 -53 51 -60 69 -34 95 9 9 14 19 11 22 -9 8 12 43 25
43 7 0 25 -12 41 -27 l29 -28 -13 27 c-12 28 -13 26 38 122 14 27 17 28 28 13
7 -10 24 -61 39 -114z m1756 -193 c22 -22 27 -79 9 -97 -9 -9 -6 -19 10 -39
25 -32 27 -86 4 -109 -13 -14 -29 -16 -76 -12 -33 3 -64 10 -71 17 -16 16 -21
227 -6 245 19 23 105 20 130 -5z m151 -25 c-9 -76 -1 -189 15 -206 25 -28 11
-49 -34 -49 -48 0 -65 15 -50 44 16 28 10 153 -8 187 -26 50 -20 60 34 57 46
-3 47 -4 43 -33z m193 4 c17 -14 26 -29 24 -43 -3 -21 -14 -23 -55 -11 -29 9
-63 -26 -63 -66 0 -44 17 -69 46 -69 23 0 24 3 18 35 l-6 35 33 -6 c47 -9 51
-16 43 -60 -25 -133 -164 -96 -188 51 -18 114 71 195 148 134z m228 -23 c17
-32 17 -32 42 -2 19 25 25 27 43 18 25 -14 31 -57 32 -204 0 -71 -4 -100 -14
-108 -24 -20 -35 -1 -36 58 -1 74 -7 86 -46 90 l-33 2 0 -60 c0 -64 -15 -85
-44 -61 -19 16 -33 249 -17 278 13 26 57 19 73 -11z m-2911 -63 c-7 -14 -7
-32 0 -58 6 -20 9 -38 7 -39 -2 -1 -25 -15 -52 -30 -27 -16 -62 -42 -79 -58
-21 -19 -36 -26 -46 -21 -9 4 -43 7 -76 8 -95 2 -184 53 -100 57 19 1 49 2 65
3 17 1 41 11 53 22 12 11 43 34 69 52 26 17 68 50 94 72 41 35 49 39 61 26 11
-11 12 -20 4 -34z m3214 21 c36 -24 59 -93 52 -160 -10 -93 -69 -132 -130 -84
-35 28 -51 81 -44 152 8 94 60 133 122 92z m152 -36 c6 -7 13 -46 16 -87 9
-113 22 -114 34 -1 7 66 10 75 30 78 34 5 47 -30 40 -112 -14 -159 -62 -213
-135 -151 -40 33 -57 104 -48 198 3 38 9 73 12 78 8 13 40 11 51 -3z m266 -30
c34 -17 37 -49 11 -95 -19 -33 -24 -56 -24 -113 0 -79 -11 -110 -40 -110 -30
0 -33 16 -31 132 2 84 -1 113 -13 130 -19 26 -21 59 -5 75 11 11 64 2 102 -19z
m149 -54 c15 -53 42 -60 52 -14 7 39 32 49 58 22 18 -17 22 -39 28 -144 9
-127 4 -148 -29 -148 -26 0 -41 21 -41 55 0 49 -11 76 -29 73 -11 -2 -18 -17
-21 -48 -4 -40 -8 -45 -32 -48 -39 -5 -46 18 -50 162 -2 101 0 128 11 135 24
15 41 1 53 -45z m500 42 c51 -8 134 -21 185 -27 71 -10 93 -16 96 -30 7 -27
-25 -81 -55 -93 -20 -7 -28 -17 -28 -34 0 -31 -27 -83 -56 -107 -14 -12 -28
-39 -34 -65 -5 -25 -21 -88 -34 -140 -14 -52 -26 -105 -26 -117 0 -24 14 -31
25 -13 4 6 32 27 63 47 72 46 135 55 172 25 l25 -20 -28 -11 c-16 -6 -37 -11
-47 -11 -20 0 -77 -60 -91 -97 -24 -64 -1 -148 54 -194 27 -22 118 -25 162 -4
17 7 24 14 18 14 -7 1 -13 5 -13 10 0 17 27 19 54 6 16 -8 39 -12 56 -8 43 8
58 -29 41 -99 -27 -102 -48 -308 -37 -352 10 -39 37 -49 88 -31 24 8 60 15 81
15 49 0 50 -27 2 -69 -33 -29 -41 -31 -108 -31 -46 0 -80 5 -93 14 -11 8 -38
19 -60 25 -34 9 -47 21 -91 88 -28 43 -70 114 -93 158 -62 116 -87 138 -109
97 -29 -54 -44 -431 -22 -527 7 -27 27 -88 46 -135 30 -76 34 -97 37 -200 l3
-115 -31 -3 c-32 -3 -147 24 -229 55 -79 29 -78 18 -77 823 1 377 1 714 2 750
1 36 -1 134 -4 219 -2 85 0 165 5 178 10 28 23 28 151 9z m-4180 -171 c20 -14
44 -25 53 -25 29 0 12 -35 -18 -38 l-28 -3 23 -18 c18 -15 21 -27 19 -65 -2
-44 22 -103 31 -75 2 7 12 9 26 5 25 -8 30 -26 7 -26 -18 0 -19 -12 -3 -28 10
-10 10 -15 -2 -23 -13 -8 -13 -11 3 -20 9 -5 17 -14 17 -19 0 -13 -37 -13 -44
-1 -9 14 -61 -3 -64 -21 -2 -9 12 -20 38 -31 28 -11 40 -21 40 -35 0 -11 3
-28 7 -37 5 -15 1 -16 -25 -10 -39 8 -43 -9 -12 -48 12 -14 27 -38 35 -54 16
-31 8 -51 -43 -105 -27 -30 -24 -52 3 -24 9 9 21 16 26 16 5 0 9 6 9 14 0 7 8
16 19 19 17 4 19 14 17 86 0 44 3 81 7 81 5 0 6 51 3 113 -6 112 0 143 25 135
10 -3 14 -34 15 -114 1 -60 8 -134 14 -164 16 -74 9 -345 -9 -385 l-14 -30 -7
25 c-5 14 -8 44 -9 67 -1 44 -9 73 -20 73 -3 0 -7 -41 -8 -91 -1 -50 -4 -93
-5 -95 -4 -4 -75 12 -145 32 l-53 15 0 104 c0 57 4 106 9 109 14 9 24 96 12
110 -6 8 -9 22 -5 32 5 16 4 17 -5 4 -6 -8 -10 -42 -9 -75 2 -59 1 -60 -26
-63 -19 -2 -26 0 -21 8 12 20 17 90 5 90 -5 0 -10 -4 -10 -10 0 -5 -4 -10 -10
-10 -5 0 -10 12 -10 26 0 14 -12 73 -27 129 -15 57 -25 107 -21 110 12 12 62
-20 68 -44 5 -22 6 -21 18 11 8 23 9 44 3 66 -14 47 -4 119 24 180 14 30 22
58 20 63 -3 5 -24 13 -45 19 -33 9 -40 15 -40 35 0 29 8 31 36 10 22 -17 38
-20 29 -5 -9 14 3 30 23 30 10 0 34 -11 54 -25z m2209 -42 c102 -45 158 -130
167 -256 5 -70 -12 -175 -33 -204 -7 -9 -10 -34 -8 -57 5 -37 2 -44 -26 -65
-38 -29 -38 -35 -5 -74 21 -25 25 -38 21 -69 -3 -21 -1 -40 4 -43 5 -3 13 -24
19 -46 14 -49 -2 -105 -31 -114 -13 -5 -19 -16 -19 -38 0 -18 -3 -50 -7 -71
-4 -29 -3 -37 6 -32 8 5 11 -3 10 -31 -1 -21 1 -45 5 -55 5 -11 2 -18 -12 -22
-15 -5 -21 -19 -26 -67 -4 -33 -9 -66 -12 -73 -4 -10 15 -18 63 -29 142 -34
293 -59 309 -53 16 6 17 27 10 266 -4 158 -3 260 2 260 6 0 17 -11 26 -24 13
-20 17 -69 21 -273 3 -136 9 -250 13 -254 4 -3 36 -12 72 -19 36 -7 71 -17 78
-23 17 -13 15 -37 -4 -37 -8 0 -140 27 -292 60 -152 34 -297 63 -322 66 -24 3
-52 10 -61 15 -9 5 -39 11 -66 14 -26 3 -59 10 -73 15 -14 5 -101 25 -195 45
-93 20 -188 40 -210 46 -22 6 -51 12 -65 14 -14 2 -80 16 -147 31 l-123 28 1
155 c0 141 2 153 14 120 7 -20 16 -83 20 -141 l7 -106 37 -6 c75 -12 95 -17
115 -28 12 -6 31 -12 44 -13 13 0 26 -5 30 -10 8 -11 58 -13 68 -2 11 11 44 8
44 -3 0 -5 11 -10 25 -10 25 0 25 0 25 99 0 95 14 153 36 152 5 -1 11 -61 14
-133 l5 -133 82 -22 c46 -11 102 -24 124 -28 l42 -7 -7 57 c-3 31 -16 75 -27
97 -12 23 -18 50 -15 62 9 33 -15 128 -31 122 -37 -14 -93 48 -93 104 0 12 -9
33 -20 47 -23 30 -26 70 -6 99 10 13 11 25 5 35 -10 16 -12 60 -3 83 3 8 21
18 40 22 31 6 34 9 34 44 0 20 -9 81 -21 136 -47 223 -7 364 112 395 53 13
160 4 210 -18z m-1672 -103 c4 -30 -25 -196 -45 -260 -12 -39 -12 -45 1 -53 9
-5 15 -23 15 -48 0 -33 -4 -42 -21 -46 -21 -6 -21 -9 -14 -122 7 -125 9 -131
31 -131 10 0 14 13 14 48 0 26 5 53 12 60 9 9 9 15 0 24 -15 15 -17 188 -1
188 5 0 30 -5 55 -11 36 -9 45 -15 41 -30 -3 -11 0 -16 8 -13 7 3 14 -5 17
-20 7 -33 1 -37 -28 -24 -35 16 -54 -4 -30 -31 10 -11 15 -25 11 -30 -9 -15 8
-14 23 1 16 16 33 -7 30 -37 -2 -16 -9 -19 -34 -17 -24 2 -33 -2 -42 -23 -16
-35 -17 -33 31 -32 l42 2 3 -44 3 -43 -46 6 c-30 5 -56 3 -75 -6 -33 -14 -37
-29 -15 -52 8 -8 15 -25 15 -38 0 -13 7 -45 15 -72 l15 -49 -43 7 c-23 4 -81
16 -129 28 l-88 20 -12 42 c-6 22 -12 69 -13 103 -1 47 -5 66 -19 76 -14 11
-15 17 -6 42 6 17 12 55 13 85 1 38 7 61 19 74 18 20 23 36 12 36 -4 0 -13 -8
-20 -17 -12 -16 -15 -16 -24 -3 -6 8 -9 29 -7 46 2 26 0 30 -15 26 -15 -4 -18
2 -18 36 l0 40 44 -16 c25 -9 48 -13 52 -9 4 4 -2 41 -14 83 -18 67 -19 79 -6
109 16 39 22 44 86 67 27 9 60 26 75 38 36 28 77 23 82 -10z m4458 -51 c32
-28 68 -60 81 -71 12 -11 27 -40 34 -65 6 -27 20 -50 34 -60 30 -20 25 -27
-44 -62 -103 -52 -185 -204 -160 -296 4 -17 5 -42 2 -57 -7 -34 -42 -80 -55
-72 -19 12 -47 82 -62 158 -13 62 -29 100 -79 183 -37 63 -72 110 -88 118 -33
17 -130 104 -130 116 0 5 6 9 14 9 8 0 40 14 72 31 47 25 71 31 117 30 54 -1
59 2 75 28 21 37 59 60 99 61 25 0 46 -12 90 -51z m-3344 -176 c17 -32 37 -44
37 -22 0 5 -5 29 -11 53 -6 23 -9 57 -7 75 l3 33 45 -67 44 -68 -22 -15 c-27
-18 -29 -36 -2 -29 11 3 22 1 25 -3 9 -14 -6 -60 -18 -57 -21 4 -18 -31 5 -52
21 -20 23 -32 26 -144 2 -67 1 -119 -2 -116 -3 3 -12 34 -19 68 l-12 63 -27
-21 c-14 -12 -39 -21 -55 -21 -16 0 -34 -5 -41 -12 -14 -14 -16 -64 -3 -72 5
-3 11 -14 14 -25 4 -17 1 -19 -29 -14 -22 4 -34 2 -34 -6 0 -6 -7 -11 -15 -11
-22 0 -31 67 -13 99 20 34 11 55 -46 109 -51 47 -56 49 -56 26 0 -9 -6 -14
-12 -11 -7 2 -13 16 -13 30 0 16 -9 33 -22 42 -16 11 -23 26 -23 49 0 40 4 44
33 39 15 -3 28 -18 41 -49 23 -57 40 -58 32 -1 -6 39 -4 45 28 76 27 26 41 32
67 30 42 -4 50 12 16 29 l-25 12 21 65 21 65 16 -57 c9 -32 24 -73 33 -90z
m-2301 117 c50 0 78 -28 78 -77 0 -21 -4 -44 -9 -52 -5 -8 -2 -29 7 -52 11
-30 13 -49 6 -76 -8 -34 -13 -38 -59 -48 -28 -6 -56 -14 -62 -18 -19 -12 -23
8 -7 38 10 19 11 31 4 40 -15 18 -22 271 -7 256 6 -6 28 -11 49 -11z m206 -35
c13 -4 23 -15 24 -28 3 -44 7 -74 22 -176 9 -57 13 -107 10 -112 -3 -5 -13 -9
-24 -9 -19 0 -30 19 -30 50 0 23 -25 33 -40 15 -14 -17 -37 -9 -45 15 -6 19
13 239 22 253 2 4 12 6 21 3 10 -2 27 -7 40 -11z m140 -26 c26 -7 55 -19 64
-27 24 -20 34 -78 18 -107 -8 -14 -9 -31 -5 -42 19 -41 21 -109 4 -129 -16
-20 -52 -17 -82 6 -14 11 -30 20 -35 20 -6 0 -13 28 -16 63 -10 108 -11 227
-3 227 4 0 29 -5 55 -11z m3486 -220 c0 -51 -5 -71 -23 -96 -22 -29 -22 -32
-6 -57 15 -23 17 -57 16 -303 -1 -152 -5 -281 -10 -286 -17 -17 -47 76 -50
162 -1 8 -4 11 -8 7 -4 -3 -8 -66 -9 -139 -3 -179 -8 -207 -41 -207 -22 0 -53
29 -53 50 0 10 7 23 15 30 10 8 15 30 15 65 0 58 -15 79 -63 87 -23 5 -30 1
-38 -19 -5 -13 -9 -38 -9 -55 0 -29 -2 -30 -30 -24 -25 5 -32 2 -39 -16 -15
-41 -19 -2 -12 145 3 81 2 152 -3 157 -15 15 4 78 29 98 32 25 47 66 36 95
-12 29 -69 83 -103 96 -31 11 -44 46 -34 87 6 23 11 26 36 21 34 -7 43 10 39
71 -4 70 -2 72 40 72 22 0 52 5 67 10 16 7 31 7 38 1 6 -5 36 -12 66 -15 46
-6 60 -3 85 14 17 11 35 18 40 16 6 -1 10 -32 9 -67z m-2484 22 c0 -5 19 -12
42 -16 26 -5 53 -18 70 -35 25 -25 28 -36 28 -92 0 -40 -5 -71 -15 -85 -14
-19 -12 -29 16 -108 16 -48 28 -90 25 -93 -3 -3 -16 0 -29 5 -26 12 -57 68
-57 105 -1 22 -21 58 -34 58 -3 0 -6 -18 -6 -40 0 -33 -3 -40 -20 -40 -21 0
-27 15 -9 25 14 9 6 30 -12 30 -11 0 -14 27 -14 148 0 81 3 147 7 147 5 0 8
-4 8 -9z m2937 -71 c57 -32 123 -110 123 -144 0 -12 -7 -41 -15 -64 -12 -33
-13 -52 -5 -80 5 -21 10 -55 10 -76 0 -34 6 -45 45 -81 48 -44 49 -55 3 -55
-21 0 -42 -13 -78 -50 -48 -47 -61 -75 -40 -82 6 -2 4 -14 -4 -30 -9 -18 -11
-30 -5 -34 6 -3 11 -4 12 -3 19 37 28 44 55 47 46 5 109 -16 144 -47 28 -25
32 -35 39 -112 5 -46 14 -106 20 -134 6 -27 13 -92 14 -143 4 -108 0 -113 -74
-93 -25 6 -63 16 -84 22 l-38 10 2 85 c2 84 2 86 -27 103 -16 10 -38 28 -48
40 -12 13 -31 21 -51 21 -45 0 -67 20 -63 55 2 25 7 30 28 27 13 -1 34 -12 46
-23 26 -24 31 -19 35 41 4 43 3 45 -21 43 -68 -5 -101 31 -61 68 15 14 21 32
21 59 0 37 -3 41 -39 56 -22 9 -50 30 -63 50 -13 18 -26 34 -31 34 -4 0 -5 10
-2 23 4 15 -2 35 -18 57 -20 31 -23 46 -22 120 2 88 12 126 39 149 22 18 20
38 -5 52 -18 9 -21 17 -16 52 3 23 14 47 23 54 31 23 95 15 151 -17z m-467
-855 c0 -76 4 -107 14 -118 12 -11 117 -37 302 -73 25 -4 39 -33 25 -47 -11
-11 -467 85 -484 102 -19 19 9 36 53 32 36 -2 40 0 45 26 3 15 10 42 15 59 6
17 10 54 10 83 0 32 4 50 10 46 6 -3 10 -52 10 -110z m1705 20 c70 -19 98 -40
91 -70 -3 -12 3 -34 14 -50 27 -40 25 -52 -9 -69 -58 -31 -106 -31 -166 -1
-32 15 -61 38 -69 53 -12 23 -11 30 6 64 16 31 18 41 8 53 -10 12 -9 16 1 19
8 2 21 7 29 9 24 9 33 8 95 -8z"/>
<path d="M1776 5312 c-6 -37 -1 -127 9 -142 3 -4 21 -4 41 0 20 5 43 6 50 3 8
-3 21 -2 30 1 15 6 15 8 -2 27 -15 17 -16 23 -5 40 9 16 10 24 0 35 -9 11 -9
18 -1 26 27 27 52 -18 52 -93 0 -16 5 -29 10 -29 6 0 10 21 10 48 0 41 17 94
21 67 3 -16 5 -47 7 -82 2 -35 22 -47 22 -13 0 10 8 23 17 29 15 8 16 12 3 35
-7 14 -10 29 -7 33 15 14 27 -14 31 -70 2 -32 5 -59 7 -61 2 -2 23 -6 46 -9
l43 -5 -3 81 c-3 100 -21 109 -25 14 -2 -57 -6 -68 -18 -63 -9 3 -18 6 -20 6
-2 0 -4 27 -4 60 0 82 -8 86 -212 95 l-96 4 -6 -37z"/>
<path d="M2576 4561 c-10 -16 1 -146 14 -168 11 -17 11 -27 3 -45 -22 -45 -24
-63 -17 -140 7 -81 22 -100 44 -57 17 31 9 381 -9 402 -15 19 -27 21 -35 8z"/>
<path d="M4934 1040 c11 -77 25 -254 20 -261 -2 -4 0 -10 6 -14 5 -3 10 0 10
8 0 11 13 14 53 13 l52 -1 -2 50 c-5 89 -25 235 -34 235 -4 0 -11 -4 -14 -10
-10 -16 -57 -12 -78 8 -19 17 -20 16 -13 -28z"/>
<path d="M8649 686 c-40 -29 -52 -64 -45 -133 8 -82 45 -159 106 -224 37 -39
53 -49 78 -49 31 0 60 20 79 55 6 9 27 19 50 22 47 6 85 -11 135 -61 41 -41
73 -46 111 -16 30 24 56 25 83 5 10 -8 29 -15 42 -15 20 0 22 5 24 63 1 34 2
77 3 95 0 17 -1 32 -3 32 -2 0 -17 -9 -33 -21 -32 -22 -54 -20 -89 11 -36 31
-51 16 -44 -42 6 -41 4 -51 -12 -63 -27 -21 -73 -19 -80 3 -3 9 -16 41 -30 70
-21 46 -27 52 -47 47 -20 -6 -36 -21 -55 -51 -4 -5 -24 -20 -44 -33 -31 -19
-45 -21 -85 -15 -70 10 -102 30 -124 77 -32 72 -24 113 34 174 29 31 32 32 99
28 37 -3 68 -1 68 4 0 12 -26 21 -61 21 -17 0 -38 4 -47 9 -29 15 -97 19 -113
7z"/>
<path d="M8852 145 c-16 -12 -27 -13 -41 -6 -11 7 -44 8 -80 4 -67 -6 -65 -4
-75 -91 -5 -52 16 -69 45 -34 20 26 41 28 73 6 16 -10 26 -12 31 -5 9 16 25
13 25 -4 0 -13 25 -15 165 -15 165 0 166 0 154 21 -8 16 -16 19 -32 14 -12 -4
-38 -9 -57 -12 -31 -4 -39 0 -70 38 -90 106 -98 111 -138 84z"/>
</g>
</svg>
