<?xml version="1.0" standalone="no"?>
<!DOCTYPE svg PUBLIC "-//W3C//DTD SVG 20010904//EN"
 "http://www.w3.org/TR/2001/REC-SVG-20010904/DTD/svg10.dtd">
<svg version="1.0" xmlns="http://www.w3.org/2000/svg"
 width="626.000000pt" height="626.000000pt" viewBox="0 0 626.000000 626.000000"
 preserveAspectRatio="xMidYMid meet">
<metadata>
Created by potrace 1.16, written by Peter Selinger 2001-2019
</metadata>
<g transform="translate(0.000000,626.000000) scale(0.100000,-0.100000)"
fill="#000000" stroke="none">
<path d="M650 5535 l0 -84 -34 -16 c-20 -10 -39 -29 -47 -47 -7 -16 -36 -54
-65 -82 -78 -79 -96 -174 -50 -271 43 -91 126 -145 226 -145 214 0 332 257
187 408 -18 19 -44 40 -59 48 -16 8 -28 21 -28 28 0 24 -40 64 -70 71 l-30 7
0 84 c0 68 -3 84 -15 84 -12 0 -15 -16 -15 -85z m105 -206 c54 -15 120 -82
135 -138 35 -130 -73 -265 -210 -264 -181 2 -280 202 -167 338 55 67 145 91
242 64z"/>
<path d="M1120 5311 l0 -309 -35 -12 c-41 -13 -75 -53 -75 -86 0 -16 -10 -28
-29 -38 -47 -25 -110 -104 -126 -159 -45 -151 28 -316 168 -378 74 -33 191
-33 262 1 64 31 124 91 155 155 34 69 35 190 2 252 -32 61 -75 106 -126 134
-36 19 -46 29 -48 53 -3 35 -55 76 -94 76 l-24 0 0 310 c0 269 -2 310 -15 310
-13 0 -15 -41 -15 -309z m-16 -646 c15 -25 31 -45 35 -45 5 0 21 20 35 45 15
25 29 45 31 45 3 0 17 -18 31 -40 15 -22 32 -40 38 -40 6 0 23 18 38 40 l26
41 23 -38 c12 -21 24 -40 26 -43 3 -3 13 6 23 20 l20 25 0 -40 c0 -22 -7 -51
-17 -64 l-16 -24 -24 47 c-13 25 -29 46 -36 46 -6 0 -22 -24 -35 -53 l-23 -52
-29 50 c-16 28 -35 50 -42 50 -7 0 -24 -21 -38 -47 -14 -27 -28 -48 -32 -48
-3 0 -16 25 -29 55 -12 30 -26 55 -29 55 -4 0 -24 -25 -44 -55 -20 -31 -40
-54 -45 -51 -4 3 -16 23 -26 46 -10 22 -21 40 -25 40 -3 0 -17 -19 -31 -42
l-24 -43 -3 39 c-2 28 3 48 22 77 15 21 28 39 31 39 2 0 14 -18 25 -40 11 -22
25 -40 30 -40 6 0 25 20 42 45 18 25 35 45 39 45 4 0 19 -20 33 -45z"/>
<path d="M1570 5483 l0 -138 -33 -15 c-17 -8 -41 -31 -52 -51 -11 -21 -37 -51
-57 -68 -52 -45 -78 -104 -78 -178 0 -187 201 -305 370 -218 41 21 105 98 118
143 16 53 15 125 -2 166 -18 44 -70 101 -104 115 -18 8 -31 23 -38 44 -8 29
-31 48 -76 61 -16 5 -18 20 -18 141 0 113 -2 135 -15 135 -13 0 -15 -22 -15
-137z m220 -353 c11 -20 8 -20 -190 -20 -198 0 -201 0 -190 20 10 19 21 20
190 20 169 0 180 -1 190 -20z m20 -81 c0 -27 -2 -30 -22 -22 -13 4 -107 7
-210 5 l-188 -3 0 26 0 25 210 0 210 0 0 -31z m-4 -51 c2 -3 2 -13 -2 -22 -6
-15 -28 -16 -208 -14 -180 3 -201 5 -204 20 -3 15 8 18 75 21 94 5 332 1 339
-5z"/>
<path d="M3081 5412 c-30 -121 -97 -221 -178 -269 -24 -14 -42 -30 -40 -36 4
-14 75 -30 100 -23 9 2 17 -1 17 -8 0 -18 -155 -215 -211 -268 -27 -26 -49
-52 -49 -57 0 -6 16 -11 35 -11 21 0 35 -5 35 -12 0 -23 -88 -126 -150 -175
-33 -26 -60 -54 -60 -60 0 -8 15 -13 40 -13 22 0 40 -3 40 -6 0 -3 -16 -30
-35 -59 -43 -64 -93 -104 -160 -127 -27 -9 -51 -23 -53 -32 -7 -31 136 -46
201 -21 25 10 21 -7 -13 -50 -30 -37 -39 -65 -21 -65 14 0 146 58 185 81 50
29 45 7 -11 -46 -57 -55 -50 -72 20 -51 25 7 67 26 93 40 25 14 48 26 51 26 7
0 -19 -44 -48 -81 -55 -71 -34 -77 65 -19 38 22 70 39 71 38 4 -4 -14 -192
-23 -253 -5 -28 -7 -56 -4 -63 3 -9 41 -12 133 -12 116 0 129 2 129 18 0 9 -7
73 -15 142 -8 69 -15 138 -15 153 l0 29 38 -30 c73 -58 147 -80 114 -34 -18
25 -62 116 -58 120 2 2 23 -10 47 -27 50 -37 138 -66 153 -51 6 6 -6 25 -37
55 -51 49 -64 78 -21 50 28 -18 181 -85 195 -85 17 0 9 25 -21 64 -38 50 -38
57 2 45 102 -29 250 19 161 52 -56 20 -96 45 -155 98 -55 50 -58 55 -39 63 29
10 27 18 -20 63 -43 41 -129 151 -129 165 0 4 8 7 18 6 30 -2 17 27 -53 125
-72 98 -165 240 -165 250 0 3 27 1 61 -4 89 -15 96 0 33 66 -101 104 -173 214
-199 300 -17 59 -38 59 -54 -1z m112 -191 c17 -25 49 -65 70 -88 29 -32 35
-43 23 -43 -22 0 -55 17 -84 43 -37 34 -48 11 -29 -65 9 -34 14 -64 12 -66 -2
-2 -18 17 -36 42 -18 25 -36 46 -41 46 -4 0 -24 -17 -44 -37 -22 -23 -34 -31
-30 -19 34 104 29 141 -15 113 -13 -8 -35 -18 -49 -22 -21 -6 -16 2 28 49 31
32 66 84 83 122 l30 65 25 -47 c14 -25 39 -67 57 -93z m-290 -468 c-4 -10 -18
-35 -31 -56 -46 -69 4 -69 96 1 35 26 38 22 21 -27 -21 -59 13 -65 86 -15 l37
25 40 -41 c58 -58 72 -54 63 16 l-7 56 53 -41 c71 -57 83 -50 63 39 l-7 34 29
-23 c16 -12 46 -50 67 -84 22 -34 58 -82 80 -106 47 -51 37 -63 -26 -32 -24
12 -49 21 -55 21 -17 0 -15 -25 4 -61 8 -17 14 -33 12 -35 -2 -2 -26 17 -53
41 -61 56 -80 59 -71 9 4 -19 10 -43 13 -52 6 -19 -74 60 -99 98 -13 20 -19
23 -29 12 -11 -10 -11 -23 -1 -72 7 -34 16 -69 19 -78 15 -39 -27 12 -53 64
-14 30 -32 54 -38 54 -6 0 -19 -12 -28 -27 -9 -16 -27 -38 -41 -51 l-24 -23 9
62 c10 62 2 89 -21 75 -6 -4 -29 -34 -52 -67 -22 -33 -43 -59 -45 -57 -2 2 0
27 5 56 9 57 2 75 -28 77 -11 1 -18 -1 -16 -5 2 -4 -18 -29 -46 -56 l-50 -49
30 55 c39 71 28 89 -32 58 -23 -12 -59 -25 -80 -28 l-38 -7 69 71 c38 39 79
90 91 114 18 36 39 53 88 71 1 1 -1 -7 -4 -16z m272 -708 c2 -11 6 -51 10 -90
3 -38 8 -85 11 -102 l6 -33 -91 0 c-66 0 -91 3 -91 13 0 6 5 60 12 120 11 103
12 108 41 126 28 18 32 18 64 3 18 -9 35 -25 38 -37z"/>
<path d="M4936 5421 c-9 -10 -16 -22 -15 -27 1 -5 1 -24 0 -41 l-1 -33 -47 30
c-63 40 -114 41 -154 1 -54 -54 -30 -122 56 -157 25 -11 45 -22 45 -26 0 -4
-39 -9 -87 -10 l-88 -3 -3 -78 c-3 -83 6 -107 39 -107 18 0 19 -13 19 -315 -1
-174 2 -320 5 -325 4 -6 157 -10 405 -10 354 0 399 2 404 16 3 9 6 155 6 325
0 300 1 309 20 309 10 0 23 8 28 18 7 13 10 133 3 164 0 4 -31 8 -68 10 l-68
3 50 23 c65 30 85 49 85 83 0 60 -99 91 -171 53 -34 -17 -59 -13 -59 10 0 17
-30 36 -55 36 -9 0 -32 -12 -51 -26 -26 -20 -34 -23 -34 -11 0 9 -11 28 -24
44 -21 24 -26 26 -49 16 -14 -7 -34 -27 -43 -45 l-17 -32 -24 49 c-14 27 -31
55 -38 62 -19 19 -49 16 -69 -6z m-102 -82 c-2 -3 8 -12 22 -20 30 -16 134
-125 134 -140 0 -7 -16 -9 -41 -5 -95 13 -178 46 -213 85 -36 39 9 91 76 88
14 -1 24 -5 22 -8z m687 -45 c24 -21 14 -41 -30 -63 -74 -38 -251 -76 -251
-54 0 12 124 101 162 118 44 19 97 19 119 -1z m-521 -224 l0 -60 -160 0 -160
0 0 60 0 60 160 0 160 0 0 -60z m540 0 l0 -60 -154 0 -154 0 -6 26 c-4 14 -4
41 0 60 l6 34 154 0 154 0 0 -60z m-540 -405 l0 -304 -32 -5 c-18 -3 -76 -4
-128 -3 l-95 2 -3 308 -2 307 130 0 130 0 0 -305z m478 -2 l-3 -308 -125 0
-125 0 2 290 c1 160 2 298 2 308 1 15 14 17 126 17 l125 0 -2 -307z"/>
<path d="M5227 4202 c-15 -3 -18 -14 -16 -70 0 -37 -4 -80 -10 -95 -11 -29 -8
-47 10 -47 5 0 9 18 9 39 0 22 4 42 9 45 5 3 31 -17 57 -44 48 -50 67 -62 62
-37 -1 6 14 54 35 106 37 92 46 156 11 74 -11 -24 -22 -43 -25 -43 -3 0 -13
16 -23 36 -25 53 -30 36 -6 -22 19 -46 20 -52 5 -87 -8 -20 -19 -37 -23 -37
-4 0 -25 17 -45 38 -37 38 -37 38 -17 57 40 36 17 99 -33 87z"/>
<path d="M1142 4118 c-14 -17 -20 -205 -7 -209 6 -2 11 15 13 39 2 23 6 42 10
42 5 0 28 -20 52 -45 24 -25 48 -45 52 -45 4 0 8 18 8 39 0 22 4 42 9 45 5 3
30 -17 55 -44 50 -54 66 -61 66 -31 0 11 16 59 35 107 19 47 35 93 35 101 0
26 -24 8 -34 -25 -11 -40 -16 -40 -38 -1 -27 46 -42 26 -17 -23 21 -41 21 -84
-1 -118 -8 -12 -16 -8 -50 25 -39 38 -40 40 -21 55 33 26 31 76 -4 92 -42 19
-55 -2 -55 -93 0 -44 -4 -79 -8 -79 -4 0 -22 15 -40 33 -31 32 -32 33 -12 50
26 22 27 73 1 87 -26 13 -36 13 -49 -2z"/>
<path d="M948 4113 c-3 -4 -13 -36 -23 -70 -10 -35 -22 -63 -26 -63 -4 0 -11
21 -14 48 -3 26 -7 53 -8 61 -5 35 -25 19 -32 -24 -3 -26 -13 -65 -21 -87 -8
-22 -14 -49 -14 -59 0 -32 18 -21 30 19 21 68 21 69 33 33 16 -46 34 -50 51
-10 l13 32 9 -38 c5 -21 15 -40 21 -42 8 -3 10 22 6 94 -5 90 -14 128 -25 106z"/>
<path d="M4991 3864 c-28 -36 -27 -87 5 -154 31 -66 34 -116 8 -135 -24 -17
-12 -29 19 -21 14 3 30 18 37 35 13 33 5 71 -31 143 -29 58 -23 118 11 118 11
0 22 -5 26 -11 4 -7 24 -9 50 -6 l43 4 3 -126 c2 -103 6 -126 18 -126 11 0 15
13 15 55 0 30 1 87 3 126 l2 71 61 12 c136 27 11 46 -144 21 -35 -5 -50 -3
-58 6 -18 22 -46 16 -68 -12z"/>
<path d="M5715 3865 c-33 -32 -32 -77 2 -151 28 -62 35 -125 15 -132 -19 -6
-14 -32 7 -32 25 0 41 21 48 62 4 26 -2 49 -26 96 -39 77 -40 114 -4 140 15
11 23 24 19 30 -11 19 -35 14 -61 -13z"/>
<path d="M4750 3854 c-18 -20 -27 -271 -12 -286 14 -14 32 29 32 78 0 19 4 34
8 34 4 0 32 -24 61 -54 61 -62 91 -66 91 -12 0 17 3 75 7 130 6 93 5 98 -13
94 -14 -2 -19 -13 -21 -43 -4 -78 -15 -165 -21 -165 -3 0 -25 19 -49 42 l-42
41 30 28 c36 34 38 71 4 104 -28 29 -57 32 -75 9z"/>
<path d="M5582 3853 c-5 -10 -19 -51 -31 -90 -12 -40 -25 -73 -30 -73 -4 0 -8
-15 -8 -32 -1 -18 -4 -48 -8 -65 -6 -27 -4 -33 9 -33 9 0 18 12 22 28 14 64
21 76 48 83 23 6 28 4 37 -17 5 -14 9 -31 9 -38 0 -8 7 -19 15 -26 28 -23 28
16 1 118 -14 54 -26 108 -26 119 0 11 -6 26 -14 32 -12 10 -17 9 -24 -6z"/>
<path d="M4667 3853 c-3 -5 -8 -30 -12 -57 -9 -67 -14 -76 -39 -76 -18 0 -21
6 -21 47 0 35 -4 48 -16 51 -13 2 -18 -17 -28 -107 -13 -113 -11 -131 15 -131
9 0 14 11 14 33 0 57 10 77 37 77 24 0 25 -2 19 -45 -8 -51 -1 -85 18 -85 13
0 51 274 40 291 -6 11 -21 12 -27 2z"/>
<path d="M5430 3817 c-18 -69 -42 -141 -50 -150 -8 -10 -30 69 -30 110 0 41
-11 74 -23 70 -6 -2 -19 -41 -29 -87 -10 -47 -25 -107 -34 -134 -14 -40 -14
-50 -3 -57 16 -10 31 19 50 91 l12 45 14 -40 c26 -76 63 -83 78 -14 8 36 25
29 25 -11 0 -41 10 -60 30 -60 15 0 16 5 9 43 -4 23 -8 83 -9 133 0 71 -3 93
-15 98 -10 4 -17 -6 -25 -37z"/>
<path d="M1289 3826 c-2 -2 -35 -7 -72 -10 -37 -3 -79 -9 -92 -12 -15 -4 -25
-2 -25 5 0 20 -48 12 -64 -11 -22 -31 -20 -65 9 -123 26 -54 32 -104 13 -123
-6 -6 -8 -15 -4 -19 4 -5 17 3 28 17 23 28 19 70 -13 132 -29 58 -24 118 11
118 11 0 22 -5 26 -11 4 -7 21 -9 45 -5 33 5 39 3 39 -11 1 -10 1 -60 1 -110
0 -51 4 -95 9 -98 4 -3 11 47 15 110 l7 115 37 6 c51 8 61 12 61 24 0 10 -22
14 -31 6z"/>
<path d="M1436 3788 c-38 -134 -50 -167 -62 -157 -7 5 -15 38 -19 72 -9 78
-21 103 -30 62 -10 -51 -43 -179 -51 -199 -5 -13 -3 -17 6 -14 8 2 20 24 28
49 7 24 16 51 19 59 3 9 11 -2 21 -29 23 -59 38 -62 61 -9 l19 43 7 -40 c9
-57 13 -65 26 -65 8 0 9 12 4 38 -4 20 -6 72 -6 114 1 42 -3 80 -9 83 -6 3
-12 0 -14 -7z"/>
<path d="M2667 3673 c-8 -12 -12 -161 -5 -168 3 -3 9 11 13 31 l6 37 38 -37
c20 -20 40 -36 44 -36 4 0 7 16 7 35 0 19 4 35 8 35 4 0 25 -18 47 -40 l39
-40 33 86 c35 92 38 104 24 104 -5 0 -13 -14 -16 -32 -7 -30 -8 -31 -21 -14
-7 11 -15 24 -17 30 -2 6 -7 8 -11 5 -3 -3 0 -22 9 -42 11 -27 12 -42 4 -66
-6 -17 -14 -31 -18 -31 -4 0 -20 13 -36 30 -27 29 -28 30 -11 49 26 28 14 71
-18 71 -22 0 -25 -5 -31 -57 -3 -32 -7 -63 -8 -70 -1 -6 -15 -1 -32 14 -20 16
-26 27 -17 30 22 9 34 41 22 63 -10 20 -44 27 -53 13z"/>
<path d="M3110 2995 c0 -2 42 -27 92 -54 l93 -50 -65 -29 c-84 -38 -327 -117
-424 -136 -86 -18 -327 -22 -420 -6 -33 5 -62 7 -65 5 -15 -15 28 -25 151 -35
130 -11 231 -7 366 17 30 5 32 4 32 -25 0 -27 -4 -31 -32 -34 -32 -3 -33 -5
-36 -53 -2 -29 -11 -60 -21 -74 l-18 -24 -119 28 c-65 15 -123 30 -129 33 -5
4 -20 8 -33 10 -13 1 -53 14 -90 27 -36 13 -68 22 -71 19 -10 -9 17 -25 84
-47 l70 -24 3 -77 3 -76 -58 5 c-32 4 -68 8 -80 11 -15 3 -23 0 -23 -10 0 -10
22 -15 80 -20 59 -6 80 -11 80 -22 0 -9 -11 -14 -30 -14 -29 0 -30 -2 -30 -42
0 -23 -10 -62 -22 -87 -64 -131 -7 -321 96 -321 43 0 73 26 105 89 33 65 36
117 11 186 -12 33 -25 85 -29 115 -5 51 -8 55 -33 58 -16 2 -28 9 -28 18 0 11
18 14 84 14 46 0 96 3 112 6 28 5 30 3 46 -53 20 -70 62 -121 104 -129 24 -5
37 0 64 22 38 33 80 115 80 160 0 17 2 33 5 36 5 4 108 -12 173 -27 36 -9 26
-48 -13 -55 -28 -5 -30 -9 -35 -55 -3 -28 -14 -65 -23 -83 -44 -81 -26 -210
37 -276 44 -47 82 -48 126 -4 69 69 89 182 48 268 -12 25 -24 70 -27 100 -6
50 -8 55 -31 55 -18 0 -25 5 -25 20 0 17 6 19 45 17 31 -2 50 -9 60 -23 57
-77 72 -89 110 -89 31 0 44 7 69 35 17 20 31 40 31 45 0 6 9 10 20 10 19 0 20
-7 20 -99 l0 -100 -27 -3 c-25 -3 -29 -8 -33 -48 -3 -25 -16 -67 -29 -94 -46
-97 -24 -228 48 -289 38 -32 55 -33 97 -8 73 44 108 188 69 276 -10 22 -21 67
-24 100 -6 56 -8 60 -33 63 l-28 3 0 98 0 98 38 7 c20 3 60 6 88 6 68 0 144
11 144 20 0 5 -73 6 -163 3 l-163 -6 4 62 c3 43 -1 75 -13 107 -9 25 -16 47
-14 48 2 2 29 16 59 31 30 15 81 43 112 62 57 34 59 34 114 23 56 -12 81 -7
54 10 -8 6 -27 10 -42 10 -39 0 -35 13 12 44 22 14 40 33 40 42 0 11 -17 3
-57 -25 -31 -23 -67 -41 -79 -41 -34 0 -237 63 -337 105 l-88 37 83 51 c50 31
77 53 67 55 -9 2 -45 -15 -80 -38 -91 -59 -96 -59 -194 -6 -75 41 -115 55
-115 41z m282 -146 l58 -24 0 -57 c0 -57 0 -57 -32 -60 -32 -3 -33 -5 -38 -53
-7 -61 -33 -121 -60 -135 -25 -13 -267 -80 -291 -80 -24 0 -61 80 -68 150 -6
51 -8 55 -34 58 -26 3 -28 7 -25 39 l3 35 120 43 c66 23 158 58 205 78 47 20
90 34 95 33 6 -2 36 -14 67 -27z m343 -118 c16 -6 2 -17 -75 -59 -52 -29 -101
-52 -107 -52 -9 0 -13 15 -13 44 0 41 -2 45 -27 48 -28 3 -39 32 -28 74 5 21
5 21 117 -13 62 -19 122 -38 133 -42z m-196 -190 c28 -66 27 -108 -6 -171 -34
-64 -52 -78 -89 -65 -65 23 -94 155 -54 243 19 42 19 42 73 42 l55 0 21 -49z
m-876 -43 l99 -22 -7 -35 c-4 -20 -8 -37 -9 -38 -1 -1 -52 -5 -114 -9 l-112
-7 0 73 c0 70 1 72 23 66 12 -3 66 -16 120 -28z m-93 -320 c34 -75 20 -169
-32 -225 -30 -32 -61 -29 -92 7 -48 58 -55 141 -20 226 14 33 16 34 70 34 l55
0 19 -42z m727 -15 c10 -27 17 -67 17 -89 -1 -47 -43 -127 -75 -145 -51 -27
-116 74 -106 167 3 28 13 66 21 83 15 29 20 31 70 31 l54 0 19 -47z"/>
<path d="M4696 2984 c-3 -9 -6 -52 -6 -96 0 -70 2 -79 15 -68 13 11 15 7 15
-25 0 -29 3 -36 15 -31 8 3 15 1 15 -5 0 -29 21 10 46 84 30 87 46 84 20 -4
-22 -74 -19 -95 4 -29 l20 55 -6 -55 c-2 -30 -10 -84 -17 -120 l-12 -65 -6 65
-6 65 -1 -53 -2 -54 -37 30 c-21 16 -49 35 -62 42 -16 8 -20 14 -12 20 9 5 5
12 -11 22 -38 25 -160 84 -200 97 -21 7 -40 16 -43 21 -3 4 38 -7 90 -26 52
-18 95 -30 95 -26 0 21 -256 142 -299 142 -10 0 -8 -226 2 -236 5 -5 12 -2 16
5 6 9 11 4 19 -18 9 -24 16 -30 34 -28 17 3 24 11 26 33 1 16 -1 24 -5 17 -4
-6 -8 20 -8 58 0 77 10 91 20 27 12 -79 27 -150 31 -145 2 2 -1 29 -7 61 -18
101 -5 93 23 -14 15 -57 25 -106 23 -108 -2 -2 -10 9 -19 25 -23 43 -19 20 6
-32 23 -47 38 -58 38 -27 0 9 -14 66 -30 126 -19 71 -25 105 -16 95 8 -7 21
-50 31 -94 23 -113 35 -145 51 -145 9 0 14 12 15 33 1 31 1 31 10 -8 5 -22 11
-50 14 -62 3 -13 10 -23 15 -23 13 0 13 57 -1 120 -6 28 -8 54 -5 57 7 8 11
-5 31 -119 16 -94 36 -136 48 -104 6 15 -9 129 -19 150 -3 6 1 3 9 -7 8 -10
18 -33 21 -52 11 -58 36 -109 48 -97 7 7 6 25 -6 58 -9 26 -16 49 -16 52 0 2
16 -10 35 -27 20 -17 41 -31 47 -31 12 0 -5 22 -76 98 -46 48 -42 53 15 16 23
-14 43 -23 45 -21 3 3 -33 29 -80 58 -128 82 -129 83 -14 26 87 -42 106 -56
107 -74 1 -23 15 -31 26 -14 3 5 13 62 22 125 9 64 20 116 25 116 12 0 10 -17
-12 -125 -25 -122 -26 -148 -3 -143 13 2 21 21 31 68 19 87 33 119 27 60 -4
-37 -3 -40 5 -20 9 22 9 21 5 -9 -3 -18 -6 -41 -6 -50 -1 -9 -4 -2 -8 14 -6
25 -10 16 -25 -58 -9 -49 -15 -91 -13 -93 13 -13 36 34 52 108 10 45 20 76 22
67 2 -8 -5 -54 -17 -102 -23 -101 -26 -151 -8 -145 14 5 46 99 48 138 0 18 3
21 9 11 5 -7 5 -29 0 -50 -11 -48 -11 -131 0 -131 12 0 21 25 21 58 0 52 15
54 39 6 12 -26 24 -44 26 -42 6 5 -32 144 -46 169 -18 34 -1 20 32 -26 18 -25
34 -43 36 -41 5 5 -36 70 -91 144 -21 29 -37 55 -34 57 3 3 19 -16 38 -41 22
-31 35 -42 40 -34 6 9 12 6 21 -11 11 -22 11 -23 -4 -10 -32 25 -17 -5 18 -39
47 -45 46 -19 0 51 -23 33 -32 55 -25 59 13 8 -41 81 -127 172 -87 91 -79 97
12 8 42 -40 78 -70 81 -67 14 13 -145 207 -169 207 -6 0 11 -24 39 -52 85 -90
91 -107 9 -24 -66 65 -82 76 -97 67 -12 -7 -18 -7 -21 2 -2 6 -11 -15 -20 -48
-12 -43 -15 -49 -11 -20 3 22 7 48 10 58 3 9 1 17 -5 17 -6 0 -11 -10 -12 -22
0 -13 -7 -45 -15 -73 l-13 -50 4 73 c5 72 3 86 -9 56z"/>
<path d="M5291 2951 c-43 -52 -55 -76 -21 -46 14 13 20 14 20 5 0 -9 9 -5 25
10 14 13 25 19 25 14 0 -5 -21 -30 -46 -54 -70 -67 -135 -160 -129 -181 3 -9
1 -20 -5 -24 -6 -3 -22 -29 -36 -57 -32 -63 -13 -59 41 9 107 135 113 135 16
-2 -29 -42 -51 -79 -48 -82 3 -2 18 14 33 36 15 23 28 40 30 38 2 -1 -8 -38
-22 -81 -30 -95 -27 -119 6 -50 l25 49 7 -49 c6 -46 22 -76 33 -65 3 3 0 43
-6 88 -10 86 -6 124 7 55 9 -50 34 -114 44 -114 20 0 19 24 -5 125 -14 59 -23
110 -21 113 7 6 11 -7 27 -78 13 -63 25 -90 39 -90 6 0 10 9 10 19 0 13 11 23
35 31 19 6 38 16 42 22 4 8 0 9 -13 5 -18 -7 -18 -6 1 9 25 20 75 46 75 40 0
-3 -14 -13 -31 -21 -17 -9 -28 -19 -26 -22 3 -3 32 10 63 28 31 18 55 28 51
23 -3 -6 -46 -34 -96 -64 -50 -29 -91 -57 -91 -62 0 -5 21 4 47 19 l47 27 -58
-68 c-61 -72 -68 -96 -15 -52 37 31 44 29 29 -8 -5 -15 -10 -38 -10 -52 0 -49
20 -22 46 62 14 47 28 83 31 81 2 -3 0 -22 -6 -44 -16 -56 -14 -113 3 -113 14
0 19 17 47 158 6 34 15 64 19 67 3 2 0 -32 -8 -75 -13 -73 -11 -122 5 -106 4
3 15 41 25 84 10 42 16 58 13 35 -5 -46 10 -67 30 -40 10 14 12 14 22 -1 9
-14 13 -11 32 26 25 49 61 181 61 223 0 15 5 31 10 34 7 4 8 -22 4 -78 -6 -81
-6 -84 15 -90 18 -4 25 1 36 26 8 18 14 26 15 19 1 -32 27 0 52 64 l27 69 -6
-74 c-5 -61 -4 -73 8 -69 8 2 15 15 16 29 2 22 2 23 -7 4 -9 -17 -9 -15 -5 10
3 17 8 86 12 154 l6 124 -59 -7 c-32 -4 -67 -9 -76 -12 -10 -3 -18 -1 -18 4 0
6 35 17 78 26 71 14 73 15 22 12 -101 -8 -177 -46 -106 -54 23 -3 10 -10 -65
-35 l-94 -32 -12 65 -12 65 3 -52 c4 -61 -10 -71 -20 -15 -7 41 -23 77 -24 54
0 -30 33 -124 46 -129 8 -3 11 -9 8 -14 -10 -16 33 -9 152 25 130 38 166 41
57 6 -94 -31 -263 -116 -263 -132 0 -8 50 6 128 36 34 14 62 20 62 15 0 -5 -5
-9 -11 -9 -20 0 -156 -61 -204 -91 -32 -20 -44 -33 -36 -38 8 -5 3 -11 -14
-19 l-25 -12 -1 58 c-1 31 -3 48 -6 37 -11 -50 -17 -45 -29 25 -22 130 -17
157 11 59 15 -51 15 -52 10 -11 -3 23 -11 60 -18 80 -7 21 -11 45 -8 53 2 7
16 -22 31 -66 24 -71 30 -80 51 -80 21 1 24 5 23 38 -1 31 1 35 11 21 18 -26
24 0 17 84 -5 82 -16 89 -15 9 l2 -52 -12 52 c-15 63 -31 83 -23 28 l6 -40
-12 35 c-17 47 -42 53 -34 8 l5 -33 -11 33 c-6 17 -16 32 -22 32 -7 0 -29 -18
-51 -40 -21 -22 -41 -37 -44 -35 -2 3 11 21 29 40 19 19 29 35 23 35 -6 0 -30
-22 -52 -49z"/>
<path d="M4575 2377 c-30 -16 -57 -22 -112 -22 -42 0 -73 -4 -73 -10 0 -6 25
-34 55 -63 56 -54 95 -115 95 -149 0 -10 4 -25 10 -33 8 -12 14 -12 45 3 20 9
46 17 58 17 28 0 73 -45 82 -83 9 -36 22 -43 43 -23 10 8 34 22 54 30 l37 16
21 -35 c12 -19 26 -35 31 -35 5 0 9 -4 9 -9 0 -13 -50 -31 -106 -39 l-49 -7 0
-78 c0 -76 -1 -80 -33 -108 -18 -16 -39 -29 -47 -29 -19 0 -19 -7 2 -81 14
-51 15 -69 5 -117 -7 -32 -8 -60 -3 -65 5 -5 32 12 62 39 62 55 120 83 171 84
20 0 39 3 42 8 2 4 0 26 -6 48 -6 22 -8 52 -4 67 6 27 50 57 83 57 42 1 47 15
23 64 -12 26 -20 49 -18 52 3 2 18 0 34 -6 16 -6 44 -9 62 -5 32 6 33 5 27
-17 -4 -13 -14 -36 -22 -51 -17 -33 -10 -47 23 -47 64 0 103 -47 91 -108 -14
-69 -15 -66 34 -73 64 -10 111 -33 170 -87 61 -54 75 -48 58 26 -10 40 -10 62
0 99 7 27 15 58 18 70 4 17 0 25 -18 32 -13 5 -35 21 -49 36 -22 24 -25 35
-24 101 2 81 7 75 -71 88 -16 2 -43 10 -59 16 l-30 11 30 28 c16 15 34 35 39
45 9 16 13 16 47 -8 40 -27 45 -25 68 32 23 59 68 76 124 47 43 -22 54 -19 62
20 9 50 57 118 115 161 27 21 48 43 46 49 -2 5 -34 10 -70 11 -51 1 -78 7
-117 27 l-51 27 -39 -41 c-39 -41 -40 -41 -97 -36 -32 3 -70 9 -85 13 -18 4
-28 2 -28 -4 0 -6 -9 -35 -20 -65 l-20 -53 -53 0 c-43 1 -60 -4 -89 -26 -32
-24 -37 -26 -49 -12 -33 40 -116 57 -161 33 -27 -15 -43 5 -64 79 -14 48 -18
53 -37 47 -60 -18 -94 -24 -112 -19 -41 11 -67 29 -81 56 -17 33 -26 34 -79 5z
m61 -48 c35 -38 72 -51 141 -47 l64 3 24 -60 c29 -71 29 -65 10 -65 -8 0 -21
16 -29 35 -15 36 -36 47 -36 20 0 -33 -44 -13 -59 28 -11 29 -31 37 -31 12 0
-20 -27 -19 -45 3 -9 9 -27 31 -41 47 l-26 30 6 -32 5 -32 -45 16 c-33 11 -49
12 -56 5 -8 -8 -7 -13 3 -17 8 -2 32 -11 54 -19 22 -8 32 -15 23 -15 -22 -1
-24 -31 -2 -31 8 0 24 5 34 10 14 7 29 6 52 -3 33 -13 33 -14 10 -26 -12 -6
-20 -16 -17 -22 4 -5 -8 -9 -25 -9 -17 0 -39 -4 -49 -10 -15 -8 -21 -2 -39 38
-12 26 -35 63 -51 82 l-29 35 62 21 c33 12 64 22 67 23 3 0 14 -8 25 -20z
m1005 1 c24 -11 57 -20 73 -20 l28 0 -37 -41 c-20 -23 -46 -62 -57 -86 -15
-35 -23 -43 -36 -37 -9 4 -32 9 -49 12 -18 2 -30 8 -27 14 3 5 -3 12 -15 15
-29 8 -26 19 9 31 20 8 38 7 59 -1 34 -13 50 -5 32 17 -9 11 -3 16 34 25 43
11 56 23 36 35 -5 3 -28 -1 -51 -9 -53 -19 -53 -19 -40 4 13 26 13 31 -5 31
-8 0 -22 -15 -31 -32 -9 -18 -17 -34 -18 -35 0 -1 -14 -5 -29 -8 -20 -5 -27
-4 -25 5 6 24 -22 21 -31 -4 -6 -13 -19 -30 -30 -35 -26 -14 -31 -14 -31 4 0
24 -19 18 -32 -10 -6 -14 -15 -25 -19 -25 -18 0 -18 21 1 64 l21 45 62 -6 c52
-4 70 -2 104 15 22 12 43 28 46 37 8 19 6 19 58 -5z m-691 -409 c-5 -11 -26
-25 -45 -31 -35 -12 -44 -38 -11 -32 29 5 -4 -37 -41 -53 -34 -14 -44 -35 -18
-35 35 0 3 -42 -48 -63 -42 -18 -51 -42 -12 -35 30 6 30 7 5 -42 -24 -47 -24
-50 -5 -50 8 0 23 16 33 36 12 23 22 33 26 25 15 -24 28 -10 24 27 -5 39 16
97 32 87 6 -4 10 -12 10 -20 0 -7 4 -15 9 -17 4 -1 10 -24 13 -50 5 -46 5 -47
-26 -54 -37 -8 -104 -40 -128 -62 -17 -14 -18 -13 -18 15 0 16 -6 50 -13 75
-14 44 -14 44 15 61 39 22 71 96 66 153 l-3 44 50 10 c27 6 57 15 65 20 24 15
32 12 20 -9z m411 -19 l56 -16 -5 -41 c-6 -55 27 -129 66 -152 l28 -16 -13
-51 c-7 -28 -13 -61 -13 -73 0 -23 0 -23 -45 6 -24 16 -64 34 -87 40 l-43 12
4 47 c2 26 7 49 11 52 3 3 11 14 17 24 10 18 12 18 25 -10 9 -17 13 -44 10
-66 -4 -38 4 -48 24 -28 7 7 16 -2 29 -30 10 -22 22 -40 26 -40 19 0 18 22 -1
59 -25 50 -25 49 6 43 39 -7 26 19 -15 33 -46 15 -81 65 -46 65 26 0 16 21
-14 31 -35 12 -71 57 -44 55 31 -2 24 23 -8 31 -18 5 -39 20 -48 33 -15 23
-15 24 4 15 11 -4 45 -15 76 -23z"/>
<path d="M664 2261 c-7 -42 -43 -113 -59 -115 -5 -1 -11 16 -13 37 -3 30 -7
37 -20 35 -23 -5 -18 -78 9 -130 19 -37 19 -38 0 -38 -10 0 -37 19 -59 42 -34
34 -42 39 -47 25 -15 -38 68 -107 128 -107 15 0 59 -25 111 -64 48 -36 92 -66
99 -69 28 -10 -7 -19 -88 -25 l-87 -5 -58 63 c-47 51 -60 60 -66 47 -9 -25 55
-108 100 -131 36 -18 46 -18 153 -6 l114 13 42 -41 c24 -23 50 -55 60 -71 l17
-30 -42 -19 c-24 -11 -52 -26 -62 -34 -17 -13 -24 -13 -65 3 -26 9 -81 20
-121 24 -41 4 -101 14 -134 22 -90 22 -94 16 -47 -74 22 -43 55 -95 72 -116
42 -51 115 -87 178 -87 l50 0 41 -83 c22 -46 53 -137 70 -202 17 -66 39 -132
50 -147 11 -15 20 -35 20 -44 0 -28 40 -84 73 -100 43 -23 112 -14 144 18 29
30 65 122 105 273 16 61 47 149 70 198 l41 87 51 0 c67 1 123 27 171 82 46 52
123 193 112 204 -4 4 -40 0 -80 -9 -39 -8 -101 -19 -136 -22 -36 -4 -87 -15
-114 -25 l-50 -19 -41 29 c-22 17 -47 30 -55 30 -41 1 -45 17 -15 58 16 21 44
52 62 67 l34 28 112 -13 c101 -11 116 -11 147 4 45 21 117 122 99 139 -9 9
-17 5 -34 -18 -53 -73 -82 -95 -129 -95 -61 0 -137 11 -137 20 0 4 23 23 51
41 29 18 69 48 91 66 27 22 50 33 72 33 37 0 89 32 120 73 17 23 18 30 7 36
-10 6 -25 -3 -51 -30 -20 -21 -44 -39 -53 -39 -21 0 -21 -1 3 51 23 53 27 119
6 119 -9 0 -17 -16 -21 -40 -6 -36 -9 -39 -23 -28 -21 18 -52 88 -52 121 0 27
-29 41 -31 15 -4 -52 24 -136 51 -153 5 -3 15 -15 20 -26 9 -16 3 -27 -37 -70
-49 -53 -190 -155 -200 -145 -3 3 -1 18 5 33 6 15 16 47 22 71 8 32 16 42 31
42 25 0 89 61 89 84 0 26 -24 19 -48 -14 -38 -51 -51 -40 -54 47 -3 65 -6 78
-20 81 -16 3 -18 -7 -19 -90 0 -51 -4 -102 -8 -113 -7 -18 -10 -17 -30 15 -11
19 -21 43 -21 53 0 18 -26 34 -37 23 -12 -12 19 -90 48 -118 l28 -29 -23 -63
c-14 -36 -47 -92 -76 -127 -28 -35 -53 -74 -56 -86 -7 -27 -55 -37 -129 -28
-51 7 -56 10 -75 48 -12 22 -39 60 -59 84 -34 38 -81 135 -81 167 0 7 9 21 21
32 28 25 49 67 49 99 0 34 -26 32 -33 -3 -7 -32 -42 -80 -52 -70 -4 3 -9 52
-12 107 -5 76 -9 101 -19 101 -14 0 -18 -29 -14 -117 1 -37 -1 -43 -19 -43
-12 0 -27 12 -38 30 -20 34 -43 40 -43 10 0 -27 42 -69 77 -76 25 -5 30 -13
49 -80 24 -88 26 -87 -83 -12 -69 48 -143 120 -143 140 0 5 11 24 25 42 50 65
74 166 40 166 -9 0 -17 -14 -21 -39z m-16 -621 c182 -30 251 -57 336 -132 70
-61 106 -174 106 -333 0 -60 -3 -72 -20 -83 -11 -7 -29 -26 -39 -43 -10 -17
-21 -27 -24 -22 -3 5 -17 56 -32 113 -15 58 -44 143 -66 189 -21 46 -38 85
-37 86 2 0 16 6 32 13 22 10 26 15 17 26 -10 12 -19 12 -59 -1 -116 -36 -222
19 -288 148 -28 57 -29 63 -9 55 9 -3 46 -10 83 -16z m1042 -54 c-63 -110
-160 -161 -260 -136 -67 17 -74 17 -78 -2 -2 -12 5 -19 22 -24 14 -3 26 -8 26
-11 0 -3 -16 -39 -36 -80 -19 -41 -48 -125 -64 -185 -16 -61 -31 -112 -34
-115 -2 -3 -9 5 -15 16 -7 11 -26 28 -43 37 l-31 16 7 99 c15 236 52 299 221
380 55 26 104 41 160 49 44 6 96 14 115 19 19 4 36 4 38 0 2 -4 -11 -32 -28
-63z m-357 35 l38 -23 -43 -27 c-66 -42 -121 -111 -142 -177 -12 -36 -21 -103
-24 -172 -5 -108 -6 -113 -26 -110 -20 3 -21 11 -27 118 -9 180 -47 264 -148
329 -44 29 -50 36 -39 49 26 31 67 38 221 37 141 -1 155 -2 190 -24z"/>
<path d="M3106 1658 c-8 -36 -12 -198 -5 -198 9 0 19 38 19 70 0 23 4 21 50
-25 56 -55 70 -52 70 13 0 17 4 32 8 32 5 0 31 -24 58 -54 48 -54 64 -61 64
-28 0 9 16 57 35 107 36 90 43 146 9 68 -11 -24 -22 -43 -26 -43 -3 0 -11 14
-17 30 -5 17 -15 30 -20 30 -6 0 -1 -21 10 -47 19 -45 19 -49 4 -90 l-17 -44
-41 38 c-52 46 -53 47 -28 72 34 34 25 78 -17 86 -30 5 -36 -8 -42 -104 l-5
-85 -37 33 c-44 38 -46 47 -16 78 21 22 21 26 7 51 -20 36 -56 42 -63 10z"/>
<path d="M3549 1407 c-47 -36 -51 -102 -9 -194 33 -72 40 -140 15 -149 -22 -9
-18 -34 4 -34 27 0 61 46 61 83 0 16 -16 65 -36 109 -42 93 -39 133 9 156 31
15 34 27 11 36 -23 9 -37 7 -55 -7z"/>
<path d="M2710 1360 c-23 -45 -34 -49 -50 -20 -10 19 -40 27 -53 14 -3 -4 8
-24 25 -46 31 -37 31 -40 16 -66 -9 -15 -30 -63 -48 -106 -24 -61 -28 -81 -18
-87 17 -11 35 6 49 49 6 20 21 55 32 77 l19 39 20 -37 c20 -39 39 -54 58 -42
7 4 -1 28 -22 66 l-33 60 33 62 c38 72 39 77 12 77 -13 0 -27 -14 -40 -40z"/>
<path d="M3380 1365 c-5 -14 -19 -59 -31 -100 -12 -41 -26 -75 -32 -75 -5 0
-7 -7 -3 -15 3 -8 -1 -33 -9 -56 -20 -57 -19 -81 2 -77 12 2 23 22 34 63 15
58 17 60 51 63 34 3 36 2 47 -42 12 -48 27 -64 43 -48 7 7 3 39 -15 104 -15
51 -30 113 -33 138 -10 70 -36 92 -54 45z"/>
<path d="M3214 1353 c-3 -16 -17 -66 -31 -113 -22 -75 -27 -82 -38 -67 -7 10
-16 46 -20 80 -9 94 -15 117 -30 117 -8 0 -17 -15 -20 -37 -7 -40 -36 -157
-57 -230 -6 -23 -9 -45 -5 -49 16 -16 37 10 52 63 25 91 27 92 42 41 13 -46
43 -75 62 -63 5 3 15 22 21 43 19 57 30 61 30 10 0 -30 7 -54 18 -68 27 -34
41 -19 31 32 -4 24 -8 87 -9 140 0 53 -3 103 -6 112 -10 25 -33 19 -40 -11z"/>
<path d="M5565 1086 c-68 -68 -27 -165 53 -125 15 7 30 15 34 17 3 2 9 -6 13
-17 10 -33 26 -24 21 12 -3 17 -8 49 -11 69 -11 69 -64 90 -110 44z"/>
</g>
</svg>
