<?xml version="1.0" standalone="no"?>
<!DOCTYPE svg PUBLIC "-//W3C//DTD SVG 20010904//EN"
 "http://www.w3.org/TR/2001/REC-SVG-20010904/DTD/svg10.dtd">
<svg version="1.0" xmlns="http://www.w3.org/2000/svg"
 width="300.000000pt" height="168.000000pt" viewBox="0 0 300.000000 168.000000"
 preserveAspectRatio="xMidYMid meet">
<metadata>
Created by potrace 1.16, written by Peter Selinger 2001-2019
</metadata>
<g transform="translate(0.000000,168.000000) scale(0.100000,-0.100000)"
fill="#000000" stroke="none">
<path d="M0 840 l0 -840 1500 0 1500 0 0 840 0 840 -1500 0 -1500 0 0 -840z
m2150 642 c21 -10 42 -32 54 -55 16 -34 17 -42 4 -75 -20 -54 -68 -82 -139
-82 l-59 0 0 115 0 115 53 0 c29 0 67 -8 87 -18z m-950 -104 c0 -18 -7 -96
-15 -173 -8 -77 -15 -146 -15 -153 0 -10 -91 -12 -437 -10 l-438 3 -17 160
c-9 88 -17 170 -17 183 l-1 22 470 0 470 0 0 -32z m1454 -179 c53 -41 18 -129
-51 -129 -32 0 -73 42 -73 75 0 33 41 75 73 75 13 0 36 -9 51 -21z m-1629
-320 c4 -5 18 -14 31 -20 14 -5 31 -22 38 -39 9 -22 15 -27 23 -19 6 6 17 8
23 4 16 -10 8 -143 -15 -241 l-16 -70 -83 -27 c-45 -15 -87 -27 -94 -27 -19 0
-62 84 -71 141 -17 97 -19 159 -6 159 23 0 45 -37 52 -86 7 -41 9 -29 14 79 3
80 10 132 18 140 17 17 31 -8 31 -59 0 -52 10 -104 20 -104 15 0 21 70 10 111
-12 42 -8 69 9 69 5 0 13 -5 16 -11z m394 -12 c1 18 41 11 42 -7 0 -10 2 -11
6 -2 7 19 26 14 19 -5 -5 -15 -4 -15 9 1 15 19 15 19 16 -5 1 -17 3 -19 6 -6
5 18 23 24 23 6 0 -5 5 -7 10 -4 6 3 10 -2 10 -12 0 -11 3 -14 8 -7 11 17 42
13 43 -5 0 -10 2 -12 6 -3 7 19 26 14 19 -5 -5 -15 -4 -15 9 1 15 20 15 20 16
0 0 -10 3 -13 6 -6 2 6 9 12 15 12 6 0 7 -7 4 -16 -5 -14 -4 -15 9 -4 12 10
15 9 16 -6 1 -17 2 -17 6 -1 5 18 23 24 23 6 0 -5 5 -7 10 -4 6 3 10 -2 10
-12 0 -11 3 -14 8 -7 11 17 42 13 42 -5 0 -14 2 -14 10 -1 5 8 11 12 14 9 6
-5 -139 -577 -148 -586 -5 -6 -408 96 -427 108 -9 5 19 123 133 554 9 34 12
37 19 20 4 -11 8 -15 8 -8z m-936 -129 c2 -7 -4 -30 -15 -50 -10 -21 -21 -59
-24 -85 -5 -44 -4 -47 10 -29 8 10 25 48 36 82 13 39 27 64 36 64 20 0 18 -42
-6 -142 -25 -104 -25 -125 -1 -71 19 41 53 69 70 59 5 -3 -5 -43 -21 -88 -31
-85 -79 -162 -105 -172 -8 -4 -53 12 -100 34 l-86 40 6 118 c9 160 33 234 61
190 8 -13 13 -11 34 14 16 19 32 28 43 25 10 -3 23 1 30 9 14 17 26 18 32 2z
m1430 -210 c-6 -69 -50 -318 -63 -352 -17 -46 -31 -31 -24 26 11 96 52 323 63
351 17 43 28 31 24 -25z m88 -21 c-1 -28 -11 -99 -22 -157 -23 -130 -23 -130
1 -130 23 0 24 -1 8 -51 -15 -51 -28 -49 -29 4 l-1 42 -12 -34 c-20 -56 -39
-52 -31 5 20 147 59 353 73 377 10 19 16 -7 13 -56z"/>
<path d="M2030 1385 l0 -95 56 0 c48 0 59 4 85 29 40 41 40 91 0 132 -26 25
-37 29 -85 29 l-56 0 0 -95z"/>
</g>
</svg>
